SplineFontDB: 3.0
FontName: SortsMillGoudy-Italic
FullName: Sorts Mill Goudy Italic
FamilyName: Sorts Mill Goudy
Weight: Medium
Copyright: Copyright (c) 2010, Barry Schwartz (chemoelectric@chemoelectric.org)
Version: 003.101
ItalicAngle: -7.4
UnderlinePosition: -99
UnderlineWidth: 49
Ascent: 777
Descent: 223
LayerCount: 2
Layer: 0 1 "Back"  1
Layer: 1 1 "Fore"  0
NeedsXUIDChange: 1
XUID: [1021 288 713564382 4628331]
FSType: 0
OS2Version: 4
OS2_WeightWidthSlopeOnly: 0
OS2_UseTypoMetrics: 1
CreationTime: 1245830276
ModificationTime: 1314822642
PfmFamily: 17
TTFWeight: 400
TTFWidth: 5
LineGap: 0
VLineGap: 0
Panose: 2 0 6 3 0 0 0 0 0 0
OS2TypoAscent: 960
OS2TypoAOffset: 0
OS2TypoDescent: -478
OS2TypoDOffset: 0
OS2TypoLinegap: 0
OS2WinAscent: 960
OS2WinAOffset: 0
OS2WinDescent: 478
OS2WinDOffset: 0
HheadAscent: 960
HheadAOffset: 0
HheadDescent: -478
HheadDOffset: 0
OS2SubXSize: 650
OS2SubYSize: 700
OS2SubXOff: 14
OS2SubYOff: 140
OS2SupXSize: 650
OS2SupYSize: 700
OS2SupXOff: -50
OS2SupYOff: 480
OS2StrikeYSize: 49
OS2StrikeYPos: 258
OS2Vendor: 'PfEd'
OS2CodePages: 00000093.00000000
OS2UnicodeRanges: 8000006f.00000042.00000000.00000000
Lookup: 3 0 0 "'aalt' Access All Alternates lookup 0"  {"'aalt' Access All Alternates lookup 0 subtable"  } ['aalt' ('DFLT' <'dflt' > ) ]
Lookup: 3 0 0 "'aalt' Access All Alternates in Latin lookup 1"  {"'aalt' Access All Alternates in Latin lookup 1 subtable"  } ['aalt' ('latn' <'AZE ' 'CRT ' 'TRK ' 'dflt' > ) ]
Lookup: 1 0 0 "'locl' Localized Forms in Latin lookup 2"  {"'locl' Localized Forms in Latin lookup 2 subtable"  } ['locl' ('latn' <'AZE ' 'CRT ' 'TRK ' > ) ]
Lookup: 1 0 0 "'numr' Numerators in Latin lookup 3"  {"'numr' Numerators in Latin lookup 3 subtable"  } ['frac' ('DFLT' <'dflt' > 'latn' <'AZE ' 'CRT ' 'TRK ' 'dflt' > ) 'numr' ('DFLT' <'dflt' > 'latn' <'AZE ' 'CRT ' 'TRK ' 'dflt' > ) ]

StartChar: .notdef
Encoding: 65536 -1 0
Width: 494
Flags: HW
LayerCount: 2
Fore
SplineSet
50 -94 m 1,0,-1
 50 727 l 1,1,-1
 448 727 l 1,2,-1
 448 -94 l 1,3,-1
 50 -94 l 1,0,-1
104 57.5 m 128,-1,5
 101 53 101 53 101 49.5 c 128,-1,6
 101 46 101 46 105.5 40.5 c 128,-1,7
 110 35 110 35 118.5 27 c 128,-1,8
 127 19 127 19 130.5 15 c 128,-1,9
 134 11 134 11 137.5 6.5 c 128,-1,10
 141 2 141 2 142.5 0 c 128,-1,11
 144 -2 144 -2 147.5 -5 c 128,-1,12
 151 -8 151 -8 153 -10 c 128,-1,13
 155 -12 155 -12 158 -13 c 128,-1,14
 161 -14 161 -14 164 -14 c 128,-1,15
 167 -14 167 -14 184 3 c 128,-1,16
 201 20 201 20 208.5 26 c 128,-1,17
 216 32 216 32 219.5 35.5 c 0,18,19
 230 46 230 46 230 52.5 c 128,-1,20
 230 59 230 59 217 73 c 128,-1,21
 204 87 204 87 199.5 93 c 128,-1,22
 195 99 195 99 192.5 102 c 128,-1,23
 190 105 190 105 187 108.5 c 0,24,25
 182.285714286 114 182.285714286 114 176.142857143 114 c 128,-1,26
 170 114 170 114 165 110.5 c 128,-1,27
 160 107 160 107 152 98.5 c 0,28,29
 141.473684211 87.3157894737 141.473684211 87.3157894737 129.236842105 79.1578947368 c 128,-1,30
 117 71 117 71 112 66.5 c 128,-1,4
 107 62 107 62 104 57.5 c 128,-1,5
200 204 m 2,31,-1
 197 237 l 1,32,33
 197 273.5 197 273.5 222 311 c 0,34,35
 230 323 230 323 234.5 330.5 c 128,-1,36
 239 338 239 338 250.5 352.5 c 128,-1,37
 262 367 262 367 268.5 375 c 0,38,39
 288 399 288 399 301 415 c 128,-1,40
 314 431 314 431 323.5 442 c 128,-1,41
 333 453 333 453 339.5 462 c 128,-1,42
 346 471 346 471 354.5 485 c 0,43,44
 372 513.823529412 372 513.823529412 372 548 c 0,45,46
 372 600 372 600 333 633.5 c 128,-1,47
 294 667 294 667 251.5 667 c 128,-1,48
 209 667 209 667 177 644.5 c 128,-1,49
 145 622 145 622 145 608 c 0,50,51
 145 602 145 602 152 602 c 128,-1,52
 159 602 159 602 178.5 611.5 c 128,-1,53
 198 621 198 621 221.5 621 c 128,-1,54
 245 621 245 621 271 598.5 c 128,-1,55
 297 576 297 576 297 550 c 128,-1,56
 297 524 297 524 276.5 485.5 c 128,-1,57
 256 447 256 447 231.5 410.5 c 128,-1,58
 207 374 207 374 186.5 331 c 128,-1,59
 166 288 166 288 166 259 c 0,60,61
 166 194 166 194 190 194 c 0,62,63
 200 194 200 194 200 204 c 2,31,-1
EndSplineSet
EndChar

StartChar: exclam
Encoding: 33 33 4
Width: 249
GlyphClass: 2
Flags: HW
LayerCount: 2
Fore
SplineSet
72 40 m 128,-1,1
 68 46 68 46 68 50.5 c 128,-1,2
 68 55 68 55 78.5 67 c 128,-1,3
 89 79 89 79 95 83.5 c 128,-1,4
 101 88 101 88 111.5 98 c 0,5,6
 130.4 116 130.4 116 138.2 116 c 128,-1,7
 146 116 146 116 149.5 112.5 c 128,-1,8
 153 109 153 109 160.5 99 c 128,-1,9
 168 89 168 89 179.5 76 c 128,-1,10
 191 63 191 63 191 53.5 c 128,-1,11
 191 44 191 44 162.5 16.5 c 128,-1,12
 134 -11 134 -11 129 -11 c 0,13,14
 117 -11 117 -11 105.5 2.5 c 128,-1,15
 94 16 94 16 85 25 c 128,-1,0
 76 34 76 34 72 40 c 128,-1,1
133 211 m 0,16,17
 133 217 133 217 135 239 c 2,18,-1
 161 627 l 1,19,-1
 161 635 l 2,20,21
 161 642 161 642 161.5 645 c 128,-1,22
 162 648 162 648 163 654.5 c 128,-1,23
 164 661 164 661 166 664.5 c 128,-1,24
 168 668 168 668 171.5 673 c 128,-1,25
 175 678 175 678 180 680.5 c 0,26,27
 193 687 193 687 209 687 c 0,28,29
 245 687 245 687 245 654 c 0,30,31
 245 640 245 640 241 624 c 0,32,33
 221.103448276 544.413793103 221.103448276 544.413793103 206.051724138 437.706896552 c 128,-1,34
 191 331 191 331 167 214 c 0,35,36
 166 208 166 208 160 201 c 128,-1,37
 154 194 154 194 146 194 c 0,38,39
 133 194 133 194 133 211 c 0,16,17
EndSplineSet
Position2: "'cpsp' Capital Spacing in Latin lookup 0 subtable" dx=20 dy=0 dh=40 dv=0
EndChar

StartChar: numbersign
Encoding: 35 35 6
Width: 533
GlyphClass: 2
Flags: HW
LayerCount: 2
Fore
SplineSet
128 -53 m 1,0,-1
 151 114 l 2,1,2
 151 121 151 121 143 121 c 2,3,-1
 73 121 l 2,4,5
 59 121 59 121 59 139 c 2,6,-1
 59 142 l 2,7,8
 59 154 59 154 61 158.5 c 128,-1,9
 63 163 63 163 73 163 c 2,10,-1
 155 163 l 2,11,12
 158 163 158 163 158 165 c 2,13,-1
 177 300 l 2,14,15
 177 305 177 305 170 305 c 2,16,-1
 75 305 l 2,17,18
 66 305 66 305 62.5 308.5 c 128,-1,19
 59 312 59 312 59 329.5 c 128,-1,20
 59 347 59 347 75 347 c 2,21,-1
 177 347 l 2,22,23
 186 347 186 347 186 354 c 0,24,25
 200 454 200 454 205.5 497.5 c 128,-1,26
 211 541 211 541 214 545.5 c 128,-1,27
 217 550 217 550 235.5 550 c 128,-1,28
 254 550 254 550 254 538 c 1,29,-1
 228 352 l 2,30,31
 228 347 228 347 234 347 c 2,32,-1
 332 347 l 2,33,34
 340 347 340 347 341 354 c 0,35,36
 367 542 367 542 370 546 c 128,-1,37
 373 550 373 550 390.5 550 c 128,-1,38
 408 550 408 550 408 540 c 1,39,-1
 383 352 l 2,40,41
 383 347 383 347 388 347 c 2,42,-1
 457 347 l 2,43,44
 475 347 475 347 475 326 c 128,-1,45
 475 305 475 305 460 305 c 2,46,-1
 379 305 l 2,47,48
 376 305 376 305 374 299 c 1,49,50
 356 170 356 170 356 166.5 c 128,-1,51
 356 163 356 163 363 163 c 2,52,-1
 458 163 l 2,53,54
 468.888888889 163 468.888888889 163 471.944444444 157.5 c 128,-1,55
 475 152 475 152 475 143 c 0,56,57
 475 121 475 121 458 121 c 2,58,-1
 360 121 l 2,59,60
 351 121 351 121 349 111 c 0,61,62
 344 76 344 76 336 16.5 c 128,-1,63
 328 -43 328 -43 324 -54.5 c 128,-1,64
 320 -66 320 -66 302 -66 c 128,-1,65
 284 -66 284 -66 284 -53 c 1,66,-1
 307 115 l 2,67,68
 307 121 307 121 300 121 c 2,69,-1
 234 121 l 2,70,71
 199 121 199 121 196.5 118.5 c 128,-1,72
 194 116 194 116 193 113 c 0,73,74
 171 -53 171 -53 167.5 -59.5 c 128,-1,75
 164 -66 164 -66 146 -66 c 128,-1,76
 128 -66 128 -66 128 -53 c 1,0,-1
219 298 m 1,77,78
 201 169 201 169 201 166 c 128,-1,79
 201 163 201 163 209 163 c 2,80,-1
 304 163 l 2,81,82
 313 163 313 163 314 170 c 0,83,84
 317.931034483 204.068965517 317.931034483 204.068965517 322.965517241 235.534482759 c 128,-1,85
 328 267 328 267 329.5 277.5 c 0,86,87
 332 295 332 295 332 300 c 128,-1,88
 332 305 332 305 326 305 c 2,89,-1
 228 305 l 2,90,91
 221 305 221 305 219 298 c 1,77,78
EndSplineSet
EndChar

StartChar: dollar
Encoding: 36 36 7
Width: 488
GlyphClass: 2
Flags: HW
LayerCount: 2
Fore
SplineSet
20 91 m 0,0,1
 20 102 20 102 32 135 c 128,-1,2
 44 168 44 168 53.5 168 c 128,-1,3
 63 168 63 168 69 158 c 128,-1,4
 75 148 75 148 81 128 c 0,5,6
 98.4578313253 69.8072289157 98.4578313253 69.8072289157 130.728915663 43.4036144578 c 128,-1,7
 163 17 163 17 188 17 c 0,8,9
 195 17 195 17 197 20.5 c 128,-1,10
 199 24 199 24 203.5 59.5 c 128,-1,11
 208 95 208 95 217 164.5 c 128,-1,12
 226 234 226 234 231.5 273 c 128,-1,13
 237 312 237 312 237 318.5 c 128,-1,14
 237 325 237 325 220.5 335 c 128,-1,15
 204 345 204 345 181 357 c 128,-1,16
 158 369 158 369 135 385.5 c 128,-1,17
 112 402 112 402 95.5 432 c 128,-1,18
 79 462 79 462 79 500 c 0,19,20
 79 588 79 588 137 634 c 128,-1,21
 195 680 195 680 270 682 c 0,22,23
 283 682 283 682 285 700.5 c 128,-1,24
 287 719 287 719 289 737.5 c 128,-1,25
 291 756 291 756 305 756 c 0,26,27
 330 756 330 756 330 738 c 0,28,29
 330 729 330 729 324.5 712 c 128,-1,30
 319 695 319 695 319 688 c 128,-1,31
 319 681 319 681 324 679 c 0,32,33
 336.5 674 336.5 674 350 674 c 1,34,35
 390 662 390 662 417.5 644.5 c 0,36,37
 463 615.545454545 463 615.545454545 463 593.772727273 c 128,-1,38
 463 572 463 572 457 557 c 0,39,40
 447.8 534 447.8 534 436 534 c 0,41,42
 428.5 534 428.5 534 419.25 552.5 c 128,-1,43
 410 571 410 571 406 577 c 0,44,45
 392 600 392 600 364 622.5 c 128,-1,46
 336 645 336 645 320 645 c 0,47,48
 310 645 310 645 306 616 c 0,49,50
 294.121212121 510.787878788 294.121212121 510.787878788 287.060606061 464.893939394 c 128,-1,51
 280 419 280 419 280 407.5 c 128,-1,52
 280 396 280 396 299.5 386.5 c 128,-1,53
 319 377 319 377 346.5 365 c 128,-1,54
 374 353 374 353 401.5 334.5 c 128,-1,55
 429 316 429 316 448.5 278.5 c 128,-1,56
 468 241 468 241 468 189 c 0,57,58
 468 97 468 97 406.5 42 c 128,-1,59
 345 -13 345 -13 245 -13 c 0,60,61
 238 -13 238 -13 233 -16.5 c 128,-1,62
 228 -20 228 -20 227 -31 c 128,-1,63
 226 -42 226 -42 224 -62 c 128,-1,64
 222 -82 222 -82 220.5 -94 c 128,-1,65
 219 -106 219 -106 217.5 -118.5 c 128,-1,66
 216 -131 216 -131 214.5 -137.5 c 128,-1,67
 213 -144 213 -144 210.5 -150 c 0,68,69
 206.333333333 -160 206.333333333 -160 194.166666667 -160 c 0,70,71
 173 -160 173 -160 173 -144 c 128,-1,72
 173 -128 173 -128 183 -78.5 c 128,-1,73
 193 -29 193 -29 193 -28 c 0,74,75
 193 -17 193 -17 183 -17 c 1,76,77
 121 -7 121 -7 70.5 27 c 128,-1,78
 20 61 20 61 20 91 c 0,0,1
146.5 592.5 m 128,-1,80
 131 567 131 567 131 537 c 0,81,82
 131 479.666666667 131 479.666666667 174 451 c 0,83,84
 231 414 231 414 240.5 414 c 128,-1,85
 250 414 250 414 252 436 c 0,86,87
 277 631 277 631 277 635 c 0,88,89
 277 650 277 650 260.5 650 c 128,-1,90
 244 650 244 650 226.5 645.5 c 128,-1,91
 209 641 209 641 185.5 629.5 c 128,-1,79
 162 618 162 618 146.5 592.5 c 128,-1,80
234 28 m 0,92,93
 234 12 234 12 251.5 12 c 128,-1,94
 269 12 269 12 290 19.5 c 128,-1,95
 311 27 311 27 337.5 44 c 128,-1,96
 364 61 364 61 382.5 96 c 128,-1,97
 401 131 401 131 401 167.5 c 128,-1,98
 401 204 401 204 389.5 228 c 128,-1,99
 378 252 378 252 361.5 266.5 c 128,-1,100
 345 281 345 281 327.5 291.5 c 0,101,102
 295 311 295 311 285 311 c 0,103,104
 271 311 271 311 269 295 c 0,105,106
 263 258 263 258 248.5 147.5 c 128,-1,107
 234 37 234 37 234 28 c 0,92,93
EndSplineSet
Substitution2: "'lnum' Lining Figures in Latin lookup 11 subtable" dollar.lining
Substitution2: "'subs' Subscript in Latin lookup 10 subtable" dollar.lining.sub
Substitution2: "'sups' Superscript in Latin lookup 9 subtable" dollar.lining.sup
AlternateSubs2: "'aalt' Access All Alternates in Latin lookup 1 subtable" dollar.lining dollar.lining.sub dollar.lining.sup
AlternateSubs2: "'aalt' Access All Alternates lookup 0 subtable" dollar.lining dollar.lining.sub dollar.lining.sup
EndChar

StartChar: percent
Encoding: 37 37 8
Width: 771
GlyphClass: 2
Flags: HW
LayerCount: 2
Fore
SplineSet
361 494 m 128,-1,1
 360 494 360 494 361 486.5 c 128,-1,2
 362 479 362 479 362 448 c 0,3,4
 362 374.032258065 362 374.032258065 309.5 297.016129032 c 128,-1,5
 257 220 257 220 169 220 c 0,6,7
 134 220 134 220 96.5 252.5 c 128,-1,8
 59 285 59 285 59 344 c 0,9,10
 59 425 59 425 116.5 501 c 128,-1,11
 174 577 174 577 258 577 c 0,12,13
 290 577 290 577 314.5 559.5 c 128,-1,14
 339 542 339 542 361 525 c 128,-1,15
 383 508 383 508 405 508 c 128,-1,16
 427 508 427 508 450 516.5 c 128,-1,17
 473 525 473 525 491.5 535 c 128,-1,18
 510 545 510 545 533.5 563.5 c 0,19,20
 563.20754717 586.886792453 563.20754717 586.886792453 600 620 c 1,21,-1
 619 638 l 2,22,23
 627 646 627 646 636.5 646 c 128,-1,24
 646 646 646 646 646 637.5 c 128,-1,25
 646 629 646 629 638 616 c 0,26,27
 348 183 348 183 203 -47 c 0,28,29
 177 -87 177 -87 171.5 -89 c 128,-1,30
 166 -91 166 -91 158 -91 c 128,-1,31
 150 -91 150 -91 139.5 -83 c 128,-1,32
 129 -75 129 -75 129 -65 c 128,-1,33
 129 -55 129 -55 147 -29 c 128,-1,34
 165 -3 165 -3 169 3 c 2,35,-1
 334 240 l 2,36,37
 387 317 387 317 440.5 390 c 0,38,39
 536 520.308411215 536 520.308411215 536 524.154205607 c 128,-1,40
 536 528 536 528 533.5 528 c 128,-1,41
 531 528 531 528 512.5 517 c 0,42,43
 457 484 457 484 410 484 c 0,44,45
 392 484 392 484 377 489 c 128,-1,0
 362 494 362 494 361 494 c 128,-1,1
162.5 491.5 m 128,-1,47
 131 435 131 435 131 372 c 128,-1,48
 131 309 131 309 147 278 c 128,-1,49
 163 247 163 247 191 247 c 0,50,51
 239 247 239 247 268 313 c 128,-1,52
 297 379 297 379 297 456 c 0,53,54
 297 496 297 496 284 522 c 128,-1,55
 271 548 271 548 250 548 c 0,56,46
 194 548 194 548 162.5 491.5 c 128,-1,47
386 64 m 0,57,58
 386 149 386 149 441 221 c 128,-1,59
 496 293 496 293 584 293 c 0,60,61
 638 293 638 293 665 259 c 128,-1,62
 692 225 692 225 692 170 c 0,63,64
 692 83 692 83 637 2.5 c 128,-1,65
 582 -78 582 -78 507 -78 c 0,66,67
 448 -78 448 -78 417 -37.5 c 128,-1,68
 386 3 386 3 386 64 c 0,57,58
488.5 203.5 m 128,-1,70
 457 145 457 145 457 81.5 c 128,-1,71
 457 18 457 18 473 -14 c 128,-1,72
 489 -46 489 -46 517 -46 c 0,73,74
 562 -46 562 -46 594 22 c 128,-1,75
 626 90 626 90 626 165 c 0,76,77
 626 205 626 205 611.5 233.5 c 128,-1,78
 597 262 597 262 576 262 c 0,79,69
 520 262 520 262 488.5 203.5 c 128,-1,70
EndSplineSet
EndChar

StartChar: ampersand
Encoding: 38 38 9
Width: 834
GlyphClass: 2
Flags: HW
LayerCount: 2
Fore
SplineSet
39 219 m 0,0,1
 39 274 39 274 68.5 327.5 c 0,2,3
 110.139712108 403.016088061 110.139712108 403.016088061 167 435 c 0,4,5
 183 444 183 444 190 448.5 c 128,-1,6
 197 453 197 453 197 456.5 c 128,-1,7
 197 460 197 460 195.5 466.5 c 0,8,9
 190 490.333333333 190 490.333333333 190 530.666666667 c 128,-1,10
 190 571 190 571 211.5 612 c 128,-1,11
 233 653 233 653 266.5 676 c 0,12,13
 333.5 722 333.5 722 400 722 c 0,14,15
 429.8125 722 429.8125 722 456.40625 710.5 c 0,16,17
 507 688.621621622 507 688.621621622 507 638 c 0,18,19
 507 568 507 568 442 568 c 0,20,21
 430 568 430 568 430 575 c 0,22,23
 430 579 430 579 436.5 594.5 c 128,-1,24
 443 610 443 610 443 623 c 128,-1,25
 443 636 443 636 425.5 650 c 128,-1,26
 408 664 408 664 382 664 c 0,27,28
 305 664 305 664 264 609.5 c 128,-1,29
 223 555 223 555 223 494 c 0,30,31
 223 476 223 476 235 476 c 0,32,33
 240 476 240 476 264 481 c 128,-1,34
 288 486 288 486 307 486 c 0,35,36
 347 486 347 486 369 466 c 128,-1,37
 391 446 391 446 391 419 c 128,-1,38
 391 392 391 392 370 373 c 128,-1,39
 349 354 349 354 317.5 354 c 128,-1,40
 286 354 286 354 265 365 c 128,-1,41
 244 376 244 376 233.5 388.5 c 128,-1,42
 223 401 223 401 214.5 412 c 128,-1,43
 206 423 206 423 199.5 423 c 128,-1,44
 193 423 193 423 174.5 403.5 c 128,-1,45
 156 384 156 384 138.5 345.5 c 128,-1,46
 121 307 121 307 121 258 c 128,-1,47
 121 209 121 209 146.5 157 c 128,-1,48
 172 105 172 105 228 68 c 128,-1,49
 284 31 284 31 369 31 c 128,-1,50
 454 31 454 31 526.5 93 c 128,-1,51
 599 155 599 155 599 234 c 0,52,53
 599 276 599 276 575 304 c 128,-1,54
 551 332 551 332 512.5 332 c 128,-1,55
 474 332 474 332 449 310.5 c 128,-1,56
 424 289 424 289 424 257.5 c 128,-1,57
 424 226 424 226 438 212.5 c 128,-1,58
 452 199 452 199 466 199 c 128,-1,59
 480 199 480 199 490.5 210 c 128,-1,60
 501 221 501 221 507 221 c 128,-1,61
 513 221 513 221 513 210 c 128,-1,62
 513 199 513 199 496.5 186 c 128,-1,63
 480 173 480 173 456 173 c 0,64,65
 417 173 417 173 395 205 c 128,-1,66
 373 237 373 237 373 265 c 128,-1,67
 373 293 373 293 383 315 c 128,-1,68
 393 337 393 337 407 351.5 c 128,-1,69
 421 366 421 366 448.5 381.5 c 128,-1,70
 476 397 476 397 496.5 406 c 128,-1,71
 517 415 517 415 556 431 c 128,-1,72
 595 447 595 447 617 457 c 0,73,74
 696 492 696 492 735 530 c 128,-1,75
 774 568 774 568 774 620 c 0,76,77
 774 646 774 646 752.5 669 c 128,-1,78
 731 692 731 692 704 692 c 0,79,80
 641 692 641 692 641 640 c 0,81,82
 641 623 641 623 664.5 613 c 128,-1,83
 688 603 688 603 688 595 c 0,84,85
 688 554 688 554 641 554 c 0,86,87
 619 554 619 554 606.5 572 c 128,-1,88
 594 590 594 590 594 617 c 0,89,90
 594 660 594 660 630 689.5 c 128,-1,91
 666 719 666 719 708.5 719 c 128,-1,92
 751 719 751 719 783 685 c 128,-1,93
 815 651 815 651 815 605 c 128,-1,94
 815 559 815 559 792 519.5 c 128,-1,95
 769 480 769 480 736.5 456 c 128,-1,96
 704 432 704 432 671.5 414 c 128,-1,97
 639 396 639 396 616 385 c 128,-1,98
 593 374 593 374 593 370 c 128,-1,99
 593 366 593 366 602.5 359.5 c 128,-1,100
 612 353 612 353 623 344 c 128,-1,101
 634 335 634 335 643.5 314 c 128,-1,102
 653 293 653 293 653 264 c 0,103,104
 653 168 653 168 590 105.5 c 128,-1,105
 527 43 527 43 464.5 16.5 c 128,-1,106
 402 -10 402 -10 315 -10 c 0,107,108
 194 -10 194 -10 116.5 49.5 c 128,-1,109
 39 109 39 109 39 219 c 0,0,1
259 448.5 m 128,-1,111
 246 440 246 440 246 429 c 128,-1,112
 246 418 246 418 263 401.5 c 128,-1,113
 280 385 280 385 298 385 c 128,-1,114
 316 385 316 385 327.5 395 c 128,-1,115
 339 405 339 405 339 422 c 128,-1,116
 339 439 339 439 322 448 c 128,-1,117
 305 457 305 457 288.5 457 c 128,-1,110
 272 457 272 457 259 448.5 c 128,-1,111
EndSplineSet
Position2: "'cpsp' Capital Spacing in Latin lookup 0 subtable" dx=20 dy=0 dh=40 dv=0
EndChar

StartChar: parenleft
Encoding: 40 40 11
Width: 288
GlyphClass: 2
Flags: HW
LayerCount: 2
Fore
SplineSet
76.5 70.5 m 128,-1,1
 63 138 63 138 63 220 c 128,-1,2
 63 302 63 302 87.5 395 c 128,-1,3
 112 488 112 488 147.5 553.5 c 128,-1,4
 183 619 183 619 221.5 670 c 128,-1,5
 260 721 260 721 288 746.5 c 128,-1,6
 316 772 316 772 326 772 c 0,7,8
 343 772 343 772 343 755 c 0,9,10
 343 746 343 746 322.5 725.5 c 128,-1,11
 302 705 302 705 271 670.5 c 128,-1,12
 240 636 240 636 207.5 588 c 128,-1,13
 175 540 175 540 147 458 c 128,-1,14
 119 376 119 376 111.5 302.5 c 128,-1,15
 104 229 104 229 104 195 c 0,16,17
 104 107 104 107 125.5 30.5 c 128,-1,18
 147 -46 147 -46 172.5 -86.5 c 128,-1,19
 198 -127 198 -127 219.5 -157.5 c 128,-1,20
 241 -188 241 -188 241 -195 c 128,-1,21
 241 -202 241 -202 233.5 -208 c 128,-1,22
 226 -214 226 -214 218.5 -214 c 128,-1,23
 211 -214 211 -214 193 -194 c 128,-1,24
 175 -174 175 -174 152.5 -135 c 128,-1,25
 130 -96 130 -96 110 -46.5 c 128,-1,0
 90 3 90 3 76.5 70.5 c 128,-1,1
EndSplineSet
Substitution2: "'case' Case-Sensitive Forms in Latin lookup 13 subtable" parenleft.uppercase
Substitution2: "'subs' Subscript in Latin lookup 10 subtable" parenleft.sub
Substitution2: "'sups' Superscript in Latin lookup 9 subtable" parenleft.sup
AlternateSubs2: "'aalt' Access All Alternates in Latin lookup 1 subtable" parenleft.uppercase parenleft.sub parenleft.sup
AlternateSubs2: "'aalt' Access All Alternates lookup 0 subtable" parenleft.uppercase parenleft.sub parenleft.sup
EndChar

StartChar: parenright
Encoding: 41 41 12
Width: 288
GlyphClass: 2
Flags: HW
LayerCount: 2
Fore
SplineSet
-55 -197 m 0,0,1
 -55 -188 -55 -188 -34.5 -167.5 c 128,-1,2
 -14 -147 -14 -147 17 -112.5 c 128,-1,3
 48 -78 48 -78 80.5 -30 c 128,-1,4
 113 18 113 18 141 100 c 128,-1,5
 169 182 169 182 176.5 255.5 c 128,-1,6
 184 329 184 329 184 363 c 0,7,8
 184 451 184 451 162.5 527.5 c 128,-1,9
 141 604 141 604 115.5 645 c 128,-1,10
 90 686 90 686 68.5 716.5 c 128,-1,11
 47 747 47 747 47 754 c 128,-1,12
 47 761 47 761 54.5 766.5 c 128,-1,13
 62 772 62 772 69.5 772 c 128,-1,14
 77 772 77 772 95 752 c 128,-1,15
 113 732 113 732 135.5 693.5 c 128,-1,16
 158 655 158 655 178 605.5 c 0,17,18
 225 489.175 225 489.175 225 352 c 0,19,20
 225 257 225 257 200.5 164 c 128,-1,21
 176 71 176 71 140.5 5.5 c 128,-1,22
 105 -60 105 -60 66.5 -111.5 c 128,-1,23
 28 -163 28 -163 0 -188.5 c 128,-1,24
 -28 -214 -28 -214 -38 -214 c 0,25,26
 -55 -214 -55 -214 -55 -197 c 0,0,1
EndSplineSet
Substitution2: "'case' Case-Sensitive Forms in Latin lookup 13 subtable" parenright.uppercase
Substitution2: "'subs' Subscript in Latin lookup 10 subtable" parenright.sub
Substitution2: "'sups' Superscript in Latin lookup 9 subtable" parenright.sup
AlternateSubs2: "'aalt' Access All Alternates in Latin lookup 1 subtable" parenright.uppercase parenright.sub parenright.sup
AlternateSubs2: "'aalt' Access All Alternates lookup 0 subtable" parenright.uppercase parenright.sub parenright.sup
EndChar

StartChar: asterisk
Encoding: 42 42 13
Width: 431
GlyphClass: 2
Flags: HW
LayerCount: 2
Fore
SplineSet
184 306 m 2,0,-1
 187 378 l 2,1,2
 187 401 187 401 182.5 401 c 128,-1,3
 178 401 178 401 137.5 374.5 c 128,-1,4
 97 348 97 348 87.5 348 c 128,-1,5
 78 348 78 348 68.5 361 c 128,-1,6
 59 374 59 374 59 383 c 0,7,8
 59 396 59 396 113 420 c 128,-1,9
 167 444 167 444 167 447.5 c 128,-1,10
 167 451 167 451 113 476 c 128,-1,11
 59 501 59 501 59 513 c 0,12,13
 59 522 59 522 68.5 535 c 128,-1,14
 78 548 78 548 89 548 c 128,-1,15
 100 548 100 548 139 521.5 c 128,-1,16
 178 495 178 495 182.5 495 c 128,-1,17
 187 495 187 495 187 514 c 2,18,-1
 184 593 l 2,19,20
 184 606 184 606 189 610 c 128,-1,21
 194 614 194 614 214 614 c 128,-1,22
 234 614 234 614 240.5 608 c 128,-1,23
 247 602 247 602 247 578 c 1,24,-1
 243 513 l 1,25,26
 243 495 243 495 248 495 c 128,-1,27
 253 495 253 495 293.5 522 c 128,-1,28
 334 549 334 549 343 549 c 128,-1,29
 352 549 352 549 362.5 536.5 c 128,-1,30
 373 524 373 524 373 513 c 128,-1,31
 373 502 373 502 318.5 477 c 128,-1,32
 264 452 264 452 264 447.5 c 128,-1,33
 264 443 264 443 318.5 419 c 128,-1,34
 373 395 373 395 373 384 c 128,-1,35
 373 373 373 373 363 360.5 c 128,-1,36
 353 348 353 348 341.5 348 c 128,-1,37
 330 348 330 348 291 374.5 c 128,-1,38
 252 401 252 401 248 401 c 128,-1,39
 244 401 244 401 244 382 c 2,40,-1
 247 324 l 1,41,42
 247 295 247 295 241.5 288.5 c 128,-1,43
 236 282 236 282 210 282 c 128,-1,44
 184 282 184 282 184 306 c 2,0,-1
EndSplineSet
EndChar

StartChar: plus
Encoding: 43 43 14
Width: 508
GlyphClass: 2
Flags: HW
LayerCount: 2
Fore
SplineSet
24 193 m 128,-1,1
 21 198 21 198 21 209 c 128,-1,2
 21 220 21 220 22 223.5 c 0,3,4
 24.4285714286 232 24.4285714286 232 40 232 c 2,5,-1
 209 232 l 2,6,7
 231 232 231 232 231 251 c 2,8,-1
 231 427 l 2,9,10
 231 440.285714286 231 440.285714286 239.5 441.5 c 0,11,12
 243 442 243 442 252 442 c 128,-1,13
 261 442 261 442 265 441.5 c 0,14,15
 276 440.125 276 440.125 276 422 c 2,16,-1
 276 259 l 2,17,18
 276 232 276 232 293 232 c 2,19,-1
 470 232 l 2,20,21
 484.285714286 232 484.285714286 232 485.5 223.5 c 0,22,23
 486 220 486 220 486 208.5 c 128,-1,24
 486 197 486 197 483 192.5 c 128,-1,25
 480 188 480 188 465 188 c 2,26,-1
 293 188 l 2,27,28
 281 188 281 188 278.5 184.5 c 128,-1,29
 276 181 276 181 276 170 c 2,30,-1
 276 -5 l 2,31,32
 276 -16 276 -16 271 -19 c 128,-1,33
 266 -22 266 -22 253 -22 c 128,-1,34
 240 -22 240 -22 235.5 -19.5 c 128,-1,35
 231 -17 231 -17 231 -4 c 2,36,-1
 231 170 l 2,37,38
 231 183 231 183 226.5 185.5 c 128,-1,39
 222 188 222 188 208 188 c 2,40,-1
 39 188 l 2,41,0
 27 188 27 188 24 193 c 128,-1,1
EndSplineSet
EndChar

StartChar: comma
Encoding: 44 44 15
Width: 226
GlyphClass: 2
Flags: HW
LayerCount: 2
Fore
SplineSet
42 -153 m 0,0,1
 42 -143.105263158 42 -143.105263158 57 -132.052631579 c 0,2,3
 112 -91.5263157895 112 -91.5263157895 112 -26 c 0,4,5
 112 9.2962962963 112 9.2962962963 70.5 38.5 c 0,6,7
 57 48 57 48 57 54.5 c 128,-1,8
 57 61 57 61 79.5 89.5 c 128,-1,9
 102 118 102 118 114 118 c 0,10,11
 134 118 134 118 153 88 c 128,-1,12
 172 58 172 58 172 4 c 128,-1,13
 172 -50 172 -50 127.5 -108 c 128,-1,14
 83 -166 83 -166 57 -166 c 0,15,16
 42 -166 42 -166 42 -153 c 0,0,1
EndSplineSet
Substitution2: "'subs' Subscript in Latin lookup 10 subtable" comma.sub
Substitution2: "'sups' Superscript in Latin lookup 9 subtable" comma.sup
Substitution2: "'dnom' Denominators in Latin lookup 6 subtable" comma.denom
Substitution2: "'numr' Numerators in Latin lookup 5 subtable" comma.numer
Substitution2: "'dnom' Denominators in Latin lookup 4 subtable" comma.denom
Substitution2: "'numr' Numerators in Latin lookup 3 subtable" comma.numer
AlternateSubs2: "'aalt' Access All Alternates in Latin lookup 1 subtable" comma.sub comma.sup comma.denom comma.numer
AlternateSubs2: "'aalt' Access All Alternates lookup 0 subtable" comma.sub comma.sup comma.denom comma.numer
EndChar

StartChar: hyphen
Encoding: 45 45 16
Width: 282
GlyphClass: 2
Flags: HW
LayerCount: 2
Fore
SplineSet
39 185 m 0,0,1
 39 198 39 198 47.5 207.5 c 128,-1,2
 56 217 56 217 87.5 226.5 c 128,-1,3
 119 236 119 236 147 245.5 c 128,-1,4
 175 255 175 255 185.5 259 c 0,5,6
 209.125 268 209.125 268 221 268 c 0,7,8
 243 268 243 268 243 246 c 0,9,10
 243 223 243 223 238 218 c 128,-1,11
 233 213 233 213 225.5 209.5 c 128,-1,12
 218 206 218 206 212.5 204.5 c 0,13,14
 181.173913043 195.956521739 181.173913043 195.956521739 131.086956522 176.47826087 c 0,15,16
 68.1428571429 152 68.1428571429 152 56 152 c 0,17,18
 39 152 39 152 39 185 c 0,0,1
EndSplineSet
Substitution2: "'case' Case-Sensitive Forms in Latin lookup 13 subtable" hyphen.uppercase
AlternateSubs2: "'aalt' Access All Alternates in Latin lookup 1 subtable" hyphen.uppercase
AlternateSubs2: "'aalt' Access All Alternates lookup 0 subtable" hyphen.uppercase
EndChar

StartChar: period
Encoding: 46 46 17
Width: 222
GlyphClass: 2
Flags: HW
LayerCount: 2
Fore
SplineSet
81 84 m 128,-1,1
 113 113 113 113 122.5 113 c 128,-1,2
 132 113 132 113 152 83 c 0,3,4
 154 80 154 80 160.5 74 c 0,5,6
 173 62.4615384615 173 62.4615384615 173 51.2307692308 c 128,-1,7
 173 40 173 40 169.5 35 c 128,-1,8
 166 30 166 30 155 21 c 128,-1,9
 144 12 144 12 142 10 c 0,10,11
 117 -15 117 -15 108 -15 c 128,-1,12
 99 -15 99 -15 94 -11 c 128,-1,13
 89 -7 89 -7 83 2 c 128,-1,14
 77 11 77 11 73.5 14.5 c 0,15,16
 63.5 24.5 63.5 24.5 57.75 30.25 c 128,-1,17
 52 36 52 36 51 38 c 0,18,19
 49 42 49 42 49 48.5 c 128,-1,0
 49 55 49 55 81 84 c 128,-1,1
EndSplineSet
Substitution2: "'subs' Subscript in Latin lookup 10 subtable" period.sub
Substitution2: "'sups' Superscript in Latin lookup 9 subtable" period.sup
Substitution2: "'dnom' Denominators in Latin lookup 6 subtable" period.denom
Substitution2: "'numr' Numerators in Latin lookup 5 subtable" period.numer
Substitution2: "'dnom' Denominators in Latin lookup 4 subtable" period.denom
Substitution2: "'numr' Numerators in Latin lookup 3 subtable" period.numer
AlternateSubs2: "'aalt' Access All Alternates in Latin lookup 1 subtable" period.sub period.sup period.denom period.numer
AlternateSubs2: "'aalt' Access All Alternates lookup 0 subtable" period.sub period.sup period.denom period.numer
EndChar

StartChar: slash
Encoding: 47 47 18
Width: 416
GlyphClass: 2
Flags: HW
LayerCount: 2
Fore
SplineSet
20 -170 m 0,0,1
 20 -168 20 -168 39 -113 c 1,2,3
 344 710 344 710 347 719 c 0,4,5
 350 728 350 728 355.5 731.5 c 128,-1,6
 361 735 361 735 378.5 735 c 0,7,8
 396 735 396 735 396 723 c 0,9,10
 396 715 396 715 382 679 c 2,11,-1
 78 -152 l 2,12,13
 70 -174 70 -174 64.5 -178.5 c 128,-1,14
 59 -183 59 -183 39.5 -183 c 0,15,16
 20 -183 20 -183 20 -170 c 0,0,1
EndSplineSet
Substitution2: "'numr' Numerators in Latin lookup 3 subtable" fraction
AlternateSubs2: "'aalt' Access All Alternates in Latin lookup 1 subtable" fraction
AlternateSubs2: "'aalt' Access All Alternates lookup 0 subtable" fraction
EndChar

StartChar: zero
Encoding: 48 48 19
Width: 518
GlyphClass: 2
Flags: HW
LayerCount: 2
Fore
SplineSet
89 25.5 m 128,-1,1
 32 76 32 76 32 174 c 128,-1,2
 32 272 32 272 101 353 c 128,-1,3
 170 434 170 434 284 434 c 0,4,5
 368 434 368 434 427 377.5 c 128,-1,6
 486 321 486 321 486 232 c 0,7,8
 486 171 486 171 463.5 121 c 128,-1,9
 441 71 441 71 403.5 40 c 0,10,11
 324.870967742 -25 324.870967742 -25 235.435483871 -25 c 128,-1,0
 146 -25 146 -25 89 25.5 c 128,-1,1
91 170 m 0,12,13
 91 100 91 100 131.5 62 c 128,-1,14
 172 24 172 24 240 24 c 128,-1,15
 308 24 308 24 369 80 c 128,-1,16
 430 136 430 136 430 230 c 0,17,18
 430 303 430 303 387.5 343.5 c 128,-1,19
 345 384 345 384 276 384 c 128,-1,20
 207 384 207 384 149 327 c 128,-1,21
 91 270 91 270 91 170 c 0,12,13
EndSplineSet
Substitution2: "'lnum' Lining Figures in Latin lookup 11 subtable" zero.lining
Substitution2: "'subs' Subscript in Latin lookup 10 subtable" zero.lining.sub
Substitution2: "'sups' Superscript in Latin lookup 9 subtable" zero.lining.sup
Substitution2: "'dnom' Denominators in Latin lookup 4 subtable" zero.lining.denom
Substitution2: "'numr' Numerators in Latin lookup 3 subtable" zero.lining.numer
AlternateSubs2: "'aalt' Access All Alternates in Latin lookup 1 subtable" zero.lining zero.lining.sub zero.lining.sup zero.lining.denom zero.lining.numer
AlternateSubs2: "'aalt' Access All Alternates lookup 0 subtable" zero.lining zero.lining.sub zero.lining.sup zero.lining.denom zero.lining.numer
EndChar

StartChar: one
Encoding: 49 49 20
Width: 309
GlyphClass: 2
Flags: HW
LayerCount: 2
Fore
SplineSet
146 3 m 1,0,-1
 43 -4 l 1,1,2
 20 -4 20 -4 20 14 c 0,3,4
 20 26 20 26 39.5 26 c 128,-1,5
 59 26 59 26 70 33 c 128,-1,6
 81 40 81 40 87.5 49.5 c 128,-1,7
 94 59 94 59 99 76 c 128,-1,8
 104 93 104 93 105.5 103.5 c 128,-1,9
 107 114 107 114 109.5 133 c 128,-1,10
 112 152 112 152 122.5 219 c 128,-1,11
 133 286 133 286 133 344 c 0,12,13
 133 389 133 389 77 392 c 0,14,15
 67 392 67 392 54.5 398.5 c 128,-1,16
 42 405 42 405 42 418 c 128,-1,17
 42 431 42 431 57 431 c 0,18,19
 64 431 64 431 80 427 c 128,-1,20
 96 423 96 423 109 423 c 2,21,-1
 172 422 l 1,22,-1
 266 428 l 2,23,24
 277 428 277 428 283 423 c 128,-1,25
 289 418 289 418 289 413 c 0,26,27
 289 396 289 396 255 396 c 0,28,29
 217 396 217 396 206.5 349 c 128,-1,30
 196 302 196 302 179 114 c 1,31,-1
 175 81 l 1,32,33
 175 44 175 44 212 32 c 1,34,35
 217 32 217 32 236 29 c 0,36,37
 272 23.3157894737 272 23.3157894737 272 9.65789473684 c 128,-1,38
 272 -4 272 -4 253 -4 c 1,39,-1
 146 3 l 1,0,-1
EndSplineSet
Substitution2: "'lnum' Lining Figures in Latin lookup 11 subtable" one.lining
Substitution2: "'subs' Subscript in Latin lookup 10 subtable" one.lining.sub
Substitution2: "'sups' Superscript in Latin lookup 9 subtable" one.lining.sup
Substitution2: "'dnom' Denominators in Latin lookup 4 subtable" one.lining.denom
Substitution2: "'numr' Numerators in Latin lookup 3 subtable" one.lining.numer
AlternateSubs2: "'aalt' Access All Alternates in Latin lookup 1 subtable" one.lining one.lining.sub one.lining.sup one.lining.denom one.lining.numer
AlternateSubs2: "'aalt' Access All Alternates lookup 0 subtable" one.lining one.lining.sub one.lining.sup one.lining.denom one.lining.numer
EndChar

StartChar: two
Encoding: 50 50 21
Width: 450
GlyphClass: 2
Flags: HW
LayerCount: 2
Fore
SplineSet
202 0 m 1,0,-1
 43 -2 l 2,1,2
 20 -2 20 -2 20 11 c 0,3,4
 20 17 20 17 41.5 29 c 0,5,6
 142.792887029 85.5355648536 142.792887029 85.5355648536 194 128 c 0,7,8
 340 247 340 247 340 316 c 0,9,10
 340 357 340 357 303 378.5 c 128,-1,11
 266 400 266 400 235 400 c 0,12,13
 143 400 143 400 143 354 c 0,14,15
 143 343 143 343 150.5 323 c 128,-1,16
 158 303 158 303 158 297 c 0,17,18
 158 284 158 284 144 284 c 0,19,20
 76 284 76 284 76 319 c 0,21,22
 76 346 76 346 116 386 c 0,23,24
 136 406 136 406 174 419.5 c 128,-1,25
 212 433 212 433 268 433 c 128,-1,26
 324 433 324 433 372 406 c 128,-1,27
 420 379 420 379 420 325 c 0,28,29
 420 289 420 289 381 244 c 128,-1,30
 342 199 342 199 296 166 c 128,-1,31
 250 133 250 133 211 104 c 128,-1,32
 172 75 172 75 172 67.5 c 128,-1,33
 172 60 172 60 217 60 c 2,34,-1
 283 60 l 2,35,36
 344 60 344 60 373 89 c 0,37,38
 389 105 389 105 393 113 c 1,39,40
 403 125 403 125 409 125 c 0,41,42
 421 125 421 125 421 114 c 0,43,44
 421 111 421 111 417 105 c 0,45,46
 396.882352941 74.8235294118 396.882352941 74.8235294118 381.441176471 37.4117647059 c 128,-1,47
 366 0 366 0 350 0 c 2,48,-1
 202 0 l 1,0,-1
EndSplineSet
Substitution2: "'lnum' Lining Figures in Latin lookup 11 subtable" two.lining
Substitution2: "'subs' Subscript in Latin lookup 10 subtable" two.lining.sub
Substitution2: "'sups' Superscript in Latin lookup 9 subtable" two.lining.sup
Substitution2: "'dnom' Denominators in Latin lookup 4 subtable" two.lining.denom
Substitution2: "'numr' Numerators in Latin lookup 3 subtable" two.lining.numer
AlternateSubs2: "'aalt' Access All Alternates in Latin lookup 1 subtable" two.lining two.lining.sub two.lining.sup two.lining.denom two.lining.numer
AlternateSubs2: "'aalt' Access All Alternates lookup 0 subtable" two.lining two.lining.sub two.lining.sup two.lining.denom two.lining.numer
EndChar

StartChar: three
Encoding: 51 51 22
Width: 390
GlyphClass: 2
Flags: HW
LayerCount: 2
Fore
SplineSet
168 131 m 1,0,-1
 93 123 l 1,1,2
 81 123 81 123 81 135 c 0,3,4
 81 142 81 142 89 146.5 c 128,-1,5
 97 151 97 151 121 161 c 128,-1,6
 145 171 145 171 169 184 c 0,7,8
 283 248 283 248 283 315 c 0,9,10
 283 351 283 351 252 375 c 128,-1,11
 221 399 221 399 181.5 399 c 128,-1,12
 142 399 142 399 114.5 383.5 c 128,-1,13
 87 368 87 368 81 368 c 0,14,15
 67 368 67 368 67 383 c 128,-1,16
 67 398 67 398 118.5 417 c 128,-1,17
 170 436 170 436 209 436 c 128,-1,18
 248 436 248 436 276 429 c 128,-1,19
 304 422 304 422 327 400 c 128,-1,20
 350 378 350 378 350 351.5 c 128,-1,21
 350 325 350 325 343.5 307 c 128,-1,22
 337 289 337 289 329 277 c 128,-1,23
 321 265 321 265 306.5 251.5 c 128,-1,24
 292 238 292 238 283 231.5 c 0,25,26
 249.25 207.125 249.25 207.125 237 201 c 1,27,28
 230 195 230 195 223 190.5 c 128,-1,29
 216 186 216 186 213 184 c 128,-1,30
 210 182 210 182 207.5 180.5 c 0,31,32
 204 178.4 204 178.4 204 175.7 c 128,-1,33
 204 173 204 173 228.5 167.5 c 128,-1,34
 253 162 253 162 282 153 c 128,-1,35
 311 144 311 144 335.5 118 c 128,-1,36
 360 92 360 92 360 56 c 128,-1,37
 360 20 360 20 339 -19.5 c 128,-1,38
 318 -59 318 -59 281 -96.5 c 128,-1,39
 244 -134 244 -134 183 -159.5 c 128,-1,40
 122 -185 122 -185 65 -185 c 128,-1,41
 8 -185 8 -185 -6 -173.5 c 128,-1,42
 -20 -162 -20 -162 -20 -116 c 0,43,44
 -20 -94 -20 -94 0 -94 c 0,45,46
 3 -94 3 -94 17 -106.5 c 128,-1,47
 31 -119 31 -119 56 -131.5 c 128,-1,48
 81 -144 81 -144 109 -144 c 0,49,50
 181 -144 181 -144 236.5 -87.5 c 128,-1,51
 292 -31 292 -31 292 17.5 c 128,-1,52
 292 66 292 66 253 98.5 c 128,-1,53
 214 131 214 131 168 131 c 1,0,-1
EndSplineSet
Substitution2: "'lnum' Lining Figures in Latin lookup 11 subtable" three.lining
Substitution2: "'subs' Subscript in Latin lookup 10 subtable" three.lining.sub
Substitution2: "'sups' Superscript in Latin lookup 9 subtable" three.lining.sup
Substitution2: "'dnom' Denominators in Latin lookup 4 subtable" three.lining.denom
Substitution2: "'numr' Numerators in Latin lookup 3 subtable" three.lining.numer
AlternateSubs2: "'aalt' Access All Alternates in Latin lookup 1 subtable" three.lining three.lining.sub three.lining.sup three.lining.denom three.lining.numer
AlternateSubs2: "'aalt' Access All Alternates lookup 0 subtable" three.lining three.lining.sub three.lining.sup three.lining.denom three.lining.numer
EndChar

StartChar: four
Encoding: 52 52 23
Width: 496
GlyphClass: 2
Flags: HW
LayerCount: 2
Fore
SplineSet
261 -165 m 1,0,-1
 287 -14 l 1,1,2
 287 -1 287 -1 275.5 1.5 c 128,-1,3
 264 4 264 4 211.5 4 c 128,-1,4
 159 4 159 4 108.5 1 c 128,-1,5
 58 -2 58 -2 34 -2 c 128,-1,6
 10 -2 10 -2 10 14 c 0,7,8
 10 26.1666666667 10 26.1666666667 18.5 36.0833333333 c 128,-1,9
 27 46 27 46 32 51.5 c 128,-1,10
 37 57 37 57 46.5 66 c 128,-1,11
 56 75 56 75 62 81 c 2,12,-1
 344 373 l 2,13,14
 391 423 391 423 408 423 c 0,15,16
 421 423 421 423 421 409 c 128,-1,17
 421 395 421 395 417 381 c 0,18,19
 400.64 323.74 400.64 323.74 388 240 c 2,20,-1
 379 184 l 2,21,22
 376 163 376 163 371 134 c 0,23,24
 361 76 361 76 361 68 c 0,25,26
 361 52 361 52 387.5 52 c 128,-1,27
 414 52 414 52 429 56 c 128,-1,28
 444 60 444 60 447.5 64 c 0,29,30
 458 76 458 76 466 76 c 0,31,32
 477 76 477 76 477 64 c 0,33,34
 477 59 477 59 459 20 c 0,35,36
 449 0 449 0 428 0 c 2,37,-1
 357 3 l 2,38,39
 351 3 351 3 349 -2.5 c 128,-1,40
 347 -8 347 -8 345.5 -34 c 128,-1,41
 344 -60 344 -60 342.5 -77 c 128,-1,42
 341 -94 341 -94 339.5 -111.5 c 128,-1,43
 338 -129 338 -129 337.5 -136 c 128,-1,44
 337 -143 337 -143 335 -154.5 c 128,-1,45
 333 -166 333 -166 330 -170.5 c 128,-1,46
 327 -175 327 -175 322 -180.5 c 0,47,48
 314.272727273 -189 314.272727273 -189 295.636363636 -189 c 128,-1,49
 277 -189 277 -189 269 -181 c 128,-1,50
 261 -173 261 -173 261 -165 c 1,0,-1
170 53 m 2,51,-1
 250 54 l 1,52,-1
 277 54 l 2,53,54
 293.4 54 293.4 54 296.7 59.5 c 128,-1,55
 300 65 300 65 301.5 71.5 c 128,-1,56
 303 78 303 78 303.5 83 c 128,-1,57
 304 88 304 88 306 99 c 0,58,59
 335 258.5 335 258.5 335 285.25 c 128,-1,60
 335 312 335 312 330.5 312 c 128,-1,61
 326 312 326 312 288.5 275 c 128,-1,62
 251 238 251 238 177.5 156.5 c 128,-1,63
 104 75 104 75 104 67 c 128,-1,64
 104 59 104 59 117 56 c 128,-1,65
 130 53 130 53 170 53 c 2,51,-1
EndSplineSet
Substitution2: "'lnum' Lining Figures in Latin lookup 11 subtable" four.lining
Substitution2: "'subs' Subscript in Latin lookup 10 subtable" four.lining.sub
Substitution2: "'sups' Superscript in Latin lookup 9 subtable" four.lining.sup
Substitution2: "'dnom' Denominators in Latin lookup 4 subtable" four.lining.denom
Substitution2: "'numr' Numerators in Latin lookup 3 subtable" four.lining.numer
AlternateSubs2: "'aalt' Access All Alternates in Latin lookup 1 subtable" four.lining four.lining.sub four.lining.sup four.lining.denom four.lining.numer
AlternateSubs2: "'aalt' Access All Alternates lookup 0 subtable" four.lining four.lining.sub four.lining.sup four.lining.denom four.lining.numer
EndChar

StartChar: five
Encoding: 53 53 24
Width: 373
GlyphClass: 2
Flags: HW
LayerCount: 2
Fore
SplineSet
160 360 m 1,0,-1
 141 361 l 2,1,2
 123 361 123 361 120 342 c 1,3,4
 115.333333333 321 115.333333333 321 111.166666667 308.5 c 128,-1,5
 107 296 107 296 107 295 c 0,6,7
 107 284 107 284 128 279.5 c 128,-1,8
 149 275 149 275 177.5 272.5 c 128,-1,9
 206 270 206 270 243 253.5 c 128,-1,10
 280 237 280 237 306 207 c 0,11,12
 343 164 343 164 343 99 c 0,13,14
 343 -12 343 -12 253.5 -99.5 c 128,-1,15
 164 -187 164 -187 19 -187 c 0,16,17
 -3 -187 -3 -187 -14 -175 c 0,18,19
 -35 -151 -35 -151 -35 -121.5 c 128,-1,20
 -35 -92 -35 -92 -19 -92 c 0,21,22
 -9.84210526316 -92 -9.84210526316 -92 8.57894736842 -109.5 c 0,23,24
 43.8421052632 -143 43.8421052632 -143 104.421052632 -143 c 128,-1,25
 165 -143 165 -143 223.5 -86.5 c 128,-1,26
 282 -30 282 -30 282 59 c 0,27,28
 282 128 282 128 232 173.5 c 128,-1,29
 182 219 182 219 79 219 c 0,30,31
 57.5555555556 219 57.5555555556 219 53.2777777778 224.5 c 128,-1,32
 49 230 49 230 49 236 c 128,-1,33
 49 242 49 242 75 318 c 2,34,-1
 102 400 l 2,35,36
 105 409 105 409 107 412.5 c 128,-1,37
 109 416 109 416 117 421 c 128,-1,38
 125 426 125 426 133.5 426 c 128,-1,39
 142 426 142 426 168 423 c 128,-1,40
 194 420 194 420 233 420 c 0,41,42
 335 420 335 420 349 436 c 0,43,44
 350 437 350 437 353.5 442.5 c 128,-1,45
 357 448 357 448 360 451.5 c 0,46,47
 369 462 369 462 375 462 c 0,48,49
 384 462 384 462 384 454 c 0,50,51
 384 446.789473684 384 446.789473684 371.5 426.394736842 c 128,-1,52
 359 406 359 406 347 383 c 128,-1,53
 335 360 335 360 319 360 c 0,54,55
 239.5 360 239.5 360 160 360 c 1,0,-1
EndSplineSet
Substitution2: "'lnum' Lining Figures in Latin lookup 11 subtable" five.lining
Substitution2: "'subs' Subscript in Latin lookup 10 subtable" five.lining.sub
Substitution2: "'sups' Superscript in Latin lookup 9 subtable" five.lining.sup
Substitution2: "'dnom' Denominators in Latin lookup 4 subtable" five.lining.denom
Substitution2: "'numr' Numerators in Latin lookup 3 subtable" five.lining.numer
AlternateSubs2: "'aalt' Access All Alternates in Latin lookup 1 subtable" five.lining five.lining.sub five.lining.sup five.lining.denom five.lining.numer
AlternateSubs2: "'aalt' Access All Alternates lookup 0 subtable" five.lining five.lining.sub five.lining.sup five.lining.denom five.lining.numer
EndChar

StartChar: six
Encoding: 54 54 25
Width: 490
GlyphClass: 2
Flags: HW
LayerCount: 2
Fore
SplineSet
32 246 m 0,0,1
 32 350 32 350 97 456 c 128,-1,2
 162 562 162 562 253 627 c 128,-1,3
 344 692 344 692 421 692 c 0,4,5
 429 692 429 692 436.5 688 c 128,-1,6
 444 684 444 684 444 676.5 c 128,-1,7
 444 669 444 669 434.5 666 c 128,-1,8
 425 663 425 663 399 658 c 0,9,10
 299.443126685 638.854447439 299.443126685 638.854447439 201 521 c 0,11,12
 130 436 130 436 130 386 c 0,13,14
 130 381 130 381 133.5 381 c 128,-1,15
 137 381 137 381 153.5 394.5 c 128,-1,16
 170 408 170 408 200 421.5 c 128,-1,17
 230 435 230 435 267 435 c 0,18,19
 362 435 362 435 412.5 376 c 128,-1,20
 463 317 463 317 463 226.5 c 128,-1,21
 463 136 463 136 401.5 61.5 c 128,-1,22
 340 -13 340 -13 236 -13 c 0,23,24
 32 -13 32 -13 32 246 c 0,0,1
103 239 m 0,25,26
 103 138 103 138 150.5 78.5 c 128,-1,27
 198 19 198 19 259 19 c 128,-1,28
 320 19 320 19 354 72 c 128,-1,29
 388 125 388 125 388 202 c 128,-1,30
 388 279 388 279 347 339 c 128,-1,31
 306 399 306 399 237 399 c 128,-1,32
 168 399 168 399 135.5 353 c 128,-1,33
 103 307 103 307 103 239 c 0,25,26
EndSplineSet
Substitution2: "'lnum' Lining Figures in Latin lookup 11 subtable" six.lining
Substitution2: "'subs' Subscript in Latin lookup 10 subtable" six.lining.sub
Substitution2: "'sups' Superscript in Latin lookup 9 subtable" six.lining.sup
Substitution2: "'dnom' Denominators in Latin lookup 4 subtable" six.lining.denom
Substitution2: "'numr' Numerators in Latin lookup 3 subtable" six.lining.numer
AlternateSubs2: "'aalt' Access All Alternates in Latin lookup 1 subtable" six.lining six.lining.sub six.lining.sup six.lining.denom six.lining.numer
AlternateSubs2: "'aalt' Access All Alternates lookup 0 subtable" six.lining six.lining.sub six.lining.sup six.lining.denom six.lining.numer
EndChar

StartChar: seven
Encoding: 55 55 26
Width: 473
GlyphClass: 2
Flags: HW
LayerCount: 2
Fore
SplineSet
89 429 m 1,0,-1
 332 424 l 1,1,-1
 396 424 l 2,2,3
 410 424 410 424 423 431.5 c 128,-1,4
 436 439 436 439 443 439 c 0,5,6
 453 439 453 439 453 428 c 0,7,8
 453 418.75 453 418.75 445.5 409.375 c 128,-1,9
 438 400 438 400 430.5 390.5 c 128,-1,10
 423 381 423 381 419 376 c 2,11,-1
 335 260 l 1,12,-1
 146 -11 l 1,13,14
 96 -87 96 -87 86.5 -103.5 c 128,-1,15
 77 -120 77 -120 77 -135 c 2,16,-1
 77 -140 l 2,17,18
 77 -163 77 -163 52 -163 c 2,19,-1
 -1 -163 l 2,20,21
 -23 -163 -23 -163 -23 -152 c 0,22,23
 -23 -128 -23 -128 1.5 -98.5 c 128,-1,24
 26 -69 26 -69 96.5 22.5 c 128,-1,25
 167 114 167 114 266 230.5 c 128,-1,26
 365 347 365 347 365 355 c 0,27,28
 365 361 365 361 342 361 c 2,29,-1
 302 360 l 1,30,-1
 224 360 l 1,31,-1
 114 357 l 1,32,33
 76.5714285714 357 76.5714285714 357 70.2857142857 351.5 c 128,-1,34
 64 346 64 346 63 345.5 c 0,35,36
 61.6 344.8 61.6 344.8 59.3 338.4 c 128,-1,37
 57 332 57 332 55.5 328.5 c 128,-1,38
 54 325 54 325 53.5 323 c 128,-1,39
 53 321 53 321 51 319 c 0,40,41
 47 315 47 315 39 315 c 0,42,43
 20 315 20 315 20 332 c 0,44,45
 20 341 20 341 31 369.5 c 128,-1,46
 42 398 42 398 45 407.5 c 128,-1,47
 48 417 48 417 49.5 420 c 0,48,49
 54 429 54 429 73 429 c 2,50,-1
 89 429 l 1,0,-1
EndSplineSet
Substitution2: "'lnum' Lining Figures in Latin lookup 11 subtable" seven.lining
Substitution2: "'subs' Subscript in Latin lookup 10 subtable" seven.lining.sub
Substitution2: "'sups' Superscript in Latin lookup 9 subtable" seven.lining.sup
Substitution2: "'dnom' Denominators in Latin lookup 4 subtable" seven.lining.denom
Substitution2: "'numr' Numerators in Latin lookup 3 subtable" seven.lining.numer
AlternateSubs2: "'aalt' Access All Alternates in Latin lookup 1 subtable" seven.lining seven.lining.sub seven.lining.sup seven.lining.denom seven.lining.numer
AlternateSubs2: "'aalt' Access All Alternates lookup 0 subtable" seven.lining seven.lining.sub seven.lining.sup seven.lining.denom seven.lining.numer
EndChar

StartChar: eight
Encoding: 56 56 27
Width: 526
GlyphClass: 2
Flags: HW
LayerCount: 2
Fore
SplineSet
42 148 m 0,0,1
 42 191 42 191 59.5 227.5 c 128,-1,2
 77 264 77 264 102 285.5 c 128,-1,3
 127 307 127 307 152 321.5 c 128,-1,4
 177 336 177 336 194.5 343 c 128,-1,5
 212 350 212 350 212 351 c 128,-1,6
 212 352 212 352 201 360 c 128,-1,7
 190 368 190 368 174 381.5 c 128,-1,8
 158 395 158 395 141.5 413 c 0,9,10
 103 455 103 455 103 514.5 c 128,-1,11
 103 574 103 574 157 631 c 128,-1,12
 211 688 211 688 297 688 c 128,-1,13
 383 688 383 688 438 650 c 128,-1,14
 493 612 493 612 493 539 c 0,15,16
 493 503 493 503 479 474 c 128,-1,17
 465 445 465 445 445 429.5 c 128,-1,18
 425 414 425 414 404.5 403.5 c 128,-1,19
 384 393 384 393 370 387.5 c 128,-1,20
 356 382 356 382 356 380 c 128,-1,21
 356 378 356 378 370 370.5 c 128,-1,22
 384 363 384 363 404.5 349 c 128,-1,23
 425 335 425 335 445.5 315 c 128,-1,24
 466 295 466 295 480 263.5 c 128,-1,25
 494 232 494 232 494 195 c 0,26,27
 494 98 494 98 421.5 36.5 c 128,-1,28
 349 -25 349 -25 251 -25 c 128,-1,29
 153 -25 153 -25 97.5 23 c 128,-1,30
 42 71 42 71 42 148 c 0,0,1
143 271 m 0,31,32
 101 208 101 208 101 152.5 c 128,-1,33
 101 97 101 97 138 51 c 128,-1,34
 175 5 175 5 239.5 5 c 128,-1,35
 304 5 304 5 357 41 c 0,36,37
 426 88 426 88 426 178 c 0,38,39
 426 254 426 254 339 303 c 0,40,41
 325 311 325 311 286 325.5 c 128,-1,42
 247 340 247 340 239.5 340 c 128,-1,43
 232 340 232 340 196 318.5 c 128,-1,44
 160 297 160 297 143 271 c 0,31,32
153 533 m 0,45,46
 153 499 153 499 178 470 c 128,-1,47
 203 441 203 441 235.5 425.5 c 0,48,49
 303.64516129 393 303.64516129 393 328.822580645 393 c 128,-1,50
 354 393 354 393 397 435 c 128,-1,51
 440 477 440 477 440 528.5 c 128,-1,52
 440 580 440 580 403 619.5 c 128,-1,53
 366 659 366 659 302.5 659 c 128,-1,54
 239 659 239 659 196 626 c 128,-1,55
 153 593 153 593 153 533 c 0,45,46
EndSplineSet
Substitution2: "'lnum' Lining Figures in Latin lookup 11 subtable" eight.lining
Substitution2: "'subs' Subscript in Latin lookup 10 subtable" eight.lining.sub
Substitution2: "'sups' Superscript in Latin lookup 9 subtable" eight.lining.sup
Substitution2: "'dnom' Denominators in Latin lookup 4 subtable" eight.lining.denom
Substitution2: "'numr' Numerators in Latin lookup 3 subtable" eight.lining.numer
AlternateSubs2: "'aalt' Access All Alternates in Latin lookup 1 subtable" eight.lining eight.lining.sub eight.lining.sup eight.lining.denom eight.lining.numer
AlternateSubs2: "'aalt' Access All Alternates lookup 0 subtable" eight.lining eight.lining.sub eight.lining.sup eight.lining.denom eight.lining.numer
EndChar

StartChar: nine
Encoding: 57 57 28
Width: 502
GlyphClass: 2
Flags: HW
LayerCount: 2
Fore
SplineSet
32 184 m 0,0,1
 32 238 32 238 57.5 294 c 128,-1,2
 83 350 83 350 138 392 c 128,-1,3
 193 434 193 434 271.5 434 c 128,-1,4
 350 434 350 434 410.5 377 c 128,-1,5
 471 320 471 320 471 201 c 128,-1,6
 471 82 471 82 393 -31 c 0,7,8
 329 -124 329 -124 219 -177 c 0,9,10
 159 -205 159 -205 85 -205 c 0,11,12
 64 -205 64 -205 58.5 -200.5 c 128,-1,13
 53 -196 53 -196 53 -188 c 0,14,15
 53 -172 53 -172 73 -172 c 0,16,17
 131 -172 131 -172 195.5 -134.5 c 128,-1,18
 260 -97 260 -97 297.5 -56.5 c 128,-1,19
 335 -16 335 -16 335 1 c 0,20,21
 335 5 335 5 331 5 c 128,-1,22
 327 5 327 5 294.5 -7 c 128,-1,23
 262 -19 262 -19 230 -19 c 0,24,25
 148 -19 148 -19 90 30.5 c 128,-1,26
 32 80 32 80 32 184 c 0,0,1
103 216 m 128,-1,28
 103 142 103 142 145 81.5 c 128,-1,29
 187 21 187 21 266 21 c 0,30,31
 341.79245283 21 341.79245283 21 370 78.5 c 0,32,33
 394 127.423076923 394 127.423076923 394 190 c 0,34,35
 394 275 394 275 347.5 337.5 c 128,-1,36
 301 400 301 400 242.5 400 c 128,-1,37
 184 400 184 400 143.5 345 c 128,-1,27
 103 290 103 290 103 216 c 128,-1,28
EndSplineSet
Substitution2: "'lnum' Lining Figures in Latin lookup 11 subtable" nine.lining
Substitution2: "'subs' Subscript in Latin lookup 10 subtable" nine.lining.sub
Substitution2: "'sups' Superscript in Latin lookup 9 subtable" nine.lining.sup
Substitution2: "'dnom' Denominators in Latin lookup 4 subtable" nine.lining.denom
Substitution2: "'numr' Numerators in Latin lookup 3 subtable" nine.lining.numer
AlternateSubs2: "'aalt' Access All Alternates in Latin lookup 1 subtable" nine.lining nine.lining.sub nine.lining.sup nine.lining.denom nine.lining.numer
AlternateSubs2: "'aalt' Access All Alternates lookup 0 subtable" nine.lining nine.lining.sub nine.lining.sup nine.lining.denom nine.lining.numer
EndChar

StartChar: colon
Encoding: 58 58 29
Width: 298
GlyphClass: 2
Flags: HW
LayerCount: 2
Fore
SplineSet
75 40 m 128,-1,1
 70 46 70 46 70 50.5 c 128,-1,2
 70 55 70 55 81 67 c 128,-1,3
 92 79 92 79 98.5 83.5 c 128,-1,4
 105 88 105 88 115.5 98 c 0,5,6
 134.4 116 134.4 116 142.2 116 c 128,-1,7
 150 116 150 116 153.5 112.5 c 128,-1,8
 157 109 157 109 164.5 99 c 128,-1,9
 172 89 172 89 183.5 76 c 128,-1,10
 195 63 195 63 195 53.5 c 128,-1,11
 195 44 195 44 165 16 c 0,12,13
 162 13 162 13 153.5 4 c 0,14,15
 136.5 -14 136.5 -14 133 -14 c 0,16,17
 123 -14 123 -14 110 1.5 c 128,-1,18
 97 17 97 17 88.5 25.5 c 128,-1,0
 80 34 80 34 75 40 c 128,-1,1
136.5 326.5 m 128,-1,20
 131 334 131 334 117.5 347.5 c 128,-1,21
 104 361 104 361 104 368.5 c 128,-1,22
 104 376 104 376 134 402.5 c 128,-1,23
 164 429 164 429 171.5 429 c 128,-1,24
 179 429 179 429 201 403.5 c 128,-1,25
 223 378 223 378 223 374 c 0,26,27
 223 361 223 361 192.5 335.5 c 128,-1,28
 162 310 162 310 156.5 310 c 128,-1,29
 151 310 151 310 146.5 314.5 c 128,-1,19
 142 319 142 319 136.5 326.5 c 128,-1,20
EndSplineSet
EndChar

StartChar: semicolon
Encoding: 59 59 30
Width: 298
GlyphClass: 2
Flags: HW
LayerCount: 2
Fore
SplineSet
66 -153 m 0,0,1
 66 -144.166666667 66 -144.166666667 80.5 -132.083333333 c 128,-1,2
 95 -120 95 -120 98 -117 c 0,3,4
 136 -75 136 -75 136 -26 c 0,5,6
 136 9.2962962963 136 9.2962962963 94.5 38.5 c 0,7,8
 81 48 81 48 81 54.5 c 128,-1,9
 81 61 81 61 103.5 89.5 c 128,-1,10
 126 118 126 118 141.5 118 c 128,-1,11
 157 118 157 118 176 88 c 128,-1,12
 195 58 195 58 195 4 c 128,-1,13
 195 -50 195 -50 150.5 -108 c 128,-1,14
 106 -166 106 -166 80 -166 c 0,15,16
 66 -166 66 -166 66 -153 c 0,0,1
100 368 m 0,17,18
 100 372 100 372 132 401.5 c 128,-1,19
 164 431 164 431 167 431 c 0,20,21
 174 431 174 431 197 402 c 128,-1,22
 220 373 220 373 220 369 c 0,23,24
 220 357 220 357 190 330.5 c 128,-1,25
 160 304 160 304 154.5 304 c 128,-1,26
 149 304 149 304 144 309.5 c 128,-1,27
 139 315 139 315 133 323 c 128,-1,28
 127 331 127 331 124 334 c 0,29,30
 100 358 100 358 100 368 c 0,17,18
EndSplineSet
EndChar

StartChar: less
Encoding: 60 60 31
Width: 508
GlyphClass: 2
Flags: HW
LayerCount: 2
Fore
SplineSet
33 196 m 128,-1,1
 31 200 31 200 31 208.5 c 128,-1,2
 31 217 31 217 31.5 219.5 c 0,3,4
 32.65625 225.28125 32.65625 225.28125 46 231 c 0,5,6
 384.709677419 353.580645161 384.709677419 353.580645161 420.35483871 367.290322581 c 128,-1,7
 456 381 456 381 458 381 c 0,8,9
 477 381 477 381 477 356 c 0,10,11
 477 344 477 344 461 340 c 1,12,-1
 156 229 l 2,13,14
 114 214 114 214 114 208 c 0,15,16
 114 205 114 205 156 190 c 2,17,-1
 466 78 l 2,18,19
 477 74 477 74 477 65.5 c 128,-1,20
 477 57 477 57 471.5 49 c 128,-1,21
 466 41 466 41 454 41 c 0,22,23
 450 41 450 41 45 188 c 0,24,0
 35 192 35 192 33 196 c 128,-1,1
EndSplineSet
EndChar

StartChar: greater
Encoding: 62 62 33
Width: 508
GlyphClass: 2
Flags: HW
LayerCount: 2
Fore
SplineSet
36.5 49 m 128,-1,1
 31 57 31 57 31 65.5 c 128,-1,2
 31 74 31 74 42 78 c 2,3,-1
 352 190 l 2,4,5
 394 205 394 205 394 208 c 0,6,7
 394 214 394 214 352 229 c 2,8,-1
 46 340 l 1,9,10
 31 344 31 344 31 356 c 0,11,12
 31 381 31 381 49 381 c 0,13,14
 52 381 52 381 151.5 344 c 128,-1,15
 251 307 251 307 461 231 c 0,16,17
 477 225 477 225 477 212.5 c 128,-1,18
 477 200 477 200 474.5 196 c 128,-1,19
 472 192 472 192 462 188 c 0,20,21
 57 41 57 41 54 41 c 0,22,0
 42 41 42 41 36.5 49 c 128,-1,1
EndSplineSet
EndChar

StartChar: question
Encoding: 63 63 34
Width: 413
GlyphClass: 2
Flags: HW
LayerCount: 2
Fore
SplineSet
105.5 40.5 m 128,-1,1
 101 46 101 46 101 49.5 c 128,-1,2
 101 53 101 53 104 57.5 c 128,-1,3
 107 62 107 62 112 66.5 c 2,4,-1
 136 84 l 2,5,6
 144 90 144 90 152 98.5 c 0,7,8
 166.588235294 114 166.588235294 114 172.794117647 114 c 128,-1,9
 179 114 179 114 181.5 113 c 128,-1,10
 184 112 184 112 187 108.5 c 128,-1,11
 190 105 190 105 192.5 102 c 128,-1,12
 195 99 195 99 199.5 93 c 128,-1,13
 204 87 204 87 217 73 c 128,-1,14
 230 59 230 59 230 53 c 128,-1,15
 230 47 230 47 226 42.5 c 128,-1,16
 222 38 222 38 211 28.5 c 128,-1,17
 200 19 200 19 183.5 2.5 c 128,-1,18
 167 -14 167 -14 164 -14 c 128,-1,19
 161 -14 161 -14 157.5 -12.5 c 128,-1,20
 154 -11 154 -11 150.5 -8 c 128,-1,21
 147 -5 147 -5 145 -2.5 c 0,22,23
 130.238095238 15.9523809524 130.238095238 15.9523809524 120.119047619 25.4761904762 c 128,-1,0
 110 35 110 35 105.5 40.5 c 128,-1,1
197 237 m 1,24,-1
 200 204 l 2,25,26
 200 194 200 194 190 194 c 0,27,28
 166 194 166 194 166 259 c 0,29,30
 166 295 166 295 198.5 353 c 128,-1,31
 231 411 231 411 264 465 c 128,-1,32
 297 519 297 519 297 547.5 c 128,-1,33
 297 576 297 576 271 598.5 c 128,-1,34
 245 621 245 621 221.5 621 c 128,-1,35
 198 621 198 621 178.5 611.5 c 128,-1,36
 159 602 159 602 152 602 c 128,-1,37
 145 602 145 602 145 608 c 0,38,39
 145 622 145 622 177 644.5 c 128,-1,40
 209 667 209 667 251.5 667 c 128,-1,41
 294 667 294 667 333 633.5 c 128,-1,42
 372 600 372 600 372 548 c 0,43,44
 372 513.823529412 372 513.823529412 359 492.411764706 c 128,-1,45
 346 471 346 471 339.5 462 c 0,46,47
 325.2 442.2 325.2 442.2 312 429 c 1,48,49
 288 399 288 399 275 383 c 128,-1,50
 262 367 262 367 250.5 352.5 c 128,-1,51
 239 338 239 338 234.5 330.5 c 128,-1,52
 230 323 230 323 222 311 c 128,-1,53
 214 299 214 299 210.5 291 c 128,-1,54
 207 283 207 283 203.5 273.5 c 0,55,56
 197 255.857142857 197 255.857142857 197 237 c 1,24,-1
EndSplineSet
Position2: "'cpsp' Capital Spacing in Latin lookup 0 subtable" dx=20 dy=0 dh=40 dv=0
EndChar

StartChar: at
Encoding: 64 64 35
Width: 821
GlyphClass: 2
Flags: HW
LayerCount: 2
Fore
SplineSet
44 286 m 0,0,1
 44 382 44 382 76.5 458 c 128,-1,2
 109 534 109 534 156.5 577.5 c 128,-1,3
 204 621 204 621 264 649.5 c 0,4,5
 364 697 364 697 463 697 c 0,6,7
 602 697 602 697 689.5 608.5 c 128,-1,8
 777 520 777 520 777 392 c 0,9,10
 777 283 777 283 708.5 206 c 128,-1,11
 640 129 640 129 549 129 c 0,12,13
 517 129 517 129 498 141.5 c 128,-1,14
 479 154 479 154 475 169 c 128,-1,15
 471 184 471 184 469 196.5 c 128,-1,16
 467 209 467 209 465 209 c 128,-1,17
 463 209 463 209 449.5 193.5 c 128,-1,18
 436 178 436 178 418 160 c 128,-1,19
 400 142 400 142 370.5 126.5 c 128,-1,20
 341 111 341 111 302 111 c 128,-1,21
 263 111 263 111 240 137.5 c 128,-1,22
 217 164 217 164 217 214.5 c 128,-1,23
 217 265 217 265 248.5 330 c 128,-1,24
 280 395 280 395 335 441.5 c 128,-1,25
 390 488 390 488 448 488 c 0,26,27
 467 488 467 488 492.5 483.5 c 128,-1,28
 518 479 518 479 520 479 c 0,29,30
 527 479 527 479 539 499 c 128,-1,31
 551 519 551 519 562 519 c 0,32,33
 570 519 570 519 570 507.5 c 128,-1,34
 570 496 570 496 558 447.5 c 0,35,36
 521 297.958333333 521 297.958333333 521 246 c 2,37,-1
 521 233 l 2,38,39
 521 174 521 174 562 174 c 0,40,41
 638 174 638 174 687 231.5 c 128,-1,42
 736 289 736 289 736 404.5 c 128,-1,43
 736 520 736 520 658 589.5 c 128,-1,44
 580 659 580 659 464 659 c 0,45,46
 313 659 313 659 208.5 558.5 c 128,-1,47
 104 458 104 458 104 297 c 0,48,49
 104 155 104 155 192.5 64 c 128,-1,50
 281 -27 281 -27 423 -27 c 0,51,52
 486 -27 486 -27 537 -10.5 c 128,-1,53
 588 6 588 6 614 22 c 128,-1,54
 640 38 640 38 641 38 c 0,55,56
 652 38 652 38 652 26 c 0,57,58
 652 11.5 652 11.5 608 -13.5 c 0,59,60
 519.12 -64 519.12 -64 405 -64 c 0,61,62
 245 -64 245 -64 144.5 29 c 128,-1,63
 44 122 44 122 44 286 c 0,0,1
284 227 m 0,64,65
 284 197 284 197 301.5 182 c 128,-1,66
 319 167 319 167 346.5 167 c 128,-1,67
 374 167 374 167 401 184 c 128,-1,68
 428 201 428 201 439 217.5 c 128,-1,69
 450 234 450 234 476 333 c 128,-1,70
 502 432 502 432 502 437 c 128,-1,71
 502 442 502 442 480 449 c 128,-1,72
 458 456 458 456 440 456 c 0,73,74
 391 456 391 456 337.5 391.5 c 128,-1,75
 284 327 284 327 284 227 c 0,64,65
EndSplineSet
EndChar

StartChar: A
Encoding: 65 65 36
Width: 771
GlyphClass: 2
Flags: HW
LayerCount: 2
Fore
SplineSet
115 0 m 1,0,-1
 40 -2 l 2,1,2
 20 -2 20 -2 20 9 c 0,3,4
 20 22 20 22 45 30 c 1,5,6
 75.1666666667 42.0666666667 75.1666666667 42.0666666667 89.5 65 c 0,7,8
 113.75 103.8 113.75 103.8 129.875 133.9 c 128,-1,9
 146 164 146 164 164 196 c 128,-1,10
 182 228 182 228 210 279.5 c 128,-1,11
 238 331 238 331 269.5 387.5 c 0,12,13
 448.050847458 707.757869249 448.050847458 707.757869249 454.025423729 712.878934625 c 128,-1,14
 460 718 460 718 468 718 c 128,-1,15
 476 718 476 718 479.5 711 c 128,-1,16
 483 704 483 704 491 676 c 128,-1,17
 499 648 499 648 502 637 c 2,18,-1
 511 604 l 2,19,20
 528.903225806 538.35483871 528.903225806 538.35483871 597.451612903 328.677419355 c 128,-1,21
 666 119 666 119 677.5 88.5 c 128,-1,22
 689 58 689 58 698 47.5 c 128,-1,23
 707 37 707 37 736 28 c 0,24,25
 752 23 752 23 752 8 c 0,26,27
 752 -2 752 -2 721 -2 c 1,28,-1
 656 1 l 1,29,-1
 563 -4 l 1,30,31
 536 -4 536 -4 536 6 c 128,-1,32
 536 16 536 16 546.5 22 c 128,-1,33
 557 28 557 28 569 30 c 128,-1,34
 581 32 581 32 591.5 41 c 128,-1,35
 602 50 602 50 602 66 c 128,-1,36
 602 82 602 82 594 113.5 c 128,-1,37
 586 145 586 145 575 181 c 128,-1,38
 564 217 564 217 560 234 c 0,39,40
 554.352941176 258 554.352941176 258 524 258 c 2,41,-1
 403 257 l 2,42,43
 327 257 327 257 302 258.5 c 128,-1,44
 277 260 277 260 269 260 c 0,45,46
 242 260 242 260 234 245 c 0,47,48
 177.529411765 146.176470588 177.529411765 146.176470588 163.264705882 109.088235294 c 128,-1,49
 149 72 149 72 149 69 c 0,50,51
 149 44 149 44 166 35.5 c 128,-1,52
 183 27 183 27 200 24.5 c 128,-1,53
 217 22 217 22 217 12 c 0,54,55
 217 -2 217 -2 208.5 -2 c 2,56,-1
 202 -2 l 1,57,-1
 115 0 l 1,0,-1
321 304 m 1,58,-1
 512 305 l 2,59,60
 526 305 526 305 527.5 312.5 c 0,61,62
 528 315 528 315 528 323.5 c 128,-1,63
 528 332 528 332 484.5 464 c 128,-1,64
 441 596 441 596 432 596 c 0,65,66
 427 596 427 596 349 456 c 128,-1,67
 271 316 271 316 271 310 c 128,-1,68
 271 304 271 304 289.5 304 c 2,69,-1
 321 304 l 1,58,-1
EndSplineSet
Position2: "'cpsp' Capital Spacing in Latin lookup 0 subtable" dx=20 dy=0 dh=40 dv=0
EndChar

StartChar: B
Encoding: 66 66 37
Width: 612
GlyphClass: 2
Flags: HW
LayerCount: 2
Fore
SplineSet
147 0 m 1,0,-1
 41 -6 l 1,1,2
 20 -6 20 -6 20 9.5 c 128,-1,3
 20 25 20 25 34 25 c 0,4,5
 58.125 25 58.125 25 67.0625 36 c 128,-1,6
 76 47 76 47 80 51.5 c 128,-1,7
 84 56 84 56 87 69.5 c 128,-1,8
 90 83 90 83 91 87 c 128,-1,9
 92 91 92 91 94 106 c 2,10,-1
 96 122 l 1,11,12
 108 200 108 200 129 401.5 c 128,-1,13
 150 603 150 603 150 627 c 128,-1,14
 150 651 150 651 125 669 c 0,15,16
 111.72 678.96 111.72 678.96 93.36 679.98 c 128,-1,17
 75 681 75 681 68.5 684.5 c 128,-1,18
 62 688 62 688 62 694.5 c 128,-1,19
 62 701 62 701 66.5 704.5 c 128,-1,20
 71 708 71 708 75 708 c 2,21,-1
 143 704 l 1,22,-1
 362 706 l 2,23,24
 451 706 451 706 508 667 c 128,-1,25
 565 628 565 628 565 547 c 0,26,27
 565 514 565 514 550.5 484 c 128,-1,28
 536 454 536 454 515 434.5 c 128,-1,29
 494 415 494 415 473.5 401 c 128,-1,30
 453 387 453 387 438.5 379 c 128,-1,31
 424 371 424 371 424 369.5 c 128,-1,32
 424 368 424 368 439 363.5 c 128,-1,33
 454 359 454 359 475 350 c 128,-1,34
 496 341 496 341 517 325.5 c 128,-1,35
 538 310 538 310 553 280 c 128,-1,36
 568 250 568 250 568 213 c 128,-1,37
 568 176 568 176 552.5 139 c 128,-1,38
 537 102 537 102 499.5 65.5 c 128,-1,39
 462 29 462 29 412 13 c 128,-1,40
 362 -3 362 -3 282 -3 c 1,41,-1
 147 0 l 1,0,-1
164 75 m 0,42,43
 164 51 164 51 189 39.5 c 128,-1,44
 214 28 214 28 286 28 c 0,45,46
 384 28 384 28 433.5 83 c 128,-1,47
 483 138 483 138 483 198 c 128,-1,48
 483 258 483 258 442.5 303.5 c 128,-1,49
 402 349 402 349 325 355 c 128,-1,50
 248 361 248 361 236 361 c 2,51,-1
 207 361 l 2,52,53
 198 361 198 361 190 291.5 c 128,-1,54
 182 222 182 222 179 201 c 2,55,-1
 171 134 l 2,56,57
 170 123 170 123 168 108.5 c 0,58,59
 164 79.5 164 79.5 164 75 c 0,42,43
208 404 m 0,60,61
 208 391 208 391 229 388.5 c 128,-1,62
 250 386 250 386 342 386 c 0,63,64
 381 386 381 386 411 402 c 128,-1,65
 441 418 441 418 456 442 c 0,66,67
 486 490 486 490 486 532 c 0,68,69
 486 590 486 590 442 627 c 0,70,71
 416 649 416 649 384.5 659 c 128,-1,72
 353 669 353 669 307 669 c 128,-1,73
 261 669 261 669 251 661 c 128,-1,74
 241 653 241 653 237 627 c 2,75,-1
 225 545 l 2,76,77
 208 434 208 434 208 404 c 0,60,61
EndSplineSet
Position2: "'cpsp' Capital Spacing in Latin lookup 0 subtable" dx=20 dy=0 dh=40 dv=0
EndChar

StartChar: C
Encoding: 67 67 38
Width: 762
GlyphClass: 2
Flags: HW
LayerCount: 2
Fore
SplineSet
59.5 187 m 128,-1,1
 39 246 39 246 39 316 c 128,-1,2
 39 386 39 386 63 455.5 c 128,-1,3
 87 525 87 525 133.5 583 c 128,-1,4
 180 641 180 641 256 675.5 c 128,-1,5
 332 710 332 710 428 710 c 0,6,7
 489 710 489 710 547 691 c 128,-1,8
 605 672 605 672 638 653 c 2,9,-1
 670 634 l 1,10,11
 673 634 673 634 680.5 642 c 128,-1,12
 688 650 688 650 692 650 c 0,13,14
 704 650 704 650 704 634 c 0,15,16
 704 546 704 546 708.5 519 c 128,-1,17
 713 492 713 492 713 485 c 0,18,19
 713 461 713 461 699 461 c 0,20,21
 692 461 692 461 687 469 c 128,-1,22
 682 477 682 477 674.5 498.5 c 128,-1,23
 667 520 667 520 659 540.5 c 0,24,25
 643.087912088 581.274725275 643.087912088 581.274725275 600 610 c 0,26,27
 509 672 509 672 415.5 672 c 128,-1,28
 322 672 322 672 254.5 621.5 c 128,-1,29
 187 571 187 571 155.5 495.5 c 128,-1,30
 124 420 124 420 124 334 c 0,31,32
 124 187 124 187 205 100.5 c 128,-1,33
 286 14 286 14 404.5 14 c 128,-1,34
 523 14 523 14 614 117 c 0,35,36
 626 130 626 130 636 151.5 c 128,-1,37
 646 173 646 173 653 185.5 c 128,-1,38
 660 198 660 198 669 198 c 0,39,40
 685 198 685 198 685 180 c 0,41,42
 685 167 685 167 677.5 146 c 128,-1,43
 670 125 670 125 667 114.5 c 128,-1,44
 664 104 664 104 660.5 87 c 128,-1,45
 657 70 657 70 654.5 63.5 c 128,-1,46
 652 57 652 57 645 53 c 0,47,48
 500 -23 500 -23 378 -23 c 0,49,50
 294 -23 294 -23 227.5 5 c 128,-1,51
 161 33 161 33 120.5 80.5 c 128,-1,0
 80 128 80 128 59.5 187 c 128,-1,1
EndSplineSet
Position2: "'cpsp' Capital Spacing in Latin lookup 0 subtable" dx=20 dy=0 dh=40 dv=0
EndChar

StartChar: D
Encoding: 68 68 39
Width: 767
GlyphClass: 2
Flags: HW
LayerCount: 2
Fore
SplineSet
298 0 m 1,0,-1
 143 3 l 2,1,2
 108 3 108 3 77.5 -1 c 128,-1,3
 47 -5 47 -5 40 -5 c 128,-1,4
 33 -5 33 -5 26.5 0.5 c 128,-1,5
 20 6 20 6 20 13.5 c 128,-1,6
 20 21 20 21 28 24.5 c 128,-1,7
 36 28 36 28 46.5 29.5 c 128,-1,8
 57 31 57 31 69 41.5 c 128,-1,9
 81 52 81 52 87 72 c 128,-1,10
 93 92 93 92 97 116 c 2,11,-1
 165 616 l 2,12,13
 167 632 167 632 167 634 c 0,14,15
 167 649 167 649 153 661.5 c 128,-1,16
 139 674 139 674 122 675 c 0,17,18
 76 678 76 678 76 696.5 c 128,-1,19
 76 715 76 715 107 715 c 0,20,21
 124 715 124 715 153.5 709.5 c 128,-1,22
 183 704 183 704 208 704 c 128,-1,23
 233 704 233 704 277.5 709 c 128,-1,24
 322 714 322 714 364 714 c 0,25,26
 554 714 554 714 643.5 634.5 c 128,-1,27
 733 555 733 555 733 430.5 c 128,-1,28
 733 306 733 306 655 186 c 0,29,30
 633 151 633 151 591.5 111.5 c 128,-1,31
 550 72 550 72 524 57 c 0,32,33
 430 0 430 0 298 0 c 1,0,-1
172 63 m 128,-1,35
 172 53 172 53 182 43.5 c 128,-1,36
 192 34 192 34 220 34 c 2,37,-1
 308 34 l 2,38,39
 352 34 352 34 411.5 55 c 0,40,41
 518.332058148 92.7054322877 518.332058148 92.7054322877 580.5 198.5 c 0,42,43
 621.858378378 268.881801802 621.858378378 268.881801802 636.5 373 c 0,44,45
 641 405 641 405 641 434 c 128,-1,46
 641 463 641 463 634 493.5 c 128,-1,47
 627 524 627 524 607 557.5 c 128,-1,48
 587 591 587 591 556 615.5 c 128,-1,49
 525 640 525 640 472.5 656 c 128,-1,50
 420 672 420 672 355.5 672 c 128,-1,51
 291 672 291 672 273 664 c 128,-1,52
 255 656 255 656 244 617 c 1,53,54
 236.542372881 585.305084746 236.542372881 585.305084746 204.271186441 329.152542373 c 128,-1,34
 172 73 172 73 172 63 c 128,-1,35
EndSplineSet
Position2: "'cpsp' Capital Spacing in Latin lookup 0 subtable" dx=20 dy=0 dh=40 dv=0
EndChar

StartChar: E
Encoding: 69 69 40
Width: 631
GlyphClass: 2
Flags: HW
LayerCount: 2
Fore
SplineSet
167 3 m 2,0,-1
 55 0 l 2,1,2
 20 0 20 0 20 13.5 c 128,-1,3
 20 27 20 27 42.5 28 c 128,-1,4
 65 29 65 29 77.5 44 c 128,-1,5
 90 59 90 59 95 77 c 128,-1,6
 100 95 100 95 105 126 c 128,-1,7
 110 157 110 157 110.5 161.5 c 128,-1,8
 111 166 111 166 119 215 c 128,-1,9
 127 264 127 264 131 296 c 2,10,-1
 167 599 l 2,11,12
 168 608 168 608 168 628 c 128,-1,13
 168 648 168 648 156 661.5 c 128,-1,14
 144 675 144 675 130 676 c 0,15,16
 92 678.714285714 92 678.714285714 92 693.357142857 c 128,-1,17
 92 708 92 708 115 708 c 2,18,-1
 368 706 l 1,19,-1
 599 710 l 2,20,21
 617 710 617 710 617 691 c 1,22,-1
 613 638 l 1,23,-1
 616 584 l 1,24,25
 616 556 616 556 603 556 c 0,26,27
 588 556 588 556 588 580 c 0,28,29
 588 623.2 588 623.2 555 643 c 0,30,31
 545 649 545 649 520 656.5 c 128,-1,32
 495 664 495 664 464 664 c 2,33,-1
 310 667 l 2,34,35
 266 667 266 667 256.5 657 c 128,-1,36
 247 647 247 647 239 599 c 1,37,38
 214 424 214 424 214 405 c 128,-1,39
 214 386 214 386 220.5 384 c 128,-1,40
 227 382 227 382 307 382 c 128,-1,41
 387 382 387 382 417.5 386 c 128,-1,42
 448 390 448 390 459.5 404 c 128,-1,43
 471 418 471 418 477 432 c 128,-1,44
 483 446 483 446 486 452 c 128,-1,45
 489 458 489 458 495 458 c 0,46,47
 507 458 507 458 507 448 c 128,-1,48
 507 438 507 438 498.5 400.5 c 128,-1,49
 490 363 490 363 487.5 347.5 c 128,-1,50
 485 332 485 332 485 304 c 0,51,52
 485 244 485 244 469 244 c 0,53,54
 458 244 458 244 458 260 c 0,55,56
 458 308 458 308 441 320 c 0,57,58
 412 341 412 341 334 341 c 2,59,-1
 285.5 341 l 1,60,-1
 255 342 l 2,61,62
 252 342 252 342 249 342 c 0,63,64
 211 342 211 342 210 325 c 0,65,66
 207 295 207 295 197.5 235.5 c 0,67,68
 174 88.3157894737 174 88.3157894737 174 77 c 0,69,70
 174 53 174 53 198 46.5 c 128,-1,71
 222 40 222 40 303.5 40 c 128,-1,72
 385 40 385 40 444.5 55.5 c 128,-1,73
 504 71 504 71 525.5 89.5 c 128,-1,74
 547 108 547 108 561.5 123.5 c 128,-1,75
 576 139 576 139 582 139 c 0,76,77
 592 139 592 139 592 125 c 0,78,79
 592 98 592 98 550 45 c 128,-1,80
 508 -8 508 -8 476 -8 c 0,81,82
 404 -8 404 -8 296.5 -2.5 c 128,-1,83
 189 3 189 3 167 3 c 2,0,-1
EndSplineSet
Position2: "'cpsp' Capital Spacing in Latin lookup 0 subtable" dx=20 dy=0 dh=40 dv=0
EndChar

StartChar: F
Encoding: 70 70 41
Width: 585
GlyphClass: 2
Flags: HW
LayerCount: 2
Fore
SplineSet
566 638 m 1,0,-1
 571 584 l 1,1,2
 571 557 571 557 559 557 c 0,3,4
 546.4 557 546.4 557 544 581 c 0,5,6
 541.111111111 609.888888889 541.111111111 609.888888889 515.555555556 636.444444444 c 128,-1,7
 490 663 490 663 425.5 666 c 128,-1,8
 361 669 361 669 343 669 c 2,9,-1
 309 669 l 2,10,11
 268 669 268 669 258 659.5 c 128,-1,12
 248 650 248 650 244.5 626.5 c 0,13,14
 215 428.428571429 215 428.428571429 215 408.714285714 c 128,-1,15
 215 389 215 389 222 385.5 c 128,-1,16
 229 382 229 382 257 382 c 2,17,-1
 318 382 l 2,18,19
 392 382 392 382 412.5 384 c 128,-1,20
 433 386 433 386 446 396.5 c 128,-1,21
 459 407 459 407 462 418.5 c 0,22,23
 469.695652174 448 469.695652174 448 484 448 c 0,24,25
 494 448 494 448 494 437.5 c 128,-1,26
 494 427 494 427 484.5 380 c 128,-1,27
 475 333 475 333 475 286 c 128,-1,28
 475 239 475 239 462 239 c 0,29,30
 446 239 446 239 446 260 c 2,31,-1
 446 271 l 2,32,33
 446 289 446 289 444 299.5 c 128,-1,34
 442 310 442 310 432.5 318.5 c 128,-1,35
 423 327 423 327 412 330.5 c 128,-1,36
 401 334 401 334 374 336.5 c 0,37,38
 336.2 340 336.2 340 242 340 c 0,39,40
 207 340 207 340 206 318 c 1,41,42
 203 289 203 289 195.5 233.5 c 0,43,44
 177 96.6 177 96.6 177 89 c 0,45,46
 177 61 177 61 194 46.5 c 128,-1,47
 211 32 211 32 231 31 c 0,48,49
 285 28.3 285 28.3 285 10 c 0,50,51
 285 -2 285 -2 270 -2 c 0,52,53
 267 -2 267 -2 234 0.5 c 128,-1,54
 201 3 201 3 172 3 c 0,55,56
 124 3 124 3 64 -3 c 2,57,-1
 45 -5 l 1,58,59
 20 -5 20 -5 20 8 c 0,60,61
 20 14 20 14 26 19 c 128,-1,62
 32 24 32 24 45.5 25.5 c 128,-1,63
 59 27 59 27 71.5 38.5 c 128,-1,64
 84 50 84 50 92 77.5 c 0,65,66
 109.752380952 138.523809524 109.752380952 138.523809524 118 221 c 1,67,68
 138.458333333 359.487179487 138.458333333 359.487179487 153.229166667 486.743589744 c 128,-1,69
 168 614 168 614 168 620 c 0,70,71
 168 648 168 648 153.5 661.5 c 128,-1,72
 139 675 139 675 122 675.5 c 128,-1,73
 105 676 105 676 90.5 679.5 c 128,-1,74
 76 683 76 683 76 695 c 0,75,76
 76 711 76 711 99 711 c 0,77,78
 108 711 108 711 144.5 709.5 c 0,79,80
 229.666666667 706 229.666666667 706 368 706 c 1,81,-1
 548 708 l 2,82,83
 566 708 566 708 566 691 c 2,84,-1
 566 638 l 1,0,-1
EndSplineSet
Position2: "'cpsp' Capital Spacing in Latin lookup 0 subtable" dx=20 dy=0 dh=40 dv=0
EndChar

StartChar: G
Encoding: 71 71 42
Width: 773
GlyphClass: 2
Flags: HW
LayerCount: 2
Fore
SplineSet
631 356 m 1,0,-1
 715 360 l 2,1,2
 734 360 734 360 734 348 c 0,3,4
 734 335.333333333 734 335.333333333 711 331.5 c 0,5,6
 702 330 702 330 693.5 321.5 c 128,-1,7
 685 313 685 313 682 297 c 0,8,9
 660 160 660 160 660 105 c 2,10,-1
 660 74 l 2,11,12
 660 54 660 54 656.5 50.5 c 128,-1,13
 653 47 653 47 641 44 c 128,-1,14
 629 41 629 41 622.5 38.5 c 128,-1,15
 616 36 616 36 602 30.5 c 128,-1,16
 588 25 588 25 576.5 21 c 128,-1,17
 565 17 565 17 544 10.5 c 128,-1,18
 523 4 523 4 503 0 c 0,19,20
 453 -10 453 -10 403 -10 c 0,21,22
 226 -10 226 -10 132.5 91 c 128,-1,23
 39 192 39 192 39 359 c 0,24,25
 39 437.166666667 39 437.166666667 85 533 c 0,26,27
 109 583 109 583 157.5 626.5 c 128,-1,28
 206 670 206 670 272.5 693 c 128,-1,29
 339 716 339 716 392.5 716 c 128,-1,30
 446 716 446 716 488.5 708.5 c 128,-1,31
 531 701 531 701 560 690 c 128,-1,32
 589 679 589 679 611.5 668 c 128,-1,33
 634 657 634 657 647 649.5 c 128,-1,34
 660 642 660 642 662.5 642 c 128,-1,35
 665 642 665 642 676 652 c 128,-1,36
 687 662 687 662 691 662 c 0,37,38
 704 662 704 662 704 644 c 2,39,-1
 702 592 l 2,40,41
 702 572 702 572 705.5 542 c 128,-1,42
 709 512 709 512 709 508 c 0,43,44
 709 485 709 485 692 485 c 0,45,46
 684 485 684 485 680 494.5 c 128,-1,47
 676 504 676 504 669 524.5 c 128,-1,48
 662 545 662 545 650 562 c 0,49,50
 612 619 612 619 539.5 649 c 128,-1,51
 467 679 467 679 386 679 c 0,52,53
 309.886363636 679 309.886363636 679 248.5 642 c 0,54,55
 212 620 212 620 185.5 585.5 c 128,-1,56
 159 551 159 551 141.5 492 c 128,-1,57
 124 433 124 433 124 357 c 0,58,59
 124 218 124 218 201.5 121.5 c 128,-1,60
 279 25 279 25 404 25 c 0,61,62
 450 25 450 25 481 32 c 128,-1,63
 512 39 512 39 541 60.5 c 0,64,65
 599 103.5 599 103.5 599 243 c 2,66,-1
 599 249 l 2,67,68
 599 301 599 301 590.5 314.5 c 128,-1,69
 582 328 582 328 544 328 c 2,70,-1
 535 328 l 2,71,72
 506 328 506 328 506 346 c 0,73,74
 506 359 506 359 539 359 c 1,75,-1
 631 356 l 1,0,-1
EndSplineSet
Substitution2: "'salt' Stylistic Alternatives in Latin lookup 14 subtable" G.001
AlternateSubs2: "'aalt' Access All Alternates in Latin lookup 1 subtable" G.001
AlternateSubs2: "'aalt' Access All Alternates lookup 0 subtable" G.001
Position2: "'cpsp' Capital Spacing in Latin lookup 0 subtable" dx=20 dy=0 dh=40 dv=0
EndChar

StartChar: H
Encoding: 72 72 43
Width: 786
GlyphClass: 2
Flags: HW
LayerCount: 2
Fore
SplineSet
132 2 m 1,0,-1
 54 -3 l 1,1,2
 20 -3 20 -3 20 11 c 0,3,4
 20 24.2857142857 20 24.2857142857 37 25.5 c 0,5,6
 56.9230769231 26.9230769231 56.9230769231 26.9230769231 75 45 c 0,7,8
 91.4782608696 61.4782608696 91.4782608696 61.4782608696 99.5 131 c 0,9,10
 101 144 101 144 104 167 c 128,-1,11
 107 190 107 190 109 210 c 128,-1,12
 111 230 111 230 115 263.5 c 128,-1,13
 119 297 119 297 124 339.5 c 128,-1,14
 129 382 129 382 138.5 459 c 0,15,16
 158 617.052631579 158 617.052631579 158 619 c 0,17,18
 158 666 158 666 98.5 673 c 0,19,20
 73 676 73 676 72 677 c 0,21,22
 64 680 64 680 64 689 c 0,23,24
 64 704 64 704 91 704 c 0,25,26
 102 704 102 704 132 700.5 c 128,-1,27
 162 697 162 697 190 697 c 128,-1,28
 218 697 218 697 249.5 700.5 c 128,-1,29
 281 704 281 704 288 704 c 0,30,31
 306 704 306 704 306 689 c 0,32,33
 306 682 306 682 296.5 679.5 c 128,-1,34
 287 677 287 677 273.5 673.5 c 128,-1,35
 260 670 260 670 251.5 660 c 128,-1,36
 243 650 243 650 237.5 626 c 128,-1,37
 232 602 232 602 224.5 542.5 c 128,-1,38
 217 483 217 483 211 448 c 128,-1,39
 205 413 205 413 205 402 c 128,-1,40
 205 391 205 391 207.5 389 c 128,-1,41
 210 387 210 387 217 387 c 2,42,-1
 550 384 l 1,43,-1
 570 384 l 2,44,45
 587 384 587 384 592 391 c 128,-1,46
 597 398 597 398 599 415.5 c 128,-1,47
 601 433 601 433 606 479 c 0,48,49
 619 598.6 619 598.6 619 605 c 0,50,51
 619 653 619 653 579 670 c 0,52,53
 574 672 574 672 559.5 673.5 c 0,54,55
 525 677.068965517 525 677.068965517 525 689.534482759 c 128,-1,56
 525 702 525 702 552 702 c 2,57,-1
 659 699 l 1,58,-1
 745 703 l 1,59,60
 767 703 767 703 767 688 c 0,61,62
 767 680 767 680 747 675.5 c 128,-1,63
 727 671 727 671 720 662 c 0,64,65
 699 637 699 637 688.5 535 c 128,-1,66
 678 433 678 433 664 326.5 c 128,-1,67
 650 220 650 220 643 167.5 c 128,-1,68
 636 115 636 115 636 102 c 128,-1,69
 636 89 636 89 637 79 c 128,-1,70
 638 69 638 69 639.5 62 c 128,-1,71
 641 55 641 55 644.5 49.5 c 128,-1,72
 648 44 648 44 650 40 c 128,-1,73
 652 36 652 36 657.5 33.5 c 128,-1,74
 663 31 663 31 665 29.5 c 0,75,76
 671 25 671 25 681.5 25 c 2,77,-1
 698 24 l 2,78,79
 731 22 731 22 731 6 c 0,80,81
 731 -6 731 -6 713 -6 c 1,82,-1
 611 3 l 1,83,84
 582 3 582 3 555 -1 c 128,-1,85
 528 -5 528 -5 521 -5 c 0,86,87
 489 -5 489 -5 489 8 c 128,-1,88
 489 21 489 21 504 22.5 c 128,-1,89
 519 24 519 24 528 30 c 128,-1,90
 537 36 537 36 542 41 c 128,-1,91
 547 46 547 46 550.5 59 c 0,92,93
 555.866666667 78.9333333333 555.866666667 78.9333333333 558 96 c 2,94,-1
 560 112 l 1,95,96
 588 311 588 311 588 325 c 128,-1,97
 588 339 588 339 582.5 341.5 c 128,-1,98
 577 344 577 344 554 344 c 2,99,-1
 454 343 l 1,100,-1
 219 343 l 2,101,102
 202 343 202 343 199.5 340 c 128,-1,103
 197 337 197 337 195 318 c 2,104,-1
 188 266 l 1,105,106
 167 121 167 121 167 101.5 c 128,-1,107
 167 82 167 82 170 70 c 128,-1,108
 173 58 173 58 176 51 c 128,-1,109
 179 44 179 44 187 38.5 c 128,-1,110
 195 33 195 33 198 32 c 0,111,112
 219 25 219 25 227 24 c 128,-1,113
 235 23 235 23 237 22 c 128,-1,114
 239 21 239 21 242.5 20.5 c 128,-1,115
 246 20 246 20 247.5 19 c 128,-1,116
 249 18 249 18 251 16.5 c 0,117,118
 254 14.25 254 14.25 254 9 c 0,119,120
 254 0 254 0 238 0 c 2,121,-1
 132 2 l 1,0,-1
EndSplineSet
Position2: "'cpsp' Capital Spacing in Latin lookup 0 subtable" dx=20 dy=0 dh=40 dv=0
EndChar

StartChar: I
Encoding: 73 73 44
Width: 325
GlyphClass: 2
Flags: HW
LayerCount: 2
Fore
SplineSet
132 1 m 1,0,-1
 55 -5 l 1,1,2
 20 -5 20 -5 20 11 c 0,3,4
 20 23.2 20 23.2 39.5 24.5 c 0,5,6
 60.6363636364 25.9090909091 60.6363636364 25.9090909091 73.8181818182 44.9545454545 c 128,-1,7
 87 64 87 64 89 81 c 128,-1,8
 91 98 91 98 109.5 239 c 0,9,10
 158 608.648648649 158 608.648648649 158 619 c 0,11,12
 158 666 158 666 98.5 673 c 0,13,14
 73 676 73 676 72 677 c 0,15,16
 64 680 64 680 64 689 c 0,17,18
 64 704 64 704 91 704 c 0,19,20
 102 704 102 704 132 700 c 128,-1,21
 162 696 162 696 194 696 c 1,22,23
 288 702 l 1,24,25
 306 702 306 702 306 688 c 0,26,27
 306 681 306 681 296.5 678.5 c 128,-1,28
 287 676 287 676 273.5 672.5 c 128,-1,29
 260 669 260 669 254 662 c 0,30,31
 234 639 234 639 223.5 535.5 c 128,-1,32
 213 432 213 432 198 326 c 128,-1,33
 183 220 183 220 175 166.5 c 128,-1,34
 167 113 167 113 167 95 c 128,-1,35
 167 77 167 77 170 62 c 128,-1,36
 173 47 173 47 180.5 40 c 128,-1,37
 188 33 188 33 192.5 30 c 128,-1,38
 197 27 197 27 209 25 c 128,-1,39
 221 23 221 23 224.5 22 c 128,-1,40
 228 21 228 21 233 20 c 128,-1,41
 238 19 238 19 241.5 18.5 c 128,-1,42
 245 18 245 18 248 17 c 0,43,44
 254 15 254 15 254 8.5 c 128,-1,45
 254 2 254 2 251 -1 c 0,46,47
 247 -5 247 -5 233 -5 c 2,48,-1
 132 1 l 1,0,-1
EndSplineSet
Position2: "'cpsp' Capital Spacing in Latin lookup 0 subtable" dx=20 dy=0 dh=40 dv=0
EndChar

StartChar: J
Encoding: 74 74 45
Width: 405
GlyphClass: 2
Flags: HW
LayerCount: 2
Fore
SplineSet
189 246 m 2,0,-1
 234 629 l 1,1,2
 234 668 234 668 166 674 c 0,3,4
 141 676 141 676 141 692 c 128,-1,5
 141 708 141 708 167 708 c 0,6,7
 179 708 179 708 205 703.5 c 128,-1,8
 231 699 231 699 264.5 699 c 128,-1,9
 298 699 298 699 329 703 c 128,-1,10
 360 707 360 707 362 707 c 0,11,12
 385 707 385 707 385 696 c 128,-1,13
 385 685 385 685 379 682.5 c 128,-1,14
 373 680 373 680 364 679 c 128,-1,15
 355 678 355 678 345 673.5 c 0,16,17
 321.645367412 662.990415335 321.645367412 662.990415335 310 597 c 0,18,19
 308 583 308 583 291.5 441 c 128,-1,20
 275 299 275 299 262 212.5 c 128,-1,21
 249 126 249 126 222.5 66.5 c 128,-1,22
 196 7 196 7 142 -31 c 128,-1,23
 88 -69 88 -69 42 -69 c 0,24,25
 19 -69 19 -69 4.5 -60.5 c 128,-1,26
 -10 -52 -10 -52 -10 -40 c 128,-1,27
 -10 -28 -10 -28 1.5 5 c 128,-1,28
 13 38 13 38 27 38 c 0,29,30
 35 38 35 38 41.5 24 c 0,31,32
 60.5357142857 -17 60.5357142857 -17 93 -17 c 0,33,34
 132 -17 132 -17 153.5 54.5 c 128,-1,35
 175 126 175 126 189 246 c 2,0,-1
EndSplineSet
Substitution2: "'salt' Stylistic Alternatives in Latin lookup 14 subtable" J.001
AlternateSubs2: "'aalt' Access All Alternates in Latin lookup 1 subtable" J.001
AlternateSubs2: "'aalt' Access All Alternates lookup 0 subtable" J.001
Position2: "'cpsp' Capital Spacing in Latin lookup 0 subtable" dx=20 dy=0 dh=40 dv=0
EndChar

StartChar: K
Encoding: 75 75 46
Width: 774
GlyphClass: 2
Flags: HW
LayerCount: 2
Fore
SplineSet
163 3 m 1,0,-1
 49 -2 l 1,1,2
 20 -2 20 -2 20 13 c 0,3,4
 20 22 20 22 29 25 c 128,-1,5
 38 28 38 28 50 29.5 c 128,-1,6
 62 31 62 31 75.5 45.5 c 128,-1,7
 89 60 89 60 98 95.5 c 128,-1,8
 107 131 107 131 134 363.5 c 128,-1,9
 161 596 161 596 161 620 c 128,-1,10
 161 644 161 644 141.5 660 c 128,-1,11
 122 676 122 676 93 678 c 0,12,13
 75 679 75 679 75 695 c 0,14,15
 75 707 75 707 93 707 c 1,16,-1
 98 706 l 2,17,18
 103 706 103 706 112.5 705 c 128,-1,19
 122 704 122 704 134.5 703 c 0,20,21
 159.5 701 159.5 701 208 701 c 1,22,-1
 292 705 l 2,23,24
 311 705 311 705 311 695 c 0,25,26
 311 690 311 690 307.5 687.5 c 128,-1,27
 304 685 304 685 294.5 682 c 0,28,29
 250.541329011 668.118314425 250.541329011 668.118314425 240 622 c 0,30,31
 232 587 232 587 222.5 497 c 128,-1,32
 213 407 213 407 212 399 c 0,33,34
 210 383 210 383 210 379 c 0,35,36
 210 370 210 370 217.5 370 c 128,-1,37
 225 370 225 370 335 451.5 c 128,-1,38
 445 533 445 533 526 596 c 0,39,40
 579 638 579 638 579 656 c 0,41,42
 579 670 579 670 555 677 c 128,-1,43
 531 684 531 684 531 694 c 0,44,45
 531 706 531 706 558 706 c 1,46,-1
 650 700 l 1,47,-1
 733 706 l 1,48,49
 754 706 754 706 754 690 c 128,-1,50
 754 674 754 674 741 671 c 0,51,52
 736 669 736 669 722.5 667 c 128,-1,53
 709 665 709 665 696.5 661 c 0,54,55
 662.32278481 650.063291139 662.32278481 650.063291139 571 584 c 2,56,-1
 355 429 l 2,57,58
 350 425 350 425 340.5 419 c 128,-1,59
 331 413 331 413 325 408.5 c 128,-1,60
 319 404 319 404 312.5 399 c 128,-1,61
 306 394 306 394 302.5 389.5 c 128,-1,62
 299 385 299 385 299 381 c 128,-1,63
 299 377 299 377 332.5 341 c 128,-1,64
 366 305 366 305 431 230 c 128,-1,65
 496 155 496 155 519.5 128.5 c 128,-1,66
 543 102 543 102 576 72.5 c 128,-1,67
 609 43 609 43 632 35.5 c 128,-1,68
 655 28 655 28 684 26 c 128,-1,69
 713 24 713 24 713 12 c 0,70,71
 713 -2 713 -2 696 -2 c 2,72,-1
 597 2 l 1,73,-1
 564.5 2 l 1,74,-1
 540 1 l 2,75,76
 530 1 530 1 515 17.5 c 128,-1,77
 500 34 500 34 433 114 c 0,78,79
 252.226415094 329.849056604 252.226415094 329.849056604 245.613207547 333.924528302 c 128,-1,80
 239 338 239 338 231 338 c 128,-1,81
 223 338 223 338 216 331.5 c 128,-1,82
 209 325 209 325 208.5 324 c 128,-1,83
 208 323 208 323 206 321 c 128,-1,84
 204 319 204 319 203 317 c 128,-1,85
 202 315 202 315 200.5 311 c 128,-1,86
 199 307 199 307 198 303 c 128,-1,87
 197 299 197 299 196 292.5 c 0,88,89
 193.571428571 276.714285714 193.571428571 276.714285714 184.785714286 196.857142857 c 128,-1,90
 176 117 176 117 176 113 c 0,91,92
 176 59 176 59 186.5 46.5 c 128,-1,93
 197 34 197 34 233.5 29.5 c 128,-1,94
 270 25 270 25 270 12.5 c 128,-1,95
 270 0 270 0 247 0 c 2,96,-1
 163 3 l 1,0,-1
EndSplineSet
Position2: "'cpsp' Capital Spacing in Latin lookup 0 subtable" dx=20 dy=0 dh=40 dv=0
EndChar

StartChar: L
Encoding: 76 76 47
Width: 589
GlyphClass: 2
Flags: HW
LayerCount: 2
Fore
SplineSet
174 3 m 1,0,-1
 48 -3 l 1,1,2
 25 -3 25 -3 25 10 c 0,3,4
 25 19 25 19 32 22 c 128,-1,5
 39 25 39 25 53 29 c 128,-1,6
 67 33 67 33 75.5 40 c 128,-1,7
 84 47 84 47 87 51 c 128,-1,8
 90 55 90 55 93 60.5 c 128,-1,9
 96 66 96 66 98 77.5 c 128,-1,10
 100 89 100 89 102 102 c 128,-1,11
 104 115 104 115 107 141.5 c 128,-1,12
 110 168 110 168 114 196.5 c 128,-1,13
 118 225 118 225 124.5 274.5 c 128,-1,14
 131 324 131 324 149 454 c 128,-1,15
 167 584 167 584 167 632 c 0,16,17
 167 685 167 685 106 687 c 0,18,19
 94 687 94 687 85.5 693 c 128,-1,20
 77 699 77 699 77 707 c 0,21,22
 77 719 77 719 93 719 c 0,23,24
 95 719 95 719 108 717 c 0,25,26
 147 711 147 711 207 711 c 1,27,-1
 298 715 l 2,28,29
 319 715 319 715 319 702 c 0,30,31
 319 694 319 694 309 690 c 128,-1,32
 299 686 299 686 286.5 683 c 128,-1,33
 274 680 274 680 262 666 c 128,-1,34
 250 652 250 652 246 627 c 0,35,36
 175 112 175 112 175 85.5 c 128,-1,37
 175 59 175 59 193.5 48.5 c 128,-1,38
 212 38 212 38 281.5 38 c 128,-1,39
 351 38 351 38 401.5 45.5 c 128,-1,40
 452 53 452 53 478.5 64 c 128,-1,41
 505 75 505 75 523 87.5 c 128,-1,42
 541 100 541 100 547.5 111 c 0,43,44
 562.863636364 137 562.863636364 137 572 137 c 0,45,46
 584 137 584 137 584 119 c 128,-1,47
 584 101 584 101 561.5 63.5 c 128,-1,48
 539 26 539 26 528 16 c 0,49,50
 501 -8 501 -8 467 -8 c 2,51,-1
 420 -8 l 2,52,53
 373 -8 373 -8 287 -2.5 c 128,-1,54
 201 3 201 3 174 3 c 1,0,-1
EndSplineSet
Position2: "'cpsp' Capital Spacing in Latin lookup 0 subtable" dx=20 dy=0 dh=40 dv=0
EndChar

StartChar: M
Encoding: 77 77 48
Width: 911
GlyphClass: 2
Flags: HW
LayerCount: 2
Fore
SplineSet
116 1 m 1,0,-1
 43 -2 l 2,1,2
 20 -2 20 -2 20 10 c 2,3,-1
 20 13.5 l 2,4,5
 20 17.5 20 17.5 21.5 18.25 c 128,-1,6
 23 19 23 19 24.5 20 c 128,-1,7
 26 21 26 21 27.5 22 c 128,-1,8
 29 23 29 23 32.5 24.5 c 128,-1,9
 36 26 36 26 39 27 c 0,10,11
 48 30 48 30 58 34 c 0,12,13
 82 43 82 43 93 75.5 c 0,14,15
 106.955223881 116.731343284 106.955223881 116.731343284 116.47761194 173.365671642 c 128,-1,16
 126 230 126 230 142.5 311 c 0,17,18
 175 470.545454545 175 470.545454545 175 519 c 1,19,20
 174 562 l 1,21,22
 174 613 174 613 144 655 c 0,23,24
 132 671 132 671 119 675.5 c 128,-1,25
 106 680 106 680 83 680 c 2,26,-1
 68 680 l 2,27,28
 53 680 53 680 53 696 c 128,-1,29
 53 712 53 712 124 712 c 2,30,-1
 130 712 l 1,31,-1
 194 713 l 2,32,33
 210 713 210 713 221 692 c 128,-1,34
 232 671 232 671 271 574 c 128,-1,35
 310 477 310 477 358 369.5 c 0,36,37
 466.725581395 126 466.725581395 126 475.362790698 126 c 128,-1,38
 484 126 484 126 636 432 c 0,39,40
 637 434 637 434 666 490.5 c 128,-1,41
 695 547 695 547 708 574 c 128,-1,42
 721 601 721 601 732 627 c 128,-1,43
 743 653 743 653 748 665.5 c 128,-1,44
 753 678 753 678 759 689.5 c 0,45,46
 768.652173913 708 768.652173913 708 782 708 c 2,47,-1
 812 708 l 1,48,-1
 867 712 l 1,49,50
 891 712 891 712 891 698 c 0,51,52
 891 694 891 694 886 689 c 128,-1,53
 881 684 881 684 877 683 c 128,-1,54
 873 682 873 682 861.5 680.5 c 128,-1,55
 850 679 850 679 846.5 677.5 c 128,-1,56
 843 676 843 676 835.5 669.5 c 128,-1,57
 828 663 828 663 824.5 651 c 0,58,59
 803 577.285714286 803 577.285714286 803 454 c 2,60,-1
 803 376 l 1,61,-1
 801 234 l 1,62,-1
 800 209 l 1,63,-1
 799 106 l 2,64,65
 799 64 799 64 810 47 c 128,-1,66
 821 30 821 30 843 26.5 c 128,-1,67
 865 23 865 23 873 22 c 0,68,69
 888 20 888 20 888 10 c 0,70,71
 888 -4 888 -4 860 -4 c 1,72,-1
 756 1 l 1,73,-1
 673 -4 l 1,74,75
 652 -4 652 -4 652 8 c 0,76,77
 652 20.9523809524 652 20.9523809524 678.5 26 c 0,78,79
 689 28 689 28 701 38 c 128,-1,80
 713 48 713 48 718 66 c 0,81,82
 733 116 733 116 733 390 c 0,83,84
 733 505 733 505 727 505 c 0,85,86
 717 505 717 505 688 449 c 2,87,-1
 542 166 l 2,88,89
 514 111 514 111 491 63.5 c 128,-1,90
 468 16 468 16 463 9.5 c 128,-1,91
 458 3 458 3 449 3 c 0,92,93
 442 3 442 3 411.5 70 c 128,-1,94
 381 137 381 137 305.5 308.5 c 128,-1,95
 230 480 230 480 226.5 486.5 c 128,-1,96
 223 493 223 493 219.5 493 c 128,-1,97
 216 493 216 493 211 476 c 128,-1,98
 206 459 206 459 201.5 419.5 c 128,-1,99
 197 380 197 380 170 241 c 128,-1,100
 143 102 143 102 143 71 c 0,101,102
 143 32.8421052632 143 32.8421052632 198.5 27 c 0,103,104
 223.056603774 24.4150943396 223.056603774 24.4150943396 226.528301887 19.2075471698 c 128,-1,105
 230 14 230 14 230 10 c 0,106,107
 230 -2 230 -2 209 -2 c 2,108,-1
 116 1 l 1,0,-1
EndSplineSet
Position2: "'cpsp' Capital Spacing in Latin lookup 0 subtable" dx=20 dy=0 dh=40 dv=0
EndChar

StartChar: N
Encoding: 78 78 49
Width: 804
GlyphClass: 2
Flags: HW
LayerCount: 2
Fore
SplineSet
107 -2 m 1,0,-1
 42 -5 l 1,1,2
 20 -5 20 -5 20 6 c 0,3,4
 20 14.8181818182 20 14.8181818182 33.5 18.5 c 0,5,6
 54.125 24.125 54.125 24.125 62.0625 31.5625 c 128,-1,7
 70 39 70 39 76.5 47 c 128,-1,8
 83 55 83 55 88 68.5 c 128,-1,9
 93 82 93 82 96 92.5 c 128,-1,10
 99 103 99 103 103.5 127.5 c 128,-1,11
 108 152 108 152 110.5 169 c 128,-1,12
 113 186 113 186 119 225 c 128,-1,13
 125 264 125 264 128 285 c 128,-1,14
 131 306 131 306 139.5 356.5 c 128,-1,15
 148 407 148 407 152.5 437 c 0,16,17
 166 527 166 527 166 555.5 c 128,-1,18
 166 584 166 584 164 595 c 128,-1,19
 162 606 162 606 160 612 c 128,-1,20
 158 618 158 618 151 626.5 c 128,-1,21
 144 635 144 635 142 637.5 c 128,-1,22
 140 640 140 640 129.5 649.5 c 128,-1,23
 119 659 119 659 117 661 c 0,24,25
 105 672 105 672 82 673.5 c 128,-1,26
 59 675 59 675 43.5 676.5 c 128,-1,27
 28 678 28 678 28 691 c 0,28,29
 28 710 28 710 95 710 c 1,30,-1
 137 707 l 1,31,-1
 167 708 l 2,32,33
 183.666666667 708 183.666666667 708 190.333333333 700.5 c 128,-1,34
 197 693 197 693 199 690 c 128,-1,35
 201 687 201 687 206.5 679.5 c 128,-1,36
 212 672 212 672 216 666 c 0,37,38
 453 338 453 338 565 159 c 0,39,40
 585 127 585 127 591 127 c 0,41,42
 610 127 610 127 639.5 355.5 c 128,-1,43
 669 584 669 584 669 614 c 128,-1,44
 669 644 669 644 656.5 659 c 128,-1,45
 644 674 644 674 628.5 676.5 c 0,46,47
 588 683.032258065 588 683.032258065 588 702 c 0,48,49
 588 712 588 712 613 712 c 1,50,-1
 689 708 l 1,51,-1
 759 712 l 2,52,53
 775 712 775 712 780 709 c 128,-1,54
 785 706 785 706 785 700.5 c 128,-1,55
 785 695 785 695 783.5 693 c 128,-1,56
 782 691 782 691 778 689.5 c 128,-1,57
 774 688 774 688 771 687.5 c 0,58,59
 729.939393939 680.656565657 729.939393939 680.656565657 716.96969697 642.828282828 c 128,-1,60
 704 605 704 605 696 538 c 0,61,62
 654 185 654 185 618 21 c 0,63,64
 617 13 617 13 611 3.5 c 128,-1,65
 605 -6 605 -6 597.5 -6 c 128,-1,66
 590 -6 590 -6 582 3 c 128,-1,67
 574 12 574 12 559 36 c 128,-1,68
 544 60 544 60 525.5 90.5 c 0,69,70
 461.870422535 195.402816901 461.870422535 195.402816901 412.435211268 265.701408451 c 128,-1,71
 363 336 363 336 333.5 378 c 128,-1,72
 304 420 304 420 288.5 441.5 c 128,-1,73
 273 463 273 463 260 481 c 0,74,75
 238.875 510.25 238.875 510.25 232.4375 523.125 c 128,-1,76
 226 536 226 536 216 536 c 0,77,78
 202 536 202 536 197 489 c 0,79,80
 186 378 186 378 165 249.5 c 128,-1,81
 144 121 144 121 144 80.5 c 128,-1,82
 144 40 144 40 183 28 c 0,83,84
 187 27 187 27 194.5 25 c 128,-1,85
 202 23 202 23 206 22 c 128,-1,86
 210 21 210 21 215 19 c 0,87,88
 224 15.4 224 15.4 224 7 c 0,89,90
 224 -5 224 -5 207 -5 c 0,91,92
 202 -5 202 -5 181 -3.5 c 128,-1,93
 160 -2 160 -2 107 -2 c 1,0,-1
EndSplineSet
Position2: "'cpsp' Capital Spacing in Latin lookup 0 subtable" dx=20 dy=0 dh=40 dv=0
EndChar

StartChar: O
Encoding: 79 79 50
Width: 815
GlyphClass: 2
Flags: HW
LayerCount: 2
Fore
SplineSet
39 314 m 0,0,1
 39 388 39 388 65.5 459 c 128,-1,2
 92 530 92 530 141 588 c 128,-1,3
 190 646 190 646 266.5 681 c 128,-1,4
 343 716 343 716 431 716 c 128,-1,5
 519 716 519 716 586.5 687.5 c 128,-1,6
 654 659 654 659 694 611 c 0,7,8
 776 512.6 776 512.6 776 376 c 0,9,10
 776 228.428571429 776 228.428571429 683.5 109.5 c 0,11,12
 638 51 638 51 563 15.5 c 128,-1,13
 488 -20 488 -20 394 -20 c 0,14,15
 234 -20 234 -20 136.5 72 c 128,-1,16
 39 164 39 164 39 314 c 0,0,1
125 347 m 0,17,18
 125 193 125 193 207 104.5 c 128,-1,19
 289 16 289 16 401 16 c 0,20,21
 488 16 488 16 555.5 71 c 128,-1,22
 623 126 623 126 655.5 207.5 c 128,-1,23
 688 289 688 289 688 378.5 c 128,-1,24
 688 468 688 468 667 521 c 0,25,26
 638 596 638 596 574.5 641 c 128,-1,27
 511 686 511 686 430 686 c 128,-1,28
 349 686 349 686 291 653.5 c 128,-1,29
 233 621 233 621 198 570 c 0,30,31
 125 463.628571429 125 463.628571429 125 347 c 0,17,18
EndSplineSet
Position2: "'cpsp' Capital Spacing in Latin lookup 0 subtable" dx=20 dy=0 dh=40 dv=0
EndChar

StartChar: P
Encoding: 80 80 51
Width: 576
GlyphClass: 2
Flags: HW
LayerCount: 2
Fore
SplineSet
132 2 m 1,0,-1
 51 -4 l 1,1,2
 19 -4 19 -4 19 10 c 0,3,4
 19 21 19 21 40 25 c 0,5,6
 43 26 43 26 44 26 c 0,7,8
 76 32 76 32 87 78 c 0,9,10
 90 94 90 94 121 341 c 128,-1,11
 152 588 152 588 152 636 c 0,12,13
 152 688 152 688 83 690 c 0,14,15
 65 690 65 690 65 704 c 0,16,17
 65 716 65 716 88 716 c 2,18,-1
 245 710 l 1,19,20
 353 717 l 1,21,22
 437 717 437 717 487 674.5 c 128,-1,23
 537 632 537 632 537 559.5 c 128,-1,24
 537 487 537 487 503 429.5 c 128,-1,25
 469 372 469 372 410 347 c 0,26,27
 371 331 371 331 323.5 331 c 0,28,29
 235 331 235 331 235 347 c 0,30,31
 235 349 235 349 238 349 c 2,32,-1
 264.5 348 l 1,33,-1
 293 348 l 2,34,35
 350 348 350 348 404 401 c 128,-1,36
 458 454 458 454 458 540 c 0,37,38
 458 573 458 573 445 599 c 128,-1,39
 432 625 432 625 419.5 636 c 0,40,41
 364.954545455 684 364.954545455 684 294 684 c 0,42,43
 274 684 274 684 267 683.5 c 128,-1,44
 260 683 260 683 257 682 c 128,-1,45
 254 681 254 681 249.5 677 c 0,46,47
 232.786186627 662.143277002 232.786186627 662.143277002 192 317.5 c 0,48,49
 182 233 182 233 173 160 c 1,50,-1
 162 81 l 1,51,52
 162 54 162 54 185 40.5 c 128,-1,53
 208 27 208 27 231 22 c 128,-1,54
 254 17 254 17 254 10 c 0,55,56
 254 -5 254 -5 235 -5 c 0,57,58
 228 -5 228 -5 195 -1.5 c 128,-1,59
 162 2 162 2 132 2 c 1,0,-1
EndSplineSet
Position2: "'cpsp' Capital Spacing in Latin lookup 0 subtable" dx=20 dy=0 dh=40 dv=0
EndChar

StartChar: Q
Encoding: 81 81 52
Width: 807
GlyphClass: 2
Flags: HW
LayerCount: 2
Fore
SplineSet
39 -40 m 0,0,1
 39 -3 39 -3 51.5 23.5 c 128,-1,2
 64 50 64 50 78.5 60 c 128,-1,3
 93 70 93 70 105.5 77 c 128,-1,4
 118 84 118 84 118 88.5 c 128,-1,5
 118 93 118 93 105.5 110 c 128,-1,6
 93 127 93 127 78.5 148.5 c 128,-1,7
 64 170 64 170 51.5 211 c 128,-1,8
 39 252 39 252 39 299.5 c 128,-1,9
 39 347 39 347 49.5 397.5 c 128,-1,10
 60 448 60 448 88.5 506.5 c 128,-1,11
 117 565 117 565 160.5 610.5 c 128,-1,12
 204 656 204 656 277.5 686.5 c 128,-1,13
 351 717 351 717 443 717 c 0,14,15
 552.666666667 717 552.666666667 717 623.5 667 c 0,16,17
 638.8 656.2 638.8 656.2 644 651 c 128,-1,18
 649 646 649 646 666.5 632 c 128,-1,19
 684 618 684 618 702 595 c 0,20,21
 773 499 773 499 773 359.5 c 128,-1,22
 773 220 773 220 682.5 112.5 c 128,-1,23
 592 5 592 5 470 -10 c 0,24,25
 424.545454545 -15.4545454545 424.545454545 -15.4545454545 420.272727273 -19.7272727273 c 128,-1,26
 416 -24 416 -24 416 -27.5 c 128,-1,27
 416 -31 416 -31 462.5 -56.5 c 128,-1,28
 509 -82 509 -82 573 -108.5 c 128,-1,29
 637 -135 637 -135 668.5 -135 c 128,-1,30
 700 -135 700 -135 719.5 -122.5 c 128,-1,31
 739 -110 739 -110 748.5 -98 c 128,-1,32
 758 -86 758 -86 763 -86 c 0,33,34
 771 -86 771 -86 771 -96 c 0,35,36
 771 -124 771 -124 730.5 -162 c 128,-1,37
 690 -200 690 -200 639.5 -200 c 128,-1,38
 589 -200 589 -200 506.5 -163 c 128,-1,39
 424 -126 424 -126 357 -81.5 c 0,40,41
 178.584269663 37 178.584269663 37 146.792134831 37 c 128,-1,42
 115 37 115 37 92 9 c 128,-1,43
 69 -19 69 -19 69 -50.5 c 128,-1,44
 69 -82 69 -82 80.5 -106.5 c 128,-1,45
 92 -131 92 -131 92 -133 c 0,46,47
 92 -146 92 -146 80 -146 c 0,48,49
 39 -146 39 -146 39 -40 c 0,0,1
124 326 m 0,50,51
 124 196 124 196 195.5 105 c 128,-1,52
 267 14 267 14 404 14 c 0,53,54
 473 14 473 14 528.5 48 c 128,-1,55
 584 82 584 82 617.5 137.5 c 0,56,57
 687 252.641791045 687 252.641791045 687 389 c 0,58,59
 687 491 687 491 649 556 c 0,60,61
 620 607 620 607 560 647.5 c 128,-1,62
 500 688 500 688 425 688 c 0,63,64
 299 688 299 688 211.5 591 c 128,-1,65
 124 494 124 494 124 326 c 0,50,51
EndSplineSet
Position2: "'cpsp' Capital Spacing in Latin lookup 0 subtable" dx=20 dy=0 dh=40 dv=0
EndChar

StartChar: R
Encoding: 82 82 53
Width: 637
GlyphClass: 2
Flags: HW
LayerCount: 2
Fore
SplineSet
227 -3 m 1,0,-1
 152 3 l 1,1,2
 123 3 123 3 85.5 -1.5 c 128,-1,3
 48 -6 48 -6 47 -6 c 0,4,5
 20 -6 20 -6 20 9 c 0,6,7
 20 19 20 19 26.5 23 c 128,-1,8
 33 27 33 27 47.5 31 c 128,-1,9
 62 35 62 35 72 40 c 0,10,11
 86 48 86 48 90.5 70.5 c 128,-1,12
 95 93 95 93 108.5 215 c 128,-1,13
 122 337 122 337 129 395 c 128,-1,14
 136 453 136 453 142.5 502 c 128,-1,15
 149 551 149 551 153.5 584.5 c 128,-1,16
 158 618 158 618 158 624 c 0,17,18
 158 673 158 673 96 678 c 0,19,20
 64 680 64 680 64 690.5 c 128,-1,21
 64 701 64 701 70.5 704.5 c 128,-1,22
 77 708 77 708 94 708 c 1,23,-1
 175 702 l 1,24,25
 200 702 200 702 248.5 706 c 128,-1,26
 297 710 297 710 341.5 710 c 128,-1,27
 386 710 386 710 407 708 c 0,28,29
 475 702 475 702 515 659 c 128,-1,30
 555 616 555 616 555 557.5 c 128,-1,31
 555 499 555 499 514.5 447.5 c 128,-1,32
 474 396 474 396 396 369 c 0,33,34
 387 366 387 366 387 353.5 c 128,-1,35
 387 341 387 341 438.5 224.5 c 128,-1,36
 490 108 490 108 516 74 c 0,37,38
 551 26 551 26 598 26 c 0,39,40
 617 26 617 26 617 15 c 0,41,42
 617 -8 617 -8 552.5 -8 c 128,-1,43
 488 -8 488 -8 465 10.5 c 128,-1,44
 442 29 442 29 413.5 92.5 c 128,-1,45
 385 156 385 156 358.5 227.5 c 128,-1,46
 332 299 332 299 320 324.5 c 128,-1,47
 308 350 308 350 296 350 c 2,48,-1
 250 349 l 1,49,-1
 215 350 l 2,50,51
 204 350 204 350 199 333 c 128,-1,52
 194 316 194 316 189 262 c 2,53,-1
 175 121 l 1,54,-1
 172 86 l 1,55,56
 172 63 172 63 186 49.5 c 128,-1,57
 200 36 200 36 216.5 32.5 c 0,58,59
 261 23.0606060606 261 23.0606060606 261 10 c 128,-1,60
 261 -3 261 -3 227 -3 c 1,0,-1
208 412 m 0,61,62
 208 386 208 386 239 386 c 2,63,-1
 253 386 l 2,64,65
 342 386 342 386 374.5 393.5 c 128,-1,66
 407 401 407 401 430 431 c 0,67,68
 468 480.565217391 468 480.565217391 468 539.282608696 c 128,-1,69
 468 598 468 598 430.5 637 c 128,-1,70
 393 676 393 676 325 676 c 0,71,72
 280 676 280 676 258 664 c 128,-1,73
 236 652 236 652 233 611 c 128,-1,74
 230 570 230 570 223.5 522.5 c 128,-1,75
 217 475 217 475 212.5 446 c 128,-1,76
 208 417 208 417 208 412 c 0,61,62
EndSplineSet
Position2: "'cpsp' Capital Spacing in Latin lookup 0 subtable" dx=20 dy=0 dh=40 dv=0
EndChar

StartChar: S
Encoding: 83 83 54
Width: 481
GlyphClass: 2
Flags: HW
LayerCount: 2
Fore
SplineSet
441 676 m 2,0,-1
 440 641 l 1,1,-1
 440 624 l 2,2,3
 440 609 440 609 446 576 c 128,-1,4
 452 543 452 543 452 536 c 128,-1,5
 452 529 452 529 446.5 523.5 c 128,-1,6
 441 518 441 518 434 518 c 128,-1,7
 427 518 427 518 422 527.5 c 128,-1,8
 417 537 417 537 414 551.5 c 128,-1,9
 411 566 411 566 397.5 589 c 128,-1,10
 384 612 384 612 362 634 c 0,11,12
 313 682 313 682 243 682 c 0,13,14
 184.870967742 682 184.870967742 682 166.5 648.5 c 0,15,16
 151 620.235294118 151 620.235294118 151 589.117647059 c 128,-1,17
 151 558 151 558 170.5 523.5 c 128,-1,18
 190 489 190 489 212 466 c 128,-1,19
 234 443 234 443 278 402 c 128,-1,20
 322 361 322 361 350 332 c 128,-1,21
 378 303 378 303 393.5 283.5 c 128,-1,22
 409 264 409 264 422.5 230.5 c 128,-1,23
 436 197 436 197 436 165 c 128,-1,24
 436 133 436 133 425.5 106 c 128,-1,25
 415 79 415 79 390.5 50.5 c 128,-1,26
 366 22 366 22 317 4 c 128,-1,27
 268 -14 268 -14 181.5 -14 c 128,-1,28
 95 -14 95 -14 57 8 c 0,29,30
 43 16 43 16 31.5 61 c 128,-1,31
 20 106 20 106 20 131.5 c 128,-1,32
 20 157 20 157 36 157 c 0,33,34
 43 157 43 157 47 146 c 0,35,36
 63 94 63 94 107.5 58 c 128,-1,37
 152 22 152 22 224 22 c 0,38,39
 266 22 266 22 296.5 34 c 128,-1,40
 327 46 327 46 341 65 c 0,41,42
 366 98.9285714286 366 98.9285714286 366 133 c 128,-1,43
 366 167 366 167 349 196 c 128,-1,44
 332 225 332 225 295 262 c 2,45,-1
 178 378 l 1,46,47
 83 475 83 475 83 555 c 0,48,49
 83 594 83 594 94 622 c 128,-1,50
 105 650 105 650 117 662.5 c 0,51,52
 168.36 716 168.36 716 251 716 c 0,53,54
 286 716 286 716 339.5 698.5 c 128,-1,55
 393 681 393 681 395.5 681 c 128,-1,56
 398 681 398 681 410.5 689 c 128,-1,57
 423 697 423 697 428 697 c 0,58,59
 441 697 441 697 441 676 c 2,0,-1
EndSplineSet
Position2: "'cpsp' Capital Spacing in Latin lookup 0 subtable" dx=20 dy=0 dh=40 dv=0
EndChar

StartChar: T
Encoding: 84 84 55
Width: 692
GlyphClass: 2
Flags: HW
LayerCount: 2
Fore
SplineSet
296 4 m 1,0,-1
 210 -1 l 1,1,2
 178 -1 178 -1 178 13 c 0,3,4
 178 25.8571428571 178 25.8571428571 189.5 27.5 c 0,5,6
 193 28 193 28 195 28.5 c 0,7,8
 201 30 201 30 209 30 c 1,9,10
 238 34 238 34 247.5 48.5 c 128,-1,11
 257 63 257 63 261 93 c 0,12,13
 330 610 330 610 330 638 c 0,14,15
 330 649 330 649 317 651.5 c 128,-1,16
 304 654 304 654 233.5 654 c 128,-1,17
 163 654 163 654 134 647 c 128,-1,18
 105 640 105 640 91 624 c 128,-1,19
 77 608 77 608 70.5 594 c 128,-1,20
 64 580 64 580 62 571.5 c 0,21,22
 57.1764705882 551 57.1764705882 551 42 551 c 0,23,24
 29 551 29 551 29 568.5 c 128,-1,25
 29 586 29 586 32.5 595.5 c 128,-1,26
 36 605 36 605 44.5 626.5 c 128,-1,27
 53 648 53 648 59 672 c 128,-1,28
 65 696 65 696 74.5 701 c 128,-1,29
 84 706 84 706 107 706 c 2,30,-1
 365 703 l 1,31,32
 467 703 467 703 556 705 c 2,33,-1
 646 707 l 2,34,35
 670 707 670 707 673 696.5 c 0,36,37
 674 693 674 693 674 687 c 2,38,-1
 678 576 l 2,39,40
 678 553 678 553 659 553 c 0,41,42
 650.6 553 650.6 553 648.8 559 c 128,-1,43
 647 565 647 565 646 570.5 c 0,44,45
 643.296296296 585.37037037 643.296296296 585.37037037 633.648148148 612.685185185 c 128,-1,46
 624 640 624 640 600.5 645 c 128,-1,47
 577 650 577 650 483 650 c 2,48,-1
 438 650 l 2,49,50
 414 650 414 650 409 640 c 128,-1,51
 404 630 404 630 401 600.5 c 128,-1,52
 398 571 398 571 397.5 566 c 128,-1,53
 397 561 397 561 396.5 553 c 128,-1,54
 396 545 396 545 391 496 c 128,-1,55
 386 447 386 447 372 340 c 0,56,57
 342 110.714285714 342 110.714285714 342 84.3571428571 c 128,-1,58
 342 58 342 58 355.5 45 c 128,-1,59
 369 32 369 32 385 31 c 0,60,61
 428 28.3125 428 28.3125 428 13.15625 c 128,-1,62
 428 -2 428 -2 403 -2 c 1,63,-1
 296 4 l 1,0,-1
EndSplineSet
Substitution2: "'salt' Stylistic Alternatives in Latin lookup 14 subtable" T.001
AlternateSubs2: "'aalt' Access All Alternates in Latin lookup 1 subtable" T.001
AlternateSubs2: "'aalt' Access All Alternates lookup 0 subtable" T.001
Position2: "'cpsp' Capital Spacing in Latin lookup 0 subtable" dx=20 dy=0 dh=40 dv=0
EndChar

StartChar: U
Encoding: 85 85 56
Width: 827
GlyphClass: 2
Flags: HW
LayerCount: 2
Fore
SplineSet
94 215 m 1,0,-1
 131 626 l 1,1,2
 131 650 131 650 117.5 662 c 128,-1,3
 104 674 104 674 87.5 675 c 0,4,5
 44 677.636363636 44 677.636363636 44 694 c 0,6,7
 44 708 44 708 61 708 c 1,8,-1
 96 705 l 258,9,10
 131 702 131 702 175 702 c 1,11,-1
 265 708 l 1,12,13
 285 708 285 708 285 694 c 0,14,15
 285 679.36 285 679.36 251.5 674 c 0,16,17
 239 672 239 672 227 658 c 128,-1,18
 215 644 215 644 211.5 605.5 c 128,-1,19
 208 567 208 567 196.5 470.5 c 0,20,21
 172 264.913043478 172 264.913043478 172 215.456521739 c 128,-1,22
 172 166 172 166 179 141.5 c 128,-1,23
 186 117 186 117 204.5 88.5 c 128,-1,24
 223 60 223 60 263 42.5 c 128,-1,25
 303 25 303 25 361 25 c 0,26,27
 555 25 555 25 620 184 c 0,28,29
 642 240 642 240 667.5 403 c 128,-1,30
 693 566 693 566 693 617 c 0,31,32
 693 648 693 648 671.5 660 c 128,-1,33
 650 672 650 672 628 676 c 128,-1,34
 606 680 606 680 606 692.5 c 128,-1,35
 606 705 606 705 630 705 c 1,36,37
 685 701 l 1,38,-1
 789 705 l 2,39,40
 796 705 796 705 801.5 701 c 128,-1,41
 807 697 807 697 807 691 c 128,-1,42
 807 685 807 685 795 681.5 c 0,43,44
 753.773139746 669.475499093 753.773139746 669.475499093 743 631 c 0,45,46
 741 624 741 624 728.5 528 c 0,47,48
 692.060606061 248.145454545 692.060606061 248.145454545 657 164 c 0,49,50
 635 111 635 111 604 80.5 c 128,-1,51
 573 50 573 50 515 15 c 0,52,53
 491 1 491 1 442.5 -9 c 128,-1,54
 394 -19 394 -19 364 -19 c 0,55,56
 277 -19 277 -19 226 -2 c 128,-1,57
 175 15 175 15 143 47.5 c 128,-1,58
 111 80 111 80 102.5 115 c 128,-1,59
 94 150 94 150 94 215 c 1,0,-1
EndSplineSet
Position2: "'cpsp' Capital Spacing in Latin lookup 0 subtable" dx=20 dy=0 dh=40 dv=0
EndChar

StartChar: V
Encoding: 86 86 57
Width: 780
GlyphClass: 2
Flags: HW
LayerCount: 2
Fore
SplineSet
675 702 m 1,0,-1
 726 704 l 1,1,2
 760 704 760 704 760 693 c 0,3,4
 760 679.666666667 760 679.666666667 746 678.5 c 0,5,6
 727.720930233 676.976744186 727.720930233 676.976744186 708.360465116 660.988372093 c 128,-1,7
 689 645 689 645 659 590.5 c 128,-1,8
 629 536 629 536 587.5 452.5 c 128,-1,9
 546 369 546 369 523 330.5 c 128,-1,10
 500 292 500 292 471.5 242.5 c 128,-1,11
 443 193 443 193 422.5 158 c 128,-1,12
 402 123 402 123 379 84.5 c 0,13,14
 332.303030303 6.33333333333 332.303030303 6.33333333333 312 -16 c 0,15,16
 307 -21 307 -21 301 -21 c 0,17,18
 288 -21 288 -21 276 26 c 0,19,20
 273 34 273 34 272 39 c 2,21,-1
 135 535 l 2,22,23
 125 573 125 573 119.5 589.5 c 128,-1,24
 114 606 114 606 101.5 628 c 128,-1,25
 89 650 89 650 76.5 657.5 c 128,-1,26
 64 665 64 665 53.5 667.5 c 128,-1,27
 43 670 43 670 36 670.5 c 0,28,29
 20 671.642857143 20 671.642857143 20 690 c 0,30,31
 20 705 20 705 56 705 c 1,32,-1
 136 701 l 1,33,-1
 214 705 l 1,34,35
 250 705 250 705 250 692 c 0,36,37
 250 682 250 682 236.5 679.5 c 128,-1,38
 223 677 223 677 209.5 665.5 c 128,-1,39
 196 654 196 654 196 627 c 128,-1,40
 196 600 196 600 265.5 353.5 c 128,-1,41
 335 107 335 107 346 107 c 0,42,43
 355 107 355 107 489.5 357.5 c 128,-1,44
 624 608 624 608 624 638 c 0,45,46
 624 654 624 654 611.5 662.5 c 128,-1,47
 599 671 599 671 584.5 672.5 c 0,48,49
 545 676.586206897 545 676.586206897 545 693 c 0,50,51
 545 701 545 701 548.5 704 c 128,-1,52
 552 707 552 707 565 707 c 2,53,-1
 675 702 l 1,0,-1
EndSplineSet
Position2: "'cpsp' Capital Spacing in Latin lookup 0 subtable" dx=20 dy=0 dh=40 dv=0
EndChar

StartChar: W
Encoding: 87 87 58
Width: 1053
GlyphClass: 2
Flags: HW
LayerCount: 2
Fore
SplineSet
933 706 m 1,0,-1
 999 710 l 1,1,2
 1033 710 1033 710 1033 695 c 0,3,4
 1033 681.733333333 1033 681.733333333 1014.5 680.5 c 0,5,6
 991.727272727 678.981818182 991.727272727 678.981818182 972.363636364 662.990909091 c 128,-1,7
 953 647 953 647 923 592 c 128,-1,8
 893 537 893 537 851.5 453 c 128,-1,9
 810 369 810 369 782 322 c 128,-1,10
 754 275 754 275 711 198 c 0,11,12
 615.317880795 26.6622516556 615.317880795 26.6622516556 586 -15 c 0,13,14
 580 -25 580 -25 569.5 -25 c 128,-1,15
 559 -25 559 -25 555.5 -22.5 c 128,-1,16
 552 -20 552 -20 550 -14 c 128,-1,17
 548 -8 548 -8 546.5 -1.5 c 128,-1,18
 545 5 545 5 542.5 17 c 128,-1,19
 540 29 540 29 537 39 c 2,20,-1
 478 263 l 2,21,22
 473 283 473 283 470.5 283 c 128,-1,23
 468 283 468 283 427 214 c 0,24,25
 298.802816901 -1.74647887324 298.802816901 -1.74647887324 289 -14 c 1,26,27
 282 -21 282 -21 275.5 -21 c 128,-1,28
 269 -21 269 -21 264 -10.5 c 0,29,30
 257.538461538 3.06923076923 257.538461538 3.06923076923 188.269230769 283.534615385 c 128,-1,31
 119 564 119 564 105 609 c 128,-1,32
 91 654 91 654 73 665 c 0,33,34
 70 666 70 666 64.5 669.5 c 128,-1,35
 59 673 59 673 45 678 c 128,-1,36
 31 683 31 683 25.5 687 c 128,-1,37
 20 691 20 691 20 700.5 c 128,-1,38
 20 710 20 710 40 710 c 0,39,40
 43 710 43 710 74 706.5 c 128,-1,41
 105 703 105 703 132 703 c 1,42,-1
 211 707 l 1,43,44
 239 707 239 707 239 695 c 0,45,46
 239 684.6875 239 684.6875 225.5 683.84375 c 0,47,48
 198.133333333 682.133333333 198.133333333 682.133333333 187.566666667 671.566666667 c 128,-1,49
 177 661 177 661 177 633 c 128,-1,50
 177 605 177 605 241.5 354 c 128,-1,51
 306 103 306 103 317 103 c 0,52,53
 319 103 319 103 352.5 155.5 c 128,-1,54
 386 208 386 208 418.5 265.5 c 128,-1,55
 451 323 451 323 451 334.5 c 128,-1,56
 451 346 451 346 446 366 c 2,57,-1
 403 536 l 2,58,59
 401 542 401 542 396 562.5 c 128,-1,60
 391 583 391 583 389 590.5 c 128,-1,61
 387 598 387 598 382 614 c 128,-1,62
 377 630 377 630 372.5 637.5 c 0,63,64
 358.76 660.4 358.76 660.4 346.38 668.2 c 128,-1,65
 334 676 334 676 320.5 680 c 128,-1,66
 307 684 307 684 300.5 687.5 c 128,-1,67
 294 691 294 691 294 698 c 0,68,69
 294 708 294 708 323 708 c 1,70,-1
 400 703 l 1,71,-1
 479 707 l 1,72,73
 510 707 510 707 510 695 c 0,74,75
 510 681.80952381 510 681.80952381 482.5 680.5 c 0,76,77
 472 680 472 680 463.5 670.5 c 128,-1,78
 455 661 455 661 455 646 c 128,-1,79
 455 631 455 631 480.5 533.5 c 128,-1,80
 506 436 506 436 510 436 c 0,81,82
 521 436 521 436 566.5 532 c 128,-1,83
 612 628 612 628 612 645 c 128,-1,84
 612 662 612 662 595 671 c 128,-1,85
 578 680 578 680 561.5 684.5 c 128,-1,86
 545 689 545 689 545 698.5 c 128,-1,87
 545 708 545 708 571 708 c 2,88,-1
 649 705 l 1,89,-1
 713 708 l 1,90,91
 743 708 743 708 743 694.5 c 128,-1,92
 743 681 743 681 729.5 681 c 0,93,94
 711.75 681 711.75 681 699.875 671 c 128,-1,95
 688 661 688 661 682 655 c 128,-1,96
 676 649 676 649 669 638 c 128,-1,97
 662 627 662 627 657.5 620 c 128,-1,98
 653 613 653 613 644 597 c 128,-1,99
 635 581 635 581 631 574 c 128,-1,100
 627 567 627 567 616.5 547 c 128,-1,101
 606 527 606 527 599 515 c 128,-1,102
 592 503 592 503 582 484.5 c 128,-1,103
 572 466 572 466 565.5 454 c 128,-1,104
 559 442 559 442 552.5 431 c 128,-1,105
 546 420 546 420 542.5 413.5 c 128,-1,106
 539 407 539 407 535.5 401 c 128,-1,107
 532 395 532 395 530.5 391.5 c 128,-1,108
 529 388 529 388 528 385.5 c 128,-1,109
 527 383 527 383 526.5 380.5 c 128,-1,110
 526 378 526 378 526 376 c 2,111,-1
 526 371 l 2,112,113
 526 353 526 353 564 227 c 128,-1,114
 602 101 602 101 609.5 101 c 128,-1,115
 617 101 617 101 753.5 357.5 c 128,-1,116
 890 614 890 614 890 643 c 0,117,118
 890 661 890 661 878.5 669.5 c 128,-1,119
 867 678 867 678 853 679 c 0,120,121
 816 681.642857143 816 681.642857143 816 697 c 0,122,123
 816 710 816 710 837 710 c 2,124,-1
 933 706 l 1,0,-1
EndSplineSet
Position2: "'cpsp' Capital Spacing in Latin lookup 0 subtable" dx=20 dy=0 dh=40 dv=0
EndChar

StartChar: X
Encoding: 88 88 59
Width: 737
GlyphClass: 2
Flags: HW
LayerCount: 2
Fore
SplineSet
128 3 m 1,0,-1
 48 -7 l 1,1,2
 20 -7 20 -7 20 10 c 0,3,4
 20 20 20 20 26 24 c 128,-1,5
 32 28 32 28 43 29.5 c 128,-1,6
 54 31 54 31 77 45 c 128,-1,7
 100 59 100 59 120 79 c 128,-1,8
 140 99 140 99 159 121 c 128,-1,9
 178 143 178 143 191 159.5 c 0,10,11
 258 244.538461538 258 244.538461538 301.5 299.269230769 c 128,-1,12
 345 354 345 354 345 356.5 c 128,-1,13
 345 359 345 359 338.5 374.5 c 128,-1,14
 332 390 332 390 319.5 420.5 c 128,-1,15
 307 451 307 451 287.5 499.5 c 128,-1,16
 268 548 268 548 235.5 597.5 c 128,-1,17
 203 647 203 647 178 653 c 1,18,19
 154 661 154 661 141 661 c 0,20,21
 104 661 104 661 82.5 635 c 128,-1,22
 61 609 61 609 61 574.5 c 128,-1,23
 61 540 61 540 86 525 c 0,24,25
 89 523 89 523 94.5 521.5 c 128,-1,26
 100 520 100 520 103.5 518.5 c 0,27,28
 113 514.428571429 113 514.428571429 113 500 c 0,29,30
 113 481 113 481 86 481 c 128,-1,31
 59 481 59 481 41.5 515 c 128,-1,32
 24 549 24 549 24 588.5 c 128,-1,33
 24 628 24 628 38.5 655 c 128,-1,34
 53 682 53 682 76 695 c 0,35,36
 118.461538462 719 118.461538462 719 158 719 c 0,37,38
 223 719 223 719 260.5 685 c 0,39,40
 317.171695008 633.617663193 317.171695008 633.617663193 370 494 c 0,41,42
 384 457 384 457 389 443.5 c 128,-1,43
 394 430 394 430 398 430 c 128,-1,44
 402 430 402 430 417 450 c 2,45,-1
 482 537 l 2,46,47
 554 632 554 632 554 657 c 0,48,49
 554 681.652173913 554 681.652173913 524.5 685.5 c 128,-1,50
 495 689.347826087 495 689.347826087 495 701 c 0,51,52
 495 716 495 716 512 716 c 2,53,-1
 593 713 l 1,54,-1
 676 716 l 1,55,56
 707 716 707 716 707 698 c 0,57,58
 707 687 707 687 693 684 c 0,59,60
 656 678 656 678 628.5 652.5 c 128,-1,61
 601 627 601 627 529.5 535.5 c 128,-1,62
 458 444 458 444 438 419.5 c 0,63,64
 416 392.55 416 392.55 416 390 c 0,65,66
 416 378 416 378 458.5 284 c 128,-1,67
 501 190 501 190 527.5 143 c 128,-1,68
 554 96 554 96 567 79.5 c 128,-1,69
 580 63 580 63 605 48 c 128,-1,70
 630 33 630 33 654 33 c 128,-1,71
 678 33 678 33 693 40.5 c 128,-1,72
 708 48 708 48 717.5 48 c 128,-1,73
 727 48 727 48 727 37 c 0,74,75
 727 18 727 18 696 5.5 c 128,-1,76
 665 -7 665 -7 618.5 -7 c 128,-1,77
 572 -7 572 -7 540.5 5 c 128,-1,78
 509 17 509 17 493 38 c 0,79,80
 469.350262697 69.0402802102 469.350262697 69.0402802102 390 259 c 0,81,82
 367 313 367 313 362.5 313 c 128,-1,83
 358 313 358 313 333 280 c 2,84,-1
 240 156 l 1,85,86
 188 85 188 85 188 60 c 0,87,88
 188 32 188 32 248 27 c 1,89,90
 265 27 265 27 265 12.5 c 128,-1,91
 265 -2 265 -2 237 -2 c 1,92,-1
 128 3 l 1,0,-1
EndSplineSet
Position2: "'cpsp' Capital Spacing in Latin lookup 0 subtable" dx=20 dy=0 dh=40 dv=0
EndChar

StartChar: Y
Encoding: 89 89 60
Width: 690
GlyphClass: 2
Flags: HW
LayerCount: 2
Fore
SplineSet
413 -6 m 2,0,-1
 300 1 l 1,1,2
 274 1 274 1 249.5 -3 c 128,-1,3
 225 -7 225 -7 216 -7 c 0,4,5
 189 -7 189 -7 189 6 c 0,6,7
 189 20.3333333333 189 20.3333333333 214 24.5 c 0,8,9
 223 26 223 26 227 27 c 0,10,11
 241 31 241 31 247 44.5 c 128,-1,12
 253 58 253 58 268.5 165.5 c 128,-1,13
 284 273 284 273 284 290.5 c 128,-1,14
 284 308 284 308 282.5 314.5 c 128,-1,15
 281 321 281 321 276.5 332.5 c 128,-1,16
 272 344 272 344 267 355 c 128,-1,17
 262 366 262 366 250 388.5 c 128,-1,18
 238 411 238 411 227 432 c 128,-1,19
 216 453 216 453 195.5 492.5 c 128,-1,20
 175 532 175 532 155 570 c 0,21,22
 105 668 105 668 67 680 c 0,23,24
 64 681 64 681 50.5 681.5 c 0,25,26
 20 682.62962963 20 682.62962963 20 700 c 0,27,28
 20 714 20 714 53 714 c 1,29,-1
 146 710 l 1,30,-1
 235 714 l 1,31,32
 265 714 265 714 265 699 c 0,33,34
 265 689 265 689 240 680 c 128,-1,35
 215 671 215 671 215 657 c 0,36,37
 215 616 215 616 259 540 c 1,38,39
 275 510 275 510 296.5 463 c 0,40,41
 344.074468085 359 344.074468085 359 347.037234043 359 c 128,-1,42
 350 359 350 359 396 421 c 128,-1,43
 442 483 442 483 488 557 c 128,-1,44
 534 631 534 631 534 649.5 c 128,-1,45
 534 668 534 668 523 674 c 128,-1,46
 512 680 512 680 498.5 679.5 c 0,47,48
 463 678.185185185 463 678.185185185 463 698 c 0,49,50
 463 712 463 712 489 712 c 2,51,-1
 542 710 l 1,52,-1
 645 713 l 2,53,54
 671 713 671 713 671 698 c 0,55,56
 671 692 671 692 660 687 c 128,-1,57
 649 682 649 682 632.5 675.5 c 128,-1,58
 616 669 616 669 600 652 c 128,-1,59
 584 635 584 635 498 509 c 128,-1,60
 412 383 412 383 394 362.5 c 128,-1,61
 376 342 376 342 367.5 321 c 128,-1,62
 359 300 359 300 353 248 c 0,63,64
 337 95 337 95 337 77 c 128,-1,65
 337 59 337 59 353.5 45 c 128,-1,66
 370 31 370 31 384 27 c 128,-1,67
 398 23 398 23 408 22.5 c 0,68,69
 432 21.3 432 21.3 432 8 c 0,70,71
 432 -1 432 -1 427 -3.5 c 128,-1,72
 422 -6 422 -6 413 -6 c 2,0,-1
EndSplineSet
Substitution2: "'salt' Stylistic Alternatives in Latin lookup 14 subtable" Y.001
AlternateSubs2: "'aalt' Access All Alternates in Latin lookup 1 subtable" Y.001
AlternateSubs2: "'aalt' Access All Alternates lookup 0 subtable" Y.001
Position2: "'cpsp' Capital Spacing in Latin lookup 0 subtable" dx=20 dy=0 dh=40 dv=0
EndChar

StartChar: Z
Encoding: 90 90 61
Width: 587
GlyphClass: 2
Flags: HW
LayerCount: 2
Fore
SplineSet
155 -4 m 2,0,-1
 46 -9 l 1,1,2
 20 -9 20 -9 20 4 c 0,3,4
 20 16.3333333333 20 16.3333333333 39.5 40.1666666667 c 0,5,6
 79.7 89.3 79.7 89.3 112 133 c 0,7,8
 469 609 469 609 469 632 c 0,9,10
 469 636 469 636 436 636 c 2,11,-1
 383 635 l 1,12,-1
 271 645 l 1,13,14
 213 645 213 645 175.5 636.5 c 128,-1,15
 138 628 138 628 113.5 601.5 c 128,-1,16
 89 575 89 575 89 550.5 c 128,-1,17
 89 526 89 526 94.5 514 c 128,-1,18
 100 502 100 502 107 499.5 c 0,19,20
 125 493.071428571 125 493.071428571 125 480 c 0,21,22
 125 464 125 464 101 464 c 128,-1,23
 77 464 77 464 67 488.5 c 128,-1,24
 57 513 57 513 57 539.5 c 128,-1,25
 57 566 57 566 69.5 598 c 128,-1,26
 82 630 82 630 119 665.5 c 128,-1,27
 156 701 156 701 188.5 708 c 128,-1,28
 221 715 221 715 280 715 c 128,-1,29
 339 715 339 715 407 708 c 128,-1,30
 475 701 475 701 496 701 c 1,31,-1
 545 707 l 1,32,33
 560.142857143 707 560.142857143 707 563.571428571 703 c 128,-1,34
 567 699 567 699 567 689 c 128,-1,35
 567 679 567 679 349.5 384 c 128,-1,36
 132 89 132 89 132 79 c 0,37,38
 132 71 132 71 144.5 69.5 c 128,-1,39
 157 68 157 68 205 68 c 2,40,-1
 248 68 l 2,41,42
 304 68 304 68 362.5 65 c 128,-1,43
 421 62 421 62 435 62 c 0,44,45
 510 62 510 62 510 89 c 0,46,47
 510 95 510 95 496 100 c 128,-1,48
 482 105 482 105 468 114 c 128,-1,49
 454 123 454 123 454 141.5 c 128,-1,50
 454 160 454 160 469.5 172.5 c 128,-1,51
 485 185 485 185 505 185 c 128,-1,52
 525 185 525 185 536 167.5 c 128,-1,53
 547 150 547 150 547 136 c 0,54,55
 547 71 547 71 488 23 c 1,56,57
 473.5 8.5 473.5 8.5 459.25 3.75 c 128,-1,58
 445 -1 445 -1 433 -4 c 0,59,60
 409 -10 409 -10 342.5 -10 c 128,-1,61
 276 -10 276 -10 216.5 -7 c 128,-1,62
 157 -4 157 -4 155 -4 c 2,0,-1
EndSplineSet
Position2: "'cpsp' Capital Spacing in Latin lookup 0 subtable" dx=20 dy=0 dh=40 dv=0
EndChar

StartChar: bracketleft
Encoding: 91 91 62
Width: 266
GlyphClass: 2
Flags: HW
LayerCount: 2
Fore
SplineSet
113 -159 m 2,0,-1
 197 -158 l 2,1,2
 217 -158 217 -158 217 -174 c 0,3,4
 217 -194 217 -194 205.5 -199 c 128,-1,5
 194 -204 194 -204 165 -204 c 2,6,-1
 82 -204 l 2,7,8
 66 -204 66 -204 60.5 -199.5 c 128,-1,9
 55 -195 55 -195 55 -179 c 1,10,-1
 58 -143 l 1,11,-1
 64 -82 l 2,12,13
 72 -10 72 -10 99.5 227 c 128,-1,14
 127 464 127 464 135 539 c 128,-1,15
 143 614 143 614 146.5 652.5 c 128,-1,16
 150 691 150 691 151.5 712 c 128,-1,17
 153 733 153 733 154 743.5 c 128,-1,18
 155 754 155 754 165 758.5 c 128,-1,19
 175 763 175 763 203 763 c 2,20,-1
 243 763 l 1,21,-1
 297.5 764 l 1,22,-1
 304 764 l 2,23,24
 317 764 317 764 317 743.5 c 128,-1,25
 317 723 317 723 304 723 c 2,26,-1
 218 722 l 1,27,-1
 203 722 l 2,28,29
 196 722 196 722 190.5 664 c 128,-1,30
 185 606 185 606 179.5 555.5 c 128,-1,31
 174 505 174 505 153.5 323.5 c 0,32,33
 104 -114.756097561 104 -114.756097561 104 -136.87804878 c 128,-1,34
 104 -159 104 -159 113 -159 c 2,0,-1
EndSplineSet
Substitution2: "'case' Case-Sensitive Forms in Latin lookup 13 subtable" bracketleft.uppercase
Substitution2: "'subs' Subscript in Latin lookup 10 subtable" bracketleft.sub
Substitution2: "'sups' Superscript in Latin lookup 9 subtable" bracketleft.sup
AlternateSubs2: "'aalt' Access All Alternates in Latin lookup 1 subtable" bracketleft.uppercase bracketleft.sub bracketleft.sup
AlternateSubs2: "'aalt' Access All Alternates lookup 0 subtable" bracketleft.uppercase bracketleft.sub bracketleft.sup
EndChar

StartChar: backslash
Encoding: 92 92 63
Width: 416
GlyphClass: 2
Flags: HW
LayerCount: 2
Fore
SplineSet
20 723 m 0,0,1
 20 735 20 735 37.5 735 c 128,-1,2
 55 735 55 735 60.5 731.5 c 128,-1,3
 66 728 66 728 70 717 c 2,4,-1
 377 -113 l 2,5,6
 380 -121 380 -121 385 -134 c 0,7,8
 396 -162.6 396 -162.6 396 -167 c 0,9,10
 396 -183 396 -183 363 -183 c 0,11,12
 355 -183 355 -183 350.5 -177.5 c 128,-1,13
 346 -172 346 -172 338 -152 c 2,14,-1
 34 679 l 2,15,16
 20 715 20 715 20 723 c 0,0,1
EndSplineSet
EndChar

StartChar: bracketright
Encoding: 93 93 64
Width: 266
GlyphClass: 2
Flags: HW
LayerCount: 2
Fore
SplineSet
211 738 m 1,0,-1
 202 642 l 1,1,2
 194 570 194 570 166.5 333 c 128,-1,3
 139 96 139 96 131 21 c 128,-1,4
 123 -54 123 -54 119.5 -92.5 c 128,-1,5
 116 -131 116 -131 114.5 -152 c 128,-1,6
 113 -173 113 -173 112 -183.5 c 0,7,8
 110.047619048 -204 110.047619048 -204 63 -204 c 2,9,-1
 -38 -204 l 2,10,11
 -51 -204 -51 -204 -51 -183.5 c 128,-1,12
 -51 -163 -51 -163 -38 -163 c 2,13,-1
 63 -163 l 2,14,15
 70 -163 70 -163 75.5 -104.5 c 128,-1,16
 81 -46 81 -46 86.5 4.5 c 128,-1,17
 92 55 92 55 112.5 236.5 c 0,18,19
 162 674.756097561 162 674.756097561 162 696.37804878 c 128,-1,20
 162 718 162 718 153 718 c 2,21,-1
 69 718 l 2,22,23
 49 718 49 718 49 733 c 0,24,25
 49 762 49 762 67 762 c 0,26,27
 161 764 161 764 180.5 764 c 128,-1,28
 200 764 200 764 205.5 759 c 128,-1,29
 211 754 211 754 211 738 c 1,0,-1
EndSplineSet
Substitution2: "'case' Case-Sensitive Forms in Latin lookup 13 subtable" bracketright.uppercase
Substitution2: "'subs' Subscript in Latin lookup 10 subtable" bracketright.sub
Substitution2: "'sups' Superscript in Latin lookup 9 subtable" bracketright.sup
AlternateSubs2: "'aalt' Access All Alternates in Latin lookup 1 subtable" bracketright.uppercase bracketright.sub bracketright.sup
AlternateSubs2: "'aalt' Access All Alternates lookup 0 subtable" bracketright.uppercase bracketright.sub bracketright.sup
EndChar

StartChar: asciicircum
Encoding: 94 94 65
Width: 333
GlyphClass: 2
Flags: HW
LayerCount: 2
Fore
SplineSet
29 331 m 0,0,1
 29 336 29 336 42.5 358 c 128,-1,2
 56 380 56 380 88 434 c 128,-1,3
 120 488 120 488 133 504.5 c 128,-1,4
 146 521 146 521 162.5 521 c 128,-1,5
 179 521 179 521 191.5 504.5 c 128,-1,6
 204 488 204 488 235.5 434.5 c 128,-1,7
 267 381 267 381 280 360 c 128,-1,8
 293 339 293 339 293 329 c 0,9,10
 293 321 293 321 275 321 c 2,11,-1
 260 321 l 2,12,13
 249 321 249 321 245 327 c 2,14,-1
 239 336 l 2,15,16
 233 345 233 345 230 354 c 1,17,18
 219.5 372 219.5 372 209.75 391.5 c 128,-1,19
 200 411 200 411 194.5 420.5 c 128,-1,20
 189 430 189 430 186 436 c 128,-1,21
 183 442 183 442 179.5 448 c 128,-1,22
 176 454 176 454 173.5 457 c 128,-1,23
 171 460 171 460 169 463 c 128,-1,24
 167 466 167 466 165.5 467 c 128,-1,25
 164 468 164 468 162 468 c 128,-1,26
 160 468 160 468 157.5 466 c 128,-1,27
 155 464 155 464 152 459.5 c 128,-1,28
 149 455 149 455 145.5 449.5 c 128,-1,29
 142 444 142 444 136.5 433.5 c 128,-1,30
 131 423 131 423 125.5 413 c 128,-1,31
 120 403 120 403 111 386 c 128,-1,32
 102 369 102 369 97.5 360.5 c 128,-1,33
 93 352 93 352 90 346.5 c 128,-1,34
 87 341 87 341 86 339 c 128,-1,35
 85 337 85 337 82 332.5 c 128,-1,36
 79 328 79 328 76.5 326.5 c 0,37,38
 69 322 69 322 63 322 c 2,39,-1
 49 322 l 2,40,41
 29 322 29 322 29 331 c 0,0,1
EndSplineSet
EndChar

StartChar: underscore
Encoding: 95 95 66
Width: 213
GlyphClass: 2
Flags: HW
LayerCount: 2
Fore
SplineSet
3 -57 m 128,-1,1
 0 -52 0 -52 0 -41 c 128,-1,2
 0 -30 0 -30 1 -26.5 c 0,3,4
 3.71428571429 -17 3.71428571429 -17 19 -17 c 2,5,-1
 197 -17 l 2,6,7
 211.285714286 -17 211.285714286 -17 212.5 -25.5 c 0,8,9
 213 -29 213 -29 213 -40.5 c 128,-1,10
 213 -52 213 -52 210 -57 c 128,-1,11
 207 -62 207 -62 192 -62 c 2,12,-1
 18 -62 l 2,13,0
 6 -62 6 -62 3 -57 c 128,-1,1
EndSplineSet
EndChar

StartChar: a
Encoding: 97 97 68
Width: 518
GlyphClass: 2
Flags: HW
LayerCount: 2
Fore
SplineSet
53.5 19.5 m 128,-1,1
 32 54 32 54 32 120.5 c 128,-1,2
 32 187 32 187 90 279 c 128,-1,3
 148 371 148 371 223 407 c 0,4,5
 260 425 260 425 285.5 425 c 128,-1,6
 311 425 311 425 337.5 419.5 c 128,-1,7
 364 414 364 414 377.5 414 c 128,-1,8
 391 414 391 414 407 438.5 c 128,-1,9
 423 463 423 463 433.5 463 c 128,-1,10
 444 463 444 463 444 451 c 128,-1,11
 444 439 444 439 435.5 415 c 128,-1,12
 427 391 427 391 425 383 c 128,-1,13
 423 375 423 375 403 263.5 c 128,-1,14
 383 152 383 152 383 127 c 128,-1,15
 383 102 383 102 393 83 c 128,-1,16
 403 64 403 64 419 64 c 128,-1,17
 435 64 435 64 458.5 96.5 c 128,-1,18
 482 129 482 129 490.5 129 c 128,-1,19
 499 129 499 129 499 114.5 c 128,-1,20
 499 100 499 100 479.5 72 c 128,-1,21
 460 44 460 44 431.5 18.5 c 128,-1,22
 403 -7 403 -7 379.5 -7 c 128,-1,23
 356 -7 356 -7 342 21 c 128,-1,24
 328 49 328 49 325.5 77 c 128,-1,25
 323 105 323 105 322 105 c 128,-1,26
 321 105 321 105 310.5 92.5 c 128,-1,27
 300 80 300 80 282.5 62.5 c 128,-1,28
 265 45 265 45 243.5 27.5 c 0,29,30
 191.285714286 -15 191.285714286 -15 133.142857143 -15 c 128,-1,0
 75 -15 75 -15 53.5 19.5 c 128,-1,1
107 174 m 0,31,32
 102 144 102 144 102 114 c 128,-1,33
 102 84 102 84 124.5 62 c 128,-1,34
 147 40 147 40 186.5 40 c 128,-1,35
 226 40 226 40 260.5 71.5 c 128,-1,36
 295 103 295 103 307 127 c 128,-1,37
 319 151 319 151 331.5 210 c 0,38,39
 359 339.8 359 339.8 359 361.4 c 128,-1,40
 359 383 359 383 337 391.5 c 128,-1,41
 315 400 315 400 288 400 c 128,-1,42
 261 400 261 400 226 378 c 128,-1,43
 191 356 191 356 169 319 c 0,44,45
 117 233 117 233 107 174 c 0,31,32
EndSplineSet
EndChar

StartChar: b
Encoding: 98 98 69
Width: 471
GlyphClass: 2
Flags: HW
LayerCount: 2
Fore
SplineSet
116 709 m 1,0,-1
 75 707 l 2,1,2
 63 707 63 707 59.5 710.5 c 128,-1,3
 56 714 56 714 56 719.5 c 128,-1,4
 56 725 56 725 57.5 728 c 128,-1,5
 59 731 59 731 63 733.5 c 128,-1,6
 67 736 67 736 70.5 737.5 c 128,-1,7
 74 739 74 739 81.5 740 c 128,-1,8
 89 741 89 741 95 742 c 128,-1,9
 101 743 101 743 112 744 c 128,-1,10
 123 745 123 745 135 746.5 c 128,-1,11
 147 748 147 748 161.5 751 c 0,12,13
 190.5 757 190.5 757 193 757 c 0,14,15
 212 757 212 757 212 739 c 0,16,17
 212 737 212 737 180 565.5 c 128,-1,18
 148 394 148 394 148 365 c 128,-1,19
 148 336 148 336 152 336 c 128,-1,20
 156 336 156 336 177 359 c 128,-1,21
 198 382 198 382 238 405.5 c 128,-1,22
 278 429 278 429 330 429 c 128,-1,23
 382 429 382 429 410.5 392 c 128,-1,24
 439 355 439 355 439 302 c 0,25,26
 439 193 439 193 357.5 90 c 128,-1,27
 276 -13 276 -13 166 -13 c 0,28,29
 117 -13 117 -13 80.5 8.5 c 128,-1,30
 44 30 44 30 44 71 c 0,31,32
 44 118.6 44 118.6 53 166.3 c 0,33,34
 78.7272727273 302.654545455 78.7272727273 302.654545455 98.3636363636 428.327272727 c 128,-1,35
 118 554 118 554 129.5 610.5 c 128,-1,36
 141 667 141 667 141 697 c 0,37,38
 141 709 141 709 116 709 c 1,0,-1
110 83 m 0,39,40
 110 15 110 15 187 15 c 0,41,42
 253 15 253 15 311 100.5 c 128,-1,43
 369 186 369 186 369 274 c 0,44,45
 369 316 369 316 340.5 346 c 128,-1,46
 312 376 312 376 271 376 c 0,47,48
 254 376 254 376 235.5 371 c 128,-1,49
 217 366 217 366 191 342.5 c 128,-1,50
 165 319 165 319 151 281.5 c 128,-1,51
 137 244 137 244 127 196.5 c 0,52,53
 110 115.75 110 115.75 110 83 c 0,39,40
EndSplineSet
EndChar

StartChar: c
Encoding: 99 99 70
Width: 418
GlyphClass: 2
Flags: HW
LayerCount: 2
Fore
SplineSet
32 149 m 0,0,1
 32 256 32 256 107.5 346 c 128,-1,2
 183 436 183 436 286 436 c 0,3,4
 322.914285714 436 322.914285714 436 362 407.5 c 0,5,6
 386 390 386 390 386 369.5 c 128,-1,7
 386 349 386 349 376 337 c 128,-1,8
 366 325 366 325 352.5 325 c 128,-1,9
 339 325 339 325 325.5 336.5 c 128,-1,10
 312 348 312 348 302 361 c 128,-1,11
 292 374 292 374 273.5 385.5 c 128,-1,12
 255 397 255 397 239 397 c 0,13,14
 205.375 397 205.375 397 166 362 c 0,15,16
 136.823529412 335.741176471 136.823529412 335.741176471 118.411764706 287.870588235 c 128,-1,17
 100 240 100 240 100 199 c 0,18,19
 100 46 100 46 218 46 c 0,20,21
 254 46 254 46 283.5 59.5 c 128,-1,22
 313 73 313 73 329.5 86.5 c 128,-1,23
 346 100 346 100 352 100 c 0,24,25
 365 100 365 100 365 87 c 0,26,27
 365 78 365 78 344 55.5 c 128,-1,28
 323 33 323 33 278 10.5 c 128,-1,29
 233 -12 233 -12 183 -12 c 0,30,31
 32 -12 32 -12 32 149 c 0,0,1
EndSplineSet
EndChar

StartChar: d
Encoding: 100 100 71
Width: 495
GlyphClass: 2
Flags: HW
LayerCount: 2
Fore
SplineSet
347 711 m 2,0,-1
 318 710 l 1,1,-1
 312 710 l 2,2,3
 296 710 296 710 296 721 c 0,4,5
 296 729 296 729 304.5 732 c 128,-1,6
 313 735 313 735 331.5 737 c 128,-1,7
 350 739 350 739 361.5 742 c 128,-1,8
 373 745 373 745 385.5 748 c 128,-1,9
 398 751 398 751 402.5 752.5 c 128,-1,10
 407 754 407 754 413 755.5 c 128,-1,11
 419 757 419 757 423.5 757 c 2,12,-1
 436 757 l 2,13,14
 443 757 443 757 447.5 752 c 128,-1,15
 452 747 452 747 452 740 c 128,-1,16
 452 733 452 733 450.5 722 c 128,-1,17
 449 711 449 711 444.5 680.5 c 128,-1,18
 440 650 440 650 433.5 607.5 c 0,19,20
 413.767857143 478.482142857 413.767857143 478.482142857 389.383928571 303.241071429 c 128,-1,21
 365 128 365 128 365 104 c 0,22,23
 365 61 365 61 391 61 c 0,24,25
 422 61 422 61 456.5 107.5 c 0,26,27
 468 123 468 123 474 123 c 0,28,29
 485 123 485 123 485 114 c 0,30,31
 485 91 485 91 442.5 41.5 c 128,-1,32
 400 -8 400 -8 357 -8 c 0,33,34
 333 -8 333 -8 320 9.5 c 128,-1,35
 307 27 307 27 305 48 c 128,-1,36
 303 69 303 69 301.5 86.5 c 128,-1,37
 300 104 300 104 296 104 c 0,38,39
 294 104 294 104 281 86.5 c 128,-1,40
 268 69 268 69 250.5 48 c 128,-1,41
 233 27 233 27 202 9.5 c 128,-1,42
 171 -8 171 -8 137 -8 c 0,43,44
 76 -8 76 -8 46.5 28.5 c 128,-1,45
 17 65 17 65 17 125 c 0,46,47
 17 240 17 240 96 334.5 c 128,-1,48
 175 429 175 429 266 429 c 0,49,50
 279 429 279 429 302.5 422.5 c 128,-1,51
 326 416 326 416 340 416 c 0,52,53
 342 416 342 416 359 547.5 c 128,-1,54
 376 679 376 679 376 688 c 128,-1,55
 376 697 376 697 367.5 704 c 128,-1,56
 359 711 359 711 347 711 c 2,0,-1
111 265 m 128,-1,58
 87 206 87 206 87 156 c 0,59,60
 87 50 87 50 172 50 c 0,61,62
 232 50 232 50 273 102 c 0,63,64
 299 134 299 134 313.5 226 c 128,-1,65
 328 318 328 318 328 368 c 0,66,67
 328 387 328 387 306.5 397.5 c 128,-1,68
 285 408 285 408 261 408 c 0,69,70
 217 408 217 408 176 366 c 128,-1,57
 135 324 135 324 111 265 c 128,-1,58
EndSplineSet
EndChar

StartChar: e
Encoding: 101 101 72
Width: 402
GlyphClass: 2
Flags: HW
LayerCount: 2
Fore
SplineSet
66.5 30 m 128,-1,1
 32 72 32 72 32 141 c 128,-1,2
 32 210 32 210 62 272 c 128,-1,3
 92 334 92 334 146.5 385 c 128,-1,4
 201 436 201 436 284 436 c 0,5,6
 320 436 320 436 345.5 415 c 128,-1,7
 371 394 371 394 371 365.5 c 128,-1,8
 371 337 371 337 359 314.5 c 128,-1,9
 347 292 347 292 329 277 c 0,10,11
 296.692307692 250.076923077 296.692307692 250.076923077 274 241 c 0,12,13
 216 215 216 215 117 214 c 0,14,15
 100 214 100 214 100 164.5 c 128,-1,16
 100 115 100 115 136 81.5 c 128,-1,17
 172 48 172 48 244 48 c 0,18,19
 285.523809524 48 285.523809524 48 333.5 80.5 c 0,20,21
 349 91 349 91 352 91 c 0,22,23
 364 91 364 91 364 81 c 0,24,25
 364 60 364 60 306.5 24 c 128,-1,26
 249 -12 249 -12 190 -12 c 0,27,0
 101 -12 101 -12 66.5 30 c 128,-1,1
130.5 301 m 128,-1,29
 114 264 114 264 114 247.5 c 128,-1,30
 114 231 114 231 123 231 c 0,31,32
 194 231 194 231 248 271 c 128,-1,33
 302 311 302 311 302 359 c 0,34,35
 302 384 302 384 284.5 395 c 128,-1,36
 267 406 267 406 249 406 c 0,37,38
 212 406 212 406 167 359 c 0,39,28
 147 338 147 338 130.5 301 c 128,-1,29
EndSplineSet
EndChar

StartChar: f
Encoding: 102 102 73
Width: 302
GlyphClass: 2
Flags: HW
LayerCount: 2
Fore
SplineSet
277 373 m 2,0,-1
 193 375 l 2,1,2
 180.333333333 375 180.333333333 375 178.666666667 370 c 128,-1,3
 177 365 177 365 176.5 363.5 c 0,4,5
 175 359 175 359 175 353 c 128,-1,6
 175 347 175 347 165 244 c 128,-1,7
 155 141 155 141 144 50.5 c 128,-1,8
 133 -40 133 -40 117 -78 c 128,-1,9
 101 -116 101 -116 73 -142 c 128,-1,10
 45 -168 45 -168 26.5 -174 c 128,-1,11
 8 -180 8 -180 -6.5 -180 c 128,-1,12
 -21 -180 -21 -180 -32 -173.5 c 128,-1,13
 -43 -167 -43 -167 -43 -155 c 128,-1,14
 -43 -143 -43 -143 -35 -115.5 c 128,-1,15
 -27 -88 -27 -88 -14.5 -88 c 128,-1,16
 -2 -88 -2 -88 0 -103 c 128,-1,17
 2 -118 2 -118 12.5 -128 c 128,-1,18
 23 -138 23 -138 30.5 -138 c 128,-1,19
 38 -138 38 -138 44.5 -126 c 128,-1,20
 51 -114 51 -114 55.5 -90 c 128,-1,21
 60 -66 60 -66 63 -42.5 c 128,-1,22
 66 -19 66 -19 69.5 16.5 c 128,-1,23
 73 52 73 52 94.5 205.5 c 128,-1,24
 116 359 116 359 116 361 c 0,25,26
 116 374 116 374 106 374 c 2,27,-1
 45 374 l 2,28,29
 30 374 30 374 25 378 c 128,-1,30
 20 382 20 382 20 394.5 c 128,-1,31
 20 407 20 407 24.5 412 c 128,-1,32
 29 417 29 417 46 417 c 0,33,34
 96 415 96 415 118 415 c 0,35,36
 124 415 124 415 125 422 c 0,37,38
 148 580 148 580 211 670 c 0,39,40
 268 750 268 750 337 750 c 0,41,42
 384 750 384 750 384 713 c 0,43,44
 384 699 384 699 380 677.5 c 128,-1,45
 376 656 376 656 368 656 c 128,-1,46
 360 656 360 656 335 676.5 c 128,-1,47
 310 697 310 697 284 697 c 0,48,49
 251 697 251 697 218 577 c 128,-1,50
 185 457 185 457 185 425 c 0,51,52
 185 415 185 415 197 415 c 2,53,-1
 278 417 l 2,54,55
 297 417 297 417 297 400 c 0,56,57
 297 373 297 373 277 373 c 2,0,-1
EndSplineSet
EndChar

StartChar: g
Encoding: 103 103 74
Width: 435
GlyphClass: 2
Flags: HW
LayerCount: 2
Fore
SplineSet
38 15.5 m 0,0,1
 52 21 52 21 62 24 c 128,-1,2
 72 27 72 27 72 28.5 c 128,-1,3
 72 30 72 30 69 34.5 c 0,4,5
 60 48 60 48 60 70.5 c 128,-1,6
 60 93 60 93 70 108 c 128,-1,7
 80 123 80 123 89.5 130.5 c 128,-1,8
 99 138 99 138 99 140 c 128,-1,9
 99 142 99 142 88.5 151.5 c 128,-1,10
 78 161 78 161 67 190 c 128,-1,11
 56 219 56 219 56 269.5 c 128,-1,12
 56 320 56 320 97.5 373.5 c 128,-1,13
 139 427 139 427 205 427 c 0,14,15
 228 427 228 427 265 414 c 128,-1,16
 302 401 302 401 316 401 c 128,-1,17
 330 401 330 401 355 412 c 128,-1,18
 380 423 380 423 388.5 423 c 128,-1,19
 397 423 397 423 406.5 417 c 128,-1,20
 416 411 416 411 416 399 c 128,-1,21
 416 387 416 387 406 376.5 c 128,-1,22
 396 366 396 366 380 366 c 128,-1,23
 364 366 364 366 346 370 c 128,-1,24
 328 374 328 374 326 374 c 0,25,26
 314 374 314 374 314 365 c 0,27,28
 314 363 314 363 318.5 352.5 c 0,29,30
 332 321 332 321 332 287 c 0,31,32
 332 231 332 231 291.5 173 c 128,-1,33
 251 115 251 115 189 115 c 0,34,35
 162 115 162 115 139 121.5 c 128,-1,36
 116 128 116 128 113.5 128 c 128,-1,37
 111 128 111 128 108.5 125.5 c 0,38,39
 100 117 100 117 100 91.5 c 128,-1,40
 100 66 100 66 140 47 c 128,-1,41
 180 28 180 28 227.5 17.5 c 128,-1,42
 275 7 275 7 315 -19.5 c 128,-1,43
 355 -46 355 -46 355 -87 c 0,44,45
 355 -147 355 -147 309.5 -171 c 128,-1,46
 264 -195 264 -195 179.5 -195 c 128,-1,47
 95 -195 95 -195 35.5 -164.5 c 128,-1,48
 -24 -134 -24 -134 -24 -71.4285714286 c 128,-1,49
 -24 -8.85714285714 -24 -8.85714285714 38 15.5 c 0,0,1
31 -61 m 0,50,51
 31 -114 31 -114 76.5 -142 c 128,-1,52
 122 -170 122 -170 179 -170 c 0,53,54
 291 -170 291 -170 291 -105 c 0,55,56
 291 -88 291 -88 255.5 -67.5 c 128,-1,57
 220 -47 220 -47 162 -23.5 c 0,58,59
 90.5507246377 5.44927536232 90.5507246377 5.44927536232 82 14 c 1,60,61
 69 14 69 14 50 -10 c 128,-1,62
 31 -34 31 -34 31 -61 c 0,50,51
142.5 360.5 m 128,-1,64
 116 320 116 320 116 257.5 c 128,-1,65
 116 195 116 195 135.5 166.5 c 128,-1,66
 155 138 155 138 187 138 c 128,-1,67
 219 138 219 138 246.5 177.5 c 128,-1,68
 274 217 274 217 274 278 c 128,-1,69
 274 339 274 339 253.5 370 c 128,-1,70
 233 401 233 401 201 401 c 128,-1,63
 169 401 169 401 142.5 360.5 c 128,-1,64
EndSplineSet
EndChar

StartChar: h
Encoding: 104 104 75
Width: 485
GlyphClass: 2
Flags: HW
LayerCount: 2
Fore
SplineSet
101 705 m 2,0,-1
 60 704 l 2,1,2
 47 704 47 704 47 715.5 c 128,-1,3
 47 727 47 727 89.5 730.5 c 128,-1,4
 132 734 132 734 159 740.5 c 128,-1,5
 186 747 186 747 193 747 c 0,6,7
 205 747 205 747 205 734 c 0,8,9
 205 732 205 732 175 568.5 c 128,-1,10
 145 405 145 405 145 351 c 0,11,12
 145 340 145 340 148.5 340 c 128,-1,13
 152 340 152 340 165 353.5 c 128,-1,14
 178 367 178 367 194.5 382.5 c 128,-1,15
 211 398 211 398 238.5 411.5 c 128,-1,16
 266 425 266 425 294 425 c 0,17,18
 383 425 383 425 383 312 c 0,19,20
 383 282 383 282 371 207 c 128,-1,21
 359 132 359 132 359 110 c 0,22,23
 359 64 359 64 383 64 c 0,24,25
 396 64 396 64 415 75.5 c 128,-1,26
 434 87 434 87 442.5 97.5 c 128,-1,27
 451 108 451 108 457 115.5 c 128,-1,28
 463 123 463 123 466 123 c 0,29,30
 476 123 476 123 476 115 c 0,31,32
 476 81 476 81 428 39 c 128,-1,33
 380 -3 380 -3 346 -3 c 0,34,35
 297 -3 297 -3 297 90 c 0,36,37
 297 121 297 121 306 192.5 c 128,-1,38
 315 264 315 264 315 294 c 0,39,40
 315 372 315 372 258 372 c 0,41,42
 224 372 224 372 190.5 352 c 0,43,44
 139.82090229 321.743822263 139.82090229 321.743822263 124 225.5 c 0,45,46
 118 189 118 189 110.5 123 c 128,-1,47
 103 57 103 57 99.5 34 c 128,-1,48
 96 11 96 11 87.5 5 c 128,-1,49
 79 -1 79 -1 62 -1 c 0,50,51
 29 -1 29 -1 29 23 c 0,52,53
 29 36.9333333333 29 36.9333333333 42 111.466666667 c 128,-1,54
 55 186 55 186 58 205.5 c 128,-1,55
 61 225 61 225 80 353 c 128,-1,56
 99 481 99 481 114 580 c 128,-1,57
 129 679 129 679 129 682 c 0,58,59
 129 705 129 705 101 705 c 2,0,-1
EndSplineSet
EndChar

StartChar: k
Encoding: 107 107 78
Width: 452
GlyphClass: 2
Flags: HW
LayerCount: 2
Fore
SplineSet
116 176.5 m 2,0,-1
 96 29 l 1,1,2
 93 -1 93 -1 61 -1 c 128,-1,3
 29 -1 29 -1 29 23 c 0,4,5
 29 44 29 44 56 206 c 1,6,-1
 76 339 l 2,7,8
 90 436 90 436 100.5 517.5 c 128,-1,9
 111 599 111 599 118.5 641.5 c 128,-1,10
 126 684 126 684 126 686 c 0,11,12
 126 705 126 705 101 705 c 1,13,-1
 60 707 l 2,14,15
 45 707 45 707 45 719 c 0,16,17
 45 734 45 734 60 734 c 0,18,19
 107 736 107 736 140.5 742.5 c 128,-1,20
 174 749 174 749 182 749 c 0,21,22
 200 749 200 749 200 734 c 0,23,24
 200 730 200 730 193 688 c 2,25,-1
 184 630 l 1,26,27
 162 501 162 501 144 363 c 2,28,-1
 135 294 l 2,29,30
 135 291 135 291 132.5 280 c 0,31,32
 126 251.4 126 251.4 126 238.7 c 128,-1,33
 126 226 126 226 126.5 222.5 c 0,34,35
 127.571428571 215 127.571428571 215 136.785714286 215 c 128,-1,36
 146 215 146 215 207 263 c 128,-1,37
 268 311 268 311 290 347 c 0,38,39
 296 358 296 358 305 383.5 c 128,-1,40
 314 409 314 409 325 421 c 128,-1,41
 336 433 336 433 354 433 c 0,42,43
 389 433 389 433 389 396 c 0,44,45
 389 370 389 370 350.5 336 c 128,-1,46
 312 302 312 302 273.5 278.5 c 128,-1,47
 235 255 235 255 235 254 c 2,48,-1
 285 164 l 2,49,50
 289 157 289 157 296 144 c 128,-1,51
 303 131 303 131 307.5 123.5 c 2,52,-1
 318 106 l 2,53,54
 336.84 74.6 336.84 74.6 342.92 70.8 c 128,-1,55
 349 67 349 67 353 67 c 0,56,57
 373 67 373 67 396 95 c 128,-1,58
 419 123 419 123 423 123 c 0,59,60
 432 123 432 123 432 100 c 128,-1,61
 432 77 432 77 397 37 c 128,-1,62
 362 -3 362 -3 339 -3 c 128,-1,63
 316 -3 316 -3 291.5 31.5 c 128,-1,64
 267 66 267 66 247.5 107.5 c 0,65,66
 195.578313253 218 195.578313253 218 179 218 c 1,67,-1
 155 205 l 1,68,69
 140 195 140 195 134 193 c 128,-1,70
 128 191 128 191 124 188 c 128,-1,71
 120 185 120 185 119.5 185 c 128,-1,72
 119 185 119 185 117.5 181 c 128,-1,73
 116 177 116 177 116 176.5 c 2,0,-1
EndSplineSet
EndChar

StartChar: l
Encoding: 108 108 79
Width: 261
GlyphClass: 2
Flags: HW
LayerCount: 2
Fore
SplineSet
105 705 m 2,0,-1
 76 704 l 2,1,2
 47 704 47 704 47 717.5 c 128,-1,3
 47 731 47 731 62 732 c 0,4,5
 102 735 102 735 137 741 c 128,-1,6
 172 747 172 747 183 747 c 0,7,8
 204 747 204 747 204 731 c 0,9,10
 204 723 204 723 199.5 708 c 128,-1,11
 195 693 195 693 186.5 646.5 c 128,-1,12
 178 600 178 600 172 556.5 c 128,-1,13
 166 513 166 513 160.5 455.5 c 128,-1,14
 155 398 155 398 134 255 c 128,-1,15
 113 112 113 112 113 92.5 c 128,-1,16
 113 73 113 73 116 66 c 128,-1,17
 119 59 119 59 133.5 59 c 128,-1,18
 148 59 148 59 163 70 c 128,-1,19
 178 81 178 81 185.5 94.5 c 0,20,21
 205.222222222 130 205.222222222 130 220 130 c 0,22,23
 232 130 232 130 232 115 c 128,-1,24
 232 100 232 100 182 42 c 0,25,26
 164 21 164 21 137.5 6.5 c 128,-1,27
 111 -8 111 -8 97.5 -8 c 128,-1,28
 84 -8 84 -8 78 -6 c 128,-1,29
 72 -4 72 -4 63.5 3.5 c 0,30,31
 46 18.9411764706 46 18.9411764706 46 86 c 0,32,33
 46 129.4 46 129.4 60 202.2 c 128,-1,34
 74 275 74 275 76 290 c 128,-1,35
 78 305 78 305 85.5 373 c 128,-1,36
 93 441 93 441 111.5 559.5 c 128,-1,37
 130 678 130 678 130 685 c 0,38,39
 130 705 130 705 105 705 c 2,0,-1
EndSplineSet
EndChar

StartChar: m
Encoding: 109 109 80
Width: 762
GlyphClass: 2
Flags: HW
LayerCount: 2
Fore
SplineSet
36 298 m 0,0,1
 24 298 24 298 24 322.5 c 128,-1,2
 24 347 24 347 58.5 390 c 128,-1,3
 93 433 93 433 116.5 433 c 128,-1,4
 140 433 140 433 151 417 c 128,-1,5
 162 401 162 401 164 381.5 c 0,6,7
 169.282051282 330 169.282051282 330 172.641025641 330 c 128,-1,8
 176 330 176 330 180.5 336 c 128,-1,9
 185 342 185 342 194 352.5 c 128,-1,10
 203 363 203 363 215.5 374.5 c 0,11,12
 247.36997319 403.820375335 247.36997319 403.820375335 287.684986595 417.910187668 c 128,-1,13
 328 432 328 432 355 432 c 0,14,15
 414 432 414 432 414 358 c 2,16,-1
 414 337 l 2,17,18
 414 329 414 329 416.5 329 c 128,-1,19
 419 329 419 329 423 334.5 c 2,20,-1
 435 351 l 2,21,22
 443 362 443 362 453 371 c 0,23,24
 517 433 517 433 577 433 c 0,25,26
 604 433 604 433 622.5 419 c 128,-1,27
 641 405 641 405 648 384 c 0,28,29
 659 351 659 351 659 327 c 128,-1,30
 659 303 659 303 649 207.5 c 128,-1,31
 639 112 639 112 639 97 c 0,32,33
 639 62 639 62 659 62 c 0,34,35
 674 62 674 62 695 80 c 1,36,-1
 702 85 l 1,37,38
 708 93 708 93 713 100.5 c 0,39,40
 721.333333333 113 721.333333333 113 732 113 c 0,41,42
 742 113 742 113 742 101 c 0,43,44
 742 72 742 72 693 34.5 c 128,-1,45
 644 -3 644 -3 610 -3 c 0,46,47
 595 -3 595 -3 584 15.5 c 128,-1,48
 573 34 573 34 573 49 c 128,-1,49
 573 64 573 64 584 168 c 128,-1,50
 595 272 595 272 595 308 c 128,-1,51
 595 344 595 344 577.5 364.5 c 128,-1,52
 560 385 560 385 535.5 385 c 128,-1,53
 511 385 511 385 483 356.5 c 128,-1,54
 455 328 455 328 442.5 304.5 c 128,-1,55
 430 281 430 281 425.5 264 c 128,-1,56
 421 247 421 247 416 207 c 128,-1,57
 411 167 411 167 404.5 96.5 c 128,-1,58
 398 26 398 26 398 21 c 0,59,60
 396 -6 396 -6 357 -6 c 0,61,62
 329 -6 329 -6 329 26 c 0,63,64
 329 30 329 30 347 143.5 c 128,-1,65
 365 257 365 257 365 313 c 0,66,67
 365 327.75 365 327.75 356.5 346.875 c 0,68,69
 340 384 340 384 294 384 c 0,70,71
 269.935483871 384 269.935483871 384 244.967741935 362.5 c 0,72,73
 197.281782438 321.437090433 197.281782438 321.437090433 177 218 c 0,74,75
 168 173 168 173 160.5 100 c 128,-1,76
 153 27 153 27 151.5 17.5 c 128,-1,77
 150 8 150 8 138.5 1.5 c 128,-1,78
 127 -5 127 -5 113 -5 c 0,79,80
 78 -5 78 -5 78 29 c 0,81,82
 78 46 78 46 100.5 155 c 128,-1,83
 123 264 123 264 123 298.5 c 0,84,85
 123 356 123 356 97 356 c 0,86,87
 80 356 80 356 63 327 c 128,-1,88
 46 298 46 298 36 298 c 0,0,1
EndSplineSet
EndChar

StartChar: n
Encoding: 110 110 81
Width: 526
GlyphClass: 2
Flags: HW
LayerCount: 2
Fore
SplineSet
61.5 330 m 128,-1,1
 43 302 43 302 33.5 302 c 128,-1,2
 24 302 24 302 24 326.5 c 128,-1,3
 24 351 24 351 59 393 c 128,-1,4
 94 435 94 435 121 435 c 128,-1,5
 148 435 148 435 157 408.5 c 128,-1,6
 166 382 166 382 166 356 c 128,-1,7
 166 330 166 330 168 330 c 128,-1,8
 170 330 170 330 174.5 336 c 0,9,10
 194 362 194 362 218 380 c 0,11,12
 291 437 291 437 340 437 c 0,13,14
 424 437 424 437 424 312 c 0,15,16
 424 272 424 272 415.5 193 c 128,-1,17
 407 114 407 114 407 102 c 0,18,19
 407 66 407 66 426 66 c 0,20,21
 444 66 444 66 466 88 c 0,22,23
 469 91 469 91 473.5 98 c 128,-1,24
 478 105 478 105 480.5 107.5 c 0,25,26
 488 115 488 115 497 115 c 128,-1,27
 506 115 506 115 506 103 c 0,28,29
 506 74 506 74 456.5 34 c 128,-1,30
 407 -6 407 -6 374 -6 c 0,31,32
 359 -6 359 -6 348 12.5 c 128,-1,33
 337 31 337 31 337 65.5 c 128,-1,34
 337 100 337 100 347.5 195 c 128,-1,35
 358 290 358 290 358 304 c 128,-1,36
 358 318 358 318 355 333.5 c 128,-1,37
 352 349 352 349 334.5 367.5 c 128,-1,38
 317 386 317 386 285.5 386 c 128,-1,39
 254 386 254 386 223 342 c 0,40,41
 209 322 209 322 203 313 c 128,-1,42
 197 304 197 304 192 288.5 c 128,-1,43
 187 273 187 273 185.5 264 c 0,44,45
 178 219 178 219 168.5 166.5 c 128,-1,46
 159 114 159 114 154.5 84.5 c 128,-1,47
 150 55 150 55 149.5 46.5 c 128,-1,48
 149 38 149 38 148.5 32.5 c 128,-1,49
 148 27 148 27 147 17.5 c 0,50,51
 144.947368421 -2 144.947368421 -2 116.973684211 -2 c 128,-1,52
 89 -2 89 -2 82.5 3 c 128,-1,53
 76 8 76 8 76 27 c 128,-1,54
 76 46 76 46 98 153 c 128,-1,55
 120 260 120 260 120 293.5 c 128,-1,56
 120 327 120 327 112.5 342.5 c 128,-1,57
 105 358 105 358 97 358 c 0,58,0
 80 358 80 358 61.5 330 c 128,-1,1
EndSplineSet
EndChar

StartChar: o
Encoding: 111 111 82
Width: 446
GlyphClass: 2
Flags: HW
LayerCount: 2
Fore
SplineSet
75.5 36 m 128,-1,1
 32 82 32 82 32 176.5 c 128,-1,2
 32 271 32 271 96.5 353 c 128,-1,3
 161 435 161 435 268 435 c 0,4,5
 339 435 339 435 376.5 384.5 c 128,-1,6
 414 334 414 334 414 263.5 c 128,-1,7
 414 193 414 193 388.5 133 c 128,-1,8
 363 73 363 73 309 31.5 c 128,-1,9
 255 -10 255 -10 187 -10 c 128,-1,0
 119 -10 119 -10 75.5 36 c 128,-1,1
181 371.5 m 128,-1,11
 146 338 146 338 127.5 274 c 128,-1,12
 109 210 109 210 109 153 c 128,-1,13
 109 96 109 96 133.5 58 c 128,-1,14
 158 20 158 20 196 20 c 128,-1,15
 234 20 234 20 263.5 47 c 128,-1,16
 293 74 293 74 308.5 114.5 c 0,17,18
 340 196.806451613 340 196.806451613 340 266.903225806 c 128,-1,19
 340 337 340 337 315.5 371 c 128,-1,20
 291 405 291 405 253.5 405 c 128,-1,10
 216 405 216 405 181 371.5 c 128,-1,11
EndSplineSet
EndChar

StartChar: p
Encoding: 112 112 83
Width: 488
GlyphClass: 2
Flags: HW
LayerCount: 2
Fore
SplineSet
83 -195 m 1,0,-1
 29 -196 l 1,1,-1
 20 -196 l 2,2,3
 3 -196 3 -196 3 -182.5 c 128,-1,4
 3 -169 3 -169 23.5 -160 c 128,-1,5
 44 -151 44 -151 46.5 -144 c 128,-1,6
 49 -137 49 -137 78 90 c 128,-1,7
 107 317 107 317 118 370 c 1,8,-1
 118 372 l 2,9,10
 118 377 118 377 113 377 c 128,-1,11
 108 377 108 377 88 368 c 128,-1,12
 68 359 68 359 62 359 c 0,13,14
 49 359 49 359 49 371 c 2,15,-1
 49 375 l 2,16,17
 49 384 49 384 56 388 c 1,18,19
 68 393 68 393 79.5 397 c 128,-1,20
 91 401 91 401 97.5 403.5 c 128,-1,21
 104 406 104 406 109.5 407 c 128,-1,22
 115 408 115 408 118 411 c 128,-1,23
 121 414 121 414 123.5 414 c 128,-1,24
 126 414 126 414 127 419 c 128,-1,25
 128 424 128 424 128.5 425.5 c 128,-1,26
 129 427 129 427 130.5 436 c 128,-1,27
 132 445 132 445 134 455.5 c 128,-1,28
 136 466 136 466 139.5 488 c 128,-1,29
 143 510 143 510 144.5 517.5 c 128,-1,30
 146 525 146 525 149.5 535.5 c 0,31,32
 154.590909091 550.772727273 154.590909091 550.772727273 170.795454545 559.386363636 c 128,-1,33
 187 568 187 568 201.5 568 c 128,-1,34
 216 568 216 568 216 552 c 128,-1,35
 216 536 216 536 202.5 491 c 128,-1,36
 189 446 189 446 189 432 c 2,37,-1
 189 428 l 2,38,39
 189 423 189 423 192.5 423 c 128,-1,40
 196 423 196 423 206.5 424.5 c 0,41,42
 231 428 231 428 279 428 c 0,43,44
 456 428 456 428 456 294 c 0,45,46
 456 211 456 211 417 145 c 1,47,48
 409 129 409 129 404 122 c 128,-1,49
 399 115 399 115 394 106.5 c 128,-1,50
 389 98 389 98 385.5 93.5 c 128,-1,51
 382 89 382 89 375.5 81.5 c 128,-1,52
 369 74 369 74 363 68.5 c 0,53,54
 288.272727273 -7.1054273576e-15 288.272727273 -7.1054273576e-15 198 0 c 1,55,-1
 144 4 l 2,56,57
 135 4 135 4 132.5 -1 c 0,58,59
 128.75 -8.5 128.75 -8.5 125.875 -37.75 c 128,-1,60
 123 -67 123 -67 120 -84.5 c 0,61,62
 114 -119.5 114 -119.5 114 -129 c 0,63,64
 114 -151 114 -151 135 -159.5 c 128,-1,65
 156 -168 156 -168 176.5 -171 c 128,-1,66
 197 -174 197 -174 197 -183 c 0,67,68
 197 -196 197 -196 183 -196 c 2,69,-1
 83 -195 l 1,0,-1
215 403 m 1,70,-1
 191 400 l 2,71,72
 183 400 183 400 174 323 c 2,73,-1
 161 212 l 1,74,75
 141 62 141 62 141 54.5 c 128,-1,76
 141 47 141 47 145 42 c 128,-1,77
 149 37 149 37 163 32 c 128,-1,78
 177 27 177 27 198 27 c 0,79,80
 269 27 269 27 326 105.5 c 128,-1,81
 383 184 383 184 383 257 c 0,82,83
 383 296 383 296 368.5 324.5 c 128,-1,84
 354 353 354 353 334.5 367.5 c 128,-1,85
 315 382 315 382 289 390.5 c 0,86,87
 250.764705882 403 250.764705882 403 215 403 c 1,70,-1
EndSplineSet
EndChar

StartChar: q
Encoding: 113 113 84
Width: 507
GlyphClass: 2
Flags: HW
LayerCount: 2
Fore
SplineSet
409 -199 m 1,0,-1
 321 -195 l 1,1,2
 294 -195 294 -195 275.5 -197.5 c 128,-1,3
 257 -200 257 -200 248 -200 c 0,4,5
 217 -200 217 -200 217 -185 c 0,6,7
 217 -177 217 -177 229 -174 c 128,-1,8
 241 -171 241 -171 256 -169 c 128,-1,9
 271 -167 271 -167 285.5 -151.5 c 128,-1,10
 300 -136 300 -136 304 -100.5 c 128,-1,11
 308 -65 308 -65 316.5 -10 c 0,12,13
 335 109.705882353 335 109.705882353 335 115.852941176 c 128,-1,14
 335 122 335 122 332.5 122 c 128,-1,15
 330 122 330 122 321.5 108.5 c 128,-1,16
 313 95 313 95 298 75.5 c 128,-1,17
 283 56 283 56 260.5 36.5 c 128,-1,18
 238 17 238 17 200 3.5 c 128,-1,19
 162 -10 162 -10 121.5 -10 c 128,-1,20
 81 -10 81 -10 51.5 22.5 c 128,-1,21
 22 55 22 55 22 111 c 128,-1,22
 22 167 22 167 56 231 c 0,23,24
 160.125 427 160.125 427 309 427 c 0,25,26
 343 427 343 427 362.5 418 c 128,-1,27
 382 409 382 409 384 409 c 0,28,29
 396 409 396 409 416 448 c 128,-1,30
 436 487 436 487 446 487 c 0,31,32
 458 487 458 487 458 475 c 0,33,34
 458 467 458 467 451.5 448 c 0,35,36
 431.700657895 390.125 431.700657895 390.125 421.350328947 306.0625 c 128,-1,37
 411 222 411 222 385.5 48 c 128,-1,38
 360 -126 360 -126 360 -142 c 128,-1,39
 360 -158 360 -158 371.5 -164 c 128,-1,40
 383 -170 383 -170 396.5 -169.5 c 0,41,42
 433 -168.148148148 433 -168.148148148 433 -189 c 0,43,44
 433 -199 433 -199 409 -199 c 1,0,-1
117 239 m 128,-1,46
 90 176 90 176 90 133.5 c 128,-1,47
 90 91 90 91 114 63 c 128,-1,48
 138 35 138 35 181 35 c 128,-1,49
 224 35 224 35 274.5 82.5 c 128,-1,50
 325 130 325 130 346 203 c 0,51,52
 354 230 354 230 361 281 c 128,-1,53
 368 332 368 332 368 349.5 c 128,-1,54
 368 367 368 367 347 383.5 c 128,-1,55
 326 400 326 400 294 400 c 0,56,57
 243 400 243 400 193.5 351 c 128,-1,45
 144 302 144 302 117 239 c 128,-1,46
EndSplineSet
EndChar

StartChar: r
Encoding: 114 114 85
Width: 352
GlyphClass: 2
Flags: HW
LayerCount: 2
Fore
SplineSet
331 368 m 0,0,1
 326.25 330 326.25 330 309 330 c 0,2,3
 300 330 300 330 294 340.5 c 128,-1,4
 288 351 288 351 279 361.5 c 128,-1,5
 270 372 270 372 255 372 c 0,6,7
 226 372 226 372 206 312 c 128,-1,8
 186 252 186 252 180 199 c 1,9,-1
 175 166 l 1,10,11
 157 25 157 25 149 9 c 1,12,13
 139 -4 139 -4 119 -4 c 2,14,-1
 114 -4 l 2,15,16
 84 -4 84 -4 84 22 c 0,17,18
 84 38 84 38 105.5 140 c 128,-1,19
 127 242 127 242 127 284 c 0,20,21
 127 352 127 352 93 352 c 0,22,23
 75 352 75 352 63 337.5 c 128,-1,24
 51 323 51 323 45 304.5 c 128,-1,25
 39 286 39 286 35.5 282.5 c 128,-1,26
 32 279 32 279 27 279 c 0,27,28
 15 279 15 279 15 296 c 0,29,30
 15 359.84 15 359.84 45.5 394 c 0,31,32
 81.2142857143 434 81.2142857143 434 107.107142857 434 c 128,-1,33
 133 434 133 434 146 399 c 0,34,35
 171 333 171 333 174 333 c 0,36,37
 175 333 175 333 193 358.5 c 128,-1,38
 211 384 211 384 241.5 410 c 128,-1,39
 272 436 272 436 297.5 436 c 128,-1,40
 323 436 323 436 332.5 426.5 c 128,-1,41
 342 417 342 417 342 407 c 128,-1,42
 342 397 342 397 336.5 383 c 128,-1,43
 331 369 331 369 331 368 c 0,0,1
EndSplineSet
EndChar

StartChar: s
Encoding: 115 115 86
Width: 333
GlyphClass: 2
Flags: HW
LayerCount: 2
Fore
SplineSet
50.5 3.5 m 128,-1,1
 15 19 15 19 15 54.5 c 128,-1,2
 15 90 15 90 47 90 c 0,3,4
 64 90 64 90 75 79 c 128,-1,5
 86 68 86 68 91 55.5 c 128,-1,6
 96 43 96 43 109 32 c 128,-1,7
 122 21 122 21 144.5 21 c 128,-1,8
 167 21 167 21 185 29 c 128,-1,9
 203 37 203 37 210 49 c 0,10,11
 222 69.5714285714 222 69.5714285714 222 85.7857142857 c 128,-1,12
 222 102 222 102 218 115.5 c 128,-1,13
 214 129 214 129 199.5 147 c 128,-1,14
 185 165 185 165 180.5 169.5 c 0,15,16
 147.75 202.25 147.75 202.25 128.375 221.625 c 128,-1,17
 109 241 109 241 99.5 253 c 128,-1,18
 90 265 90 265 86 274 c 0,19,20
 75 298.75 75 298.75 75 324 c 0,21,22
 75 374 75 374 113.5 405.5 c 128,-1,23
 152 437 152 437 211 437 c 0,24,25
 304 437 304 437 304 385 c 0,26,27
 304 371 304 371 295 362.5 c 0,28,29
 282.823529412 351 282.823529412 351 265.411764706 351 c 128,-1,30
 248 351 248 351 227.5 379 c 128,-1,31
 207 407 207 407 187 407 c 0,32,33
 134 407 134 407 134 354 c 0,34,35
 134 323.222222222 134 323.222222222 185 276 c 0,36,37
 212 251 212 251 214.5 248 c 128,-1,38
 217 245 217 245 231.5 229.5 c 128,-1,39
 246 214 246 214 251.5 206.5 c 128,-1,40
 257 199 257 199 266 184.5 c 0,41,42
 282 158.722222222 282 158.722222222 282 130.861111111 c 128,-1,43
 282 103 282 103 275 83 c 128,-1,44
 268 63 268 63 252.5 40.5 c 128,-1,45
 237 18 237 18 204 3 c 128,-1,46
 171 -12 171 -12 128.5 -12 c 128,-1,0
 86 -12 86 -12 50.5 3.5 c 128,-1,1
EndSplineSet
Substitution2: "'hist' Historical Forms in Latin lookup 12 subtable" longs
AlternateSubs2: "'aalt' Access All Alternates in Latin lookup 1 subtable" longs
AlternateSubs2: "'aalt' Access All Alternates lookup 0 subtable" longs
EndChar

StartChar: t
Encoding: 116 116 87
Width: 299
GlyphClass: 2
Flags: HW
LayerCount: 2
Fore
SplineSet
256 369 m 2,0,-1
 175 374 l 2,1,2
 162 374 162 374 158 370 c 128,-1,3
 154 366 154 366 152 363.5 c 128,-1,4
 150 361 150 361 149 355 c 128,-1,5
 148 349 148 349 147 345 c 128,-1,6
 146 341 146 341 145 331 c 128,-1,7
 144 321 144 321 142 306 c 128,-1,8
 140 291 140 291 131.5 240 c 0,9,10
 111 117 111 117 111 100 c 128,-1,11
 111 83 111 83 121.5 69.5 c 128,-1,12
 132 56 132 56 139 54 c 128,-1,13
 146 52 146 52 161 52 c 128,-1,14
 176 52 176 52 196 63 c 128,-1,15
 216 74 216 74 228 85 c 128,-1,16
 240 96 240 96 246 96 c 0,17,18
 257 96 257 96 257 82 c 0,19,20
 257 60 257 60 205 24 c 128,-1,21
 153 -12 153 -12 110 -12 c 0,22,23
 84 -12 84 -12 65 9 c 128,-1,24
 46 30 46 30 46 83 c 128,-1,25
 46 136 46 136 67 247 c 128,-1,26
 88 358 88 358 88 363 c 0,27,28
 88 373 88 373 58.5 374 c 128,-1,29
 29 375 29 375 29 390 c 0,30,31
 29 398 29 398 39.5 404.5 c 128,-1,32
 50 411 50 411 71.5 423.5 c 128,-1,33
 93 436 93 436 108 452 c 128,-1,34
 123 468 123 468 134 481 c 128,-1,35
 145 494 145 494 149.5 499 c 0,36,37
 159.4 510 159.4 510 169.2 510 c 128,-1,38
 179 510 179 510 179 498 c 0,39,40
 179 492 179 492 170 461.5 c 128,-1,41
 161 431 161 431 161 424.5 c 128,-1,42
 161 418 161 418 166.5 417 c 128,-1,43
 172 416 172 416 196 416 c 2,44,-1
 254 417 l 2,45,46
 280 417 280 417 280 399 c 128,-1,47
 280 381 280 381 275 375 c 128,-1,48
 270 369 270 369 256 369 c 2,0,-1
EndSplineSet
EndChar

StartChar: u
Encoding: 117 117 88
Width: 525
GlyphClass: 2
Flags: HW
LayerCount: 2
Fore
SplineSet
20 294 m 0,0,1
 20 332 20 332 53.5 380 c 128,-1,2
 87 428 87 428 133 428 c 0,3,4
 149 428 149 428 158.5 411 c 0,5,6
 171 388.631578947 171 388.631578947 171 349.315789474 c 128,-1,7
 171 310 171 310 152.5 212.5 c 128,-1,8
 134 115 134 115 134 91 c 128,-1,9
 134 67 134 67 140 59.5 c 128,-1,10
 146 52 146 52 151.5 52 c 128,-1,11
 157 52 157 52 162.5 53.5 c 128,-1,12
 168 55 168 55 174 58.5 c 128,-1,13
 180 62 180 62 185 66 c 128,-1,14
 190 70 190 70 197.5 77 c 128,-1,15
 205 84 205 84 209.5 89 c 128,-1,16
 214 94 214 94 222.5 103.5 c 128,-1,17
 231 113 231 113 236 119 c 0,18,19
 251 137 251 137 266 155 c 0,20,21
 337 241 337 241 382 414 c 0,22,23
 386 430 386 430 415 430 c 128,-1,24
 444 430 444 430 444 408 c 0,25,26
 444 398 444 398 413.5 257 c 128,-1,27
 383 116 383 116 383 90 c 128,-1,28
 383 64 383 64 405 64 c 0,29,30
 447 64 447 64 474 119.5 c 0,31,32
 483 138 483 138 491 138 c 0,33,34
 505 138 505 138 505 114 c 128,-1,35
 505 90 505 90 458 40.5 c 128,-1,36
 411 -9 411 -9 349 -9 c 0,37,38
 319 -9 319 -9 319 45 c 0,39,40
 319 95 319 95 328 145 c 128,-1,41
 337 195 337 195 337 201.5 c 128,-1,42
 337 208 337 208 333.5 208 c 128,-1,43
 330 208 330 208 326 201.5 c 128,-1,44
 322 195 322 195 313 178.5 c 128,-1,45
 304 162 304 162 291 144 c 0,46,47
 182 -11 182 -11 99 -11 c 0,48,49
 65 -11 65 -11 65 51 c 128,-1,50
 65 113 65 113 87.5 210 c 128,-1,51
 110 307 110 307 110 330 c 128,-1,52
 110 353 110 353 90 353 c 0,53,54
 83 353 83 353 69 335.5 c 128,-1,55
 55 318 55 318 47 299.5 c 128,-1,56
 39 281 39 281 29.5 281 c 128,-1,57
 20 281 20 281 20 294 c 0,0,1
EndSplineSet
EndChar

StartChar: v
Encoding: 118 118 89
Width: 427
GlyphClass: 2
Flags: HW
LayerCount: 2
Fore
SplineSet
10 253 m 0,0,1
 10 324 10 324 53.5 377 c 128,-1,2
 97 430 97 430 133 430 c 0,3,4
 155 430 155 430 166.5 406 c 128,-1,5
 178 382 178 382 178 353.5 c 128,-1,6
 178 325 178 325 168 249.5 c 128,-1,7
 158 174 158 174 158 115 c 0,8,9
 158 91 158 91 172.5 72.5 c 128,-1,10
 187 54 187 54 208 54 c 0,11,12
 261 54 261 54 310.5 144 c 128,-1,13
 360 234 360 234 360 322 c 0,14,15
 360 340 360 340 349.5 363.5 c 128,-1,16
 339 387 339 387 339 399.5 c 128,-1,17
 339 412 339 412 352.5 421.5 c 128,-1,18
 366 431 366 431 375 431 c 0,19,20
 407 431 407 431 407 377 c 0,21,22
 407 342 407 342 390.5 273 c 128,-1,23
 374 204 374 204 353 164 c 0,24,25
 302 65 302 65 242.5 26 c 128,-1,26
 183 -13 183 -13 163 -13 c 0,27,28
 98 -13 98 -13 98 142 c 0,29,30
 98 148 98 148 84 150.5 c 128,-1,31
 70 153 70 153 54 156.5 c 128,-1,32
 38 160 38 160 24 184.5 c 128,-1,33
 10 209 10 209 10 253 c 0,0,1
61 312.5 m 128,-1,35
 36 274 36 274 36 245 c 128,-1,36
 36 216 36 216 47 199.5 c 0,37,38
 62.6666666667 176 62.6666666667 176 76.8333333333 176 c 128,-1,39
 91 176 91 176 94 181 c 0,40,41
 100 191 100 191 100 208 c 1,42,43
 114 312 114 312 114 331.5 c 128,-1,44
 114 351 114 351 100 351 c 128,-1,34
 86 351 86 351 61 312.5 c 128,-1,35
EndSplineSet
EndChar

StartChar: w
Encoding: 119 119 90
Width: 675
GlyphClass: 2
Flags: HW
LayerCount: 2
Fore
SplineSet
10 248 m 0,0,1
 10 317 10 317 53 373 c 128,-1,2
 96 429 96 429 131 429 c 0,3,4
 153 429 153 429 163 404 c 128,-1,5
 173 379 173 379 173 345 c 128,-1,6
 173 311 173 311 167 240 c 128,-1,7
 161 169 161 169 161 117 c 0,8,9
 161 94 161 94 173.5 75 c 128,-1,10
 186 56 186 56 200 56 c 0,11,12
 233 56 233 56 268 102 c 128,-1,13
 303 148 303 148 326.5 204.5 c 128,-1,14
 350 261 350 261 367 381 c 0,15,16
 370 402 370 402 372 409 c 0,17,18
 377.142857143 427 377.142857143 427 403.571428571 427 c 128,-1,19
 430 427 430 427 430 402 c 0,20,21
 430 388 430 388 416.5 319 c 128,-1,22
 403 250 403 250 403 201 c 128,-1,23
 403 152 403 152 411 115 c 128,-1,24
 419 78 419 78 428 65.5 c 128,-1,25
 437 53 437 53 455 53 c 0,26,27
 490 53 490 53 527 100 c 128,-1,28
 564 147 564 147 585.5 201.5 c 128,-1,29
 607 256 607 256 607 297.5 c 128,-1,30
 607 339 607 339 597.5 363 c 128,-1,31
 588 387 588 387 588 397.5 c 128,-1,32
 588 408 588 408 601 418.5 c 128,-1,33
 614 429 614 429 626 429 c 0,34,35
 655 429 655 429 655 386 c 128,-1,36
 655 343 655 343 638.5 275 c 128,-1,37
 622 207 622 207 600 166 c 0,38,39
 555 80 555 80 498.5 35 c 128,-1,40
 442 -10 442 -10 406 -10 c 0,41,42
 349 -10 349 -10 347 163 c 0,43,44
 347 182 347 182 344 182 c 0,45,46
 343 182 343 182 332.5 162 c 128,-1,47
 322 142 322 142 304.5 114 c 128,-1,48
 287 86 287 86 265.5 57.5 c 128,-1,49
 244 29 244 29 216 9 c 128,-1,50
 188 -11 188 -11 161 -11 c 0,51,52
 100 -11 100 -11 100 144 c 0,53,54
 100 149 100 149 86 152.5 c 128,-1,55
 72 156 72 156 55 160.5 c 128,-1,56
 38 165 38 165 24 187.5 c 128,-1,57
 10 210 10 210 10 248 c 0,0,1
43 243 m 0,58,59
 43 182 43 182 86 182 c 0,60,61
 97 182 97 182 101 193 c 128,-1,62
 105 204 105 204 109.5 244.5 c 128,-1,63
 114 285 114 285 114 313.5 c 128,-1,64
 114 342 114 342 99.5 342 c 128,-1,65
 85 342 85 342 64 309.5 c 128,-1,66
 43 277 43 277 43 243 c 0,58,59
EndSplineSet
EndChar

StartChar: x
Encoding: 120 120 91
Width: 475
GlyphClass: 2
Flags: HW
LayerCount: 2
Fore
SplineSet
393 30 m 1,0,-1
 427 32 l 2,1,2
 441 32 441 32 441 20 c 0,3,4
 441 3 441 3 415.5 -4.5 c 128,-1,5
 390 -12 390 -12 371 -12 c 128,-1,6
 352 -12 352 -12 333.5 -7.5 c 128,-1,7
 315 -3 315 -3 305 2.5 c 128,-1,8
 295 8 295 8 287 18 c 128,-1,9
 279 28 279 28 276.5 34.5 c 128,-1,10
 274 41 274 41 270.5 52 c 128,-1,11
 267 63 267 63 263.5 72 c 128,-1,12
 260 81 260 81 249.5 110.5 c 0,13,14
 229.745762712 166 229.745762712 166 224 166 c 0,15,16
 223 166 223 166 200.5 121 c 128,-1,17
 178 76 178 76 138 30.5 c 128,-1,18
 98 -15 98 -15 56 -15 c 0,19,20
 40 -15 40 -15 30 -4 c 128,-1,21
 20 7 20 7 20 23 c 0,22,23
 20 64 20 64 55 64 c 0,24,25
 66 64 66 64 78 59 c 128,-1,26
 90 54 90 54 98 54 c 0,27,28
 114 54 114 54 143.5 92.5 c 128,-1,29
 173 131 173 131 194 170 c 2,30,-1
 215 208 l 1,31,32
 215 214.2 215 214.2 193.5 270.1 c 128,-1,33
 172 326 172 326 162.5 340.5 c 128,-1,34
 153 355 153 355 136 355 c 128,-1,35
 119 355 119 355 109.5 340 c 128,-1,36
 100 325 100 325 95 310 c 128,-1,37
 90 295 90 295 82 295 c 0,38,39
 68 295 68 295 68 330 c 0,40,41
 68 342 68 342 75 364.5 c 128,-1,42
 82 387 82 387 92.5 401.5 c 128,-1,43
 103 416 103 416 119.5 426 c 128,-1,44
 136 436 136 436 147 436 c 0,45,46
 170 436 170 436 191 411.5 c 128,-1,47
 212 387 212 387 223.5 357 c 0,48,49
 253.783333333 278 253.783333333 278 258 278 c 0,50,51
 260 278 260 278 273 303 c 128,-1,52
 286 328 286 328 303.5 358 c 128,-1,53
 321 388 321 388 349.5 413 c 128,-1,54
 378 438 378 438 408 438 c 0,55,56
 423 438 423 438 434 425.5 c 128,-1,57
 445 413 445 413 445 397.5 c 128,-1,58
 445 382 445 382 436 371 c 128,-1,59
 427 360 427 360 411 360 c 1,60,-1
 368 367 l 1,61,62
 347 367 347 367 306 312.5 c 128,-1,63
 265 258 265 258 265 249 c 0,64,65
 265 229.545454545 265 229.545454545 343 70 c 0,66,67
 363 30 363 30 393 30 c 1,0,-1
EndSplineSet
EndChar

StartChar: y
Encoding: 121 121 92
Width: 407
GlyphClass: 2
Flags: HW
LayerCount: 2
Fore
SplineSet
7 -125 m 0,0,1
 7 -112 7 -112 16.5 -102 c 128,-1,2
 26 -92 26 -92 42 -92 c 0,3,4
 58 -92 58 -92 80 -108.5 c 128,-1,5
 102 -125 102 -125 126 -125 c 0,6,7
 165 -125 165 -125 207.5 -59.5 c 128,-1,8
 250 6 250 6 250 48 c 0,9,10
 250 90 250 90 186.5 222.5 c 128,-1,11
 123 355 123 355 87 355 c 0,12,13
 62 355 62 355 51.5 336.5 c 128,-1,14
 41 318 41 318 36.5 299 c 128,-1,15
 32 280 32 280 20 280 c 0,16,17
 10 280 10 280 10 303.5 c 0,18,19
 10 327 10 327 17 354.5 c 128,-1,20
 24 382 24 382 43.5 406.5 c 128,-1,21
 63 431 63 431 93.5 431 c 0,22,23
 124 431 124 431 161.5 386.5 c 128,-1,24
 199 342 199 342 225 289 c 128,-1,25
 251 236 251 236 271 191.5 c 128,-1,26
 291 147 291 147 294 147 c 0,27,28
 304 147 304 147 317 209 c 128,-1,29
 330 271 330 271 330 321 c 0,30,31
 330 336 330 336 317.5 360 c 128,-1,32
 305 384 305 384 305 398 c 0,33,34
 305 412 305 412 313.5 423 c 128,-1,35
 322 434 322 434 339 434 c 128,-1,36
 356 434 356 434 367 419 c 128,-1,37
 378 404 378 404 378 371.5 c 0,38,39
 378 339 378 339 356.5 244.5 c 128,-1,40
 335 150 335 150 295 49 c 0,41,42
 203 -184 203 -184 90 -184 c 0,43,44
 7 -184 7 -184 7 -125 c 0,0,1
EndSplineSet
EndChar

StartChar: z
Encoding: 122 122 93
Width: 409
GlyphClass: 2
Flags: HW
LayerCount: 2
Fore
SplineSet
25 5 m 128,-1,1
 20 10 20 10 20 16.5 c 128,-1,2
 20 23 20 23 29 32 c 0,3,4
 271 280 271 280 271 296 c 0,5,6
 271 299 271 299 251.5 307 c 128,-1,7
 232 315 232 315 202.5 328 c 128,-1,8
 173 341 173 341 160.5 347 c 128,-1,9
 148 353 148 353 137.5 357.5 c 0,10,11
 122.333333333 364 122.333333333 364 112.666666667 364 c 128,-1,12
 103 364 103 364 93.5 353 c 128,-1,13
 84 342 84 342 84 330.5 c 128,-1,14
 84 319 84 319 92.5 304.5 c 128,-1,15
 101 290 101 290 101 288 c 0,16,17
 101 279 101 279 89 279 c 0,18,19
 84 279 84 279 75.5 286.5 c 128,-1,20
 67 294 67 294 59 311.5 c 128,-1,21
 51 329 51 329 51 355 c 128,-1,22
 51 381 51 381 75 405.5 c 128,-1,23
 99 430 99 430 126 430 c 128,-1,24
 153 430 153 430 199 406.5 c 0,25,26
 286.106382979 362 286.106382979 362 321 362 c 0,27,28
 336 362 336 362 343 391.5 c 128,-1,29
 350 421 350 421 367 421 c 0,30,31
 376 421 376 421 383 416 c 128,-1,32
 390 411 390 411 390 402 c 128,-1,33
 390 393 390 393 369 369 c 2,34,-1
 176 154 l 2,35,36
 141 115 141 115 141 110 c 128,-1,37
 141 105 141 105 153.5 95 c 128,-1,38
 166 85 166 85 184.5 70.5 c 128,-1,39
 203 56 203 56 214.5 43.5 c 128,-1,40
 226 31 226 31 246 -0.5 c 128,-1,41
 266 -32 266 -32 281 -51.5 c 128,-1,42
 296 -71 296 -71 306 -71 c 0,43,44
 324 -71 324 -71 335.5 -44 c 128,-1,45
 347 -17 347 -17 367 -17 c 0,46,47
 377 -17 377 -17 383 -24.5 c 128,-1,48
 389 -32 389 -32 389 -40 c 0,49,50
 389 -62 389 -62 359 -79.5 c 128,-1,51
 329 -97 329 -97 288 -97 c 0,52,53
 260.333333333 -97 260.333333333 -97 243.666666667 -84.5 c 128,-1,54
 227 -72 227 -72 216 -62 c 0,55,56
 200.285714286 -47.7142857143 200.285714286 -47.7142857143 181 -22 c 1,57,58
 120 49 120 49 93 49 c 0,59,60
 87 49 87 49 66 24.5 c 128,-1,61
 45 0 45 0 37.5 0 c 128,-1,0
 30 0 30 0 25 5 c 128,-1,1
EndSplineSet
EndChar

StartChar: braceleft
Encoding: 123 123 94
Width: 266
GlyphClass: 2
Flags: HW
LayerCount: 2
Fore
SplineSet
167 752 m 1,0,-1
 224 744 l 1,1,2
 243 744 243 744 262 747 c 128,-1,3
 281 750 281 750 292 750 c 128,-1,4
 303 750 303 750 303 741 c 0,5,6
 303 718 303 718 267 701.5 c 128,-1,7
 231 685 231 685 204 685 c 0,8,9
 196 685 196 685 196 676 c 1,10,11
 152.742451155 292.580817052 152.742451155 292.580817052 133.371225577 94.7904085258 c 128,-1,12
 114 -103 114 -103 114 -106.5 c 128,-1,13
 114 -110 114 -110 124 -112.5 c 0,14,15
 166.5 -123.125 166.5 -123.125 180 -131 c 1,16,17
 208 -150 208 -150 208 -165.5 c 128,-1,18
 208 -181 208 -181 200 -181 c 0,19,20
 199 -181 199 -181 189.5 -178.5 c 0,21,22
 164.8 -172 164.8 -172 134.9 -172 c 128,-1,23
 105 -172 105 -172 86.5 -179 c 128,-1,24
 68 -186 68 -186 62 -186 c 0,25,26
 52 -186 52 -186 52 -175 c 1,27,-1
 95 208 l 1,28,29
 95 225 95 225 81.5 238.5 c 128,-1,30
 68 252 68 252 68 266.5 c 128,-1,31
 68 281 68 281 87.5 293 c 128,-1,32
 107 305 107 305 108 321 c 0,33,34
 115 389 115 389 128 528 c 128,-1,35
 141 667 141 667 148 734 c 0,36,37
 149 752 149 752 167 752 c 1,0,-1
EndSplineSet
Substitution2: "'case' Case-Sensitive Forms in Latin lookup 13 subtable" braceleft.uppercase
AlternateSubs2: "'aalt' Access All Alternates in Latin lookup 1 subtable" braceleft.uppercase
AlternateSubs2: "'aalt' Access All Alternates lookup 0 subtable" braceleft.uppercase
EndChar

StartChar: bar
Encoding: 124 124 95
Width: 209
GlyphClass: 2
Flags: HW
LayerCount: 2
Fore
SplineSet
127 -137 m 2,0,-1
 128 -163 l 1,1,-1
 128 -171 l 2,2,3
 128 -209 128 -209 111 -209 c 0,4,5
 89 -209 89 -209 83.5 -199 c 128,-1,6
 78 -189 78 -189 78 -148 c 2,7,-1
 78 -87 l 1,8,-1
 84 570 l 1,9,-1
 84 652 l 1,10,-1
 83 738 l 2,11,12
 83 751 83 751 88.5 756.5 c 128,-1,13
 94 762 94 762 107.5 762 c 128,-1,14
 121 762 121 762 125.5 756.5 c 128,-1,15
 130 751 130 751 130 737 c 2,16,-1
 129 714 l 1,17,-1
 131 559 l 1,18,-1
 126 10 l 2,19,20
 126 -87 126 -87 127 -137 c 2,0,-1
EndSplineSet
EndChar

StartChar: braceright
Encoding: 125 125 96
Width: 266
GlyphClass: 2
Flags: HW
LayerCount: 2
Fore
SplineSet
215 737 m 1,0,-1
 168 317 l 1,1,2
 168 303 168 303 182.5 293.5 c 128,-1,3
 197 284 197 284 197 269.5 c 128,-1,4
 197 255 197 255 178.5 239.5 c 128,-1,5
 160 224 160 224 158 202 c 0,6,7
 142 58 142 58 132.5 -51 c 128,-1,8
 123 -160 123 -160 120.5 -173 c 128,-1,9
 118 -186 118 -186 108 -186 c 0,10,11
 102 -186 102 -186 85.5 -179 c 128,-1,12
 69 -172 69 -172 47 -172 c 128,-1,13
 25 -172 25 -172 9 -174 c 128,-1,14
 -7 -176 -7 -176 -17 -178.5 c 128,-1,15
 -27 -181 -27 -181 -28 -181 c 0,16,17
 -35 -181 -35 -181 -35 -174 c 0,18,19
 -35 -151 -35 -151 2 -131 c 0,20,21
 15 -124 15 -124 33.5 -119.5 c 0,22,23
 73 -109.891891892 73 -109.891891892 73 -105 c 0,24,25
 90.875 60 90.875 60 96.9375 108.5 c 128,-1,26
 103 157 103 157 115 277 c 2,27,-1
 155 677 l 2,28,29
 155 685 155 685 149 685 c 0,30,31
 124 685 124 685 93 699.5 c 128,-1,32
 62 714 62 714 62 737 c 0,33,34
 62 750 62 750 80 750 c 0,35,36
 86 750 86 750 104.5 747 c 128,-1,37
 123 744 123 744 142 744 c 1,38,-1
 201 752 l 1,39,40
 215 752 215 752 215 737 c 1,0,-1
EndSplineSet
Substitution2: "'case' Case-Sensitive Forms in Latin lookup 13 subtable" braceright.uppercase
AlternateSubs2: "'aalt' Access All Alternates in Latin lookup 1 subtable" braceright.uppercase
AlternateSubs2: "'aalt' Access All Alternates lookup 0 subtable" braceright.uppercase
EndChar

StartChar: asciitilde
Encoding: 126 126 97
Width: 380
GlyphClass: 2
Flags: HW
LayerCount: 2
Fore
SplineSet
29 172 m 0,0,1
 29 176 29 176 43 197.5 c 128,-1,2
 57 219 57 219 83 242 c 128,-1,3
 109 265 109 265 133 265 c 0,4,5
 157 265 157 265 192.5 242.5 c 128,-1,6
 228 220 228 220 250 220 c 0,7,8
 272 220 272 220 289.5 232 c 128,-1,9
 307 244 307 244 317 256.5 c 128,-1,10
 327 269 327 269 331 269 c 0,11,12
 351 269 351 269 351 254 c 0,13,14
 351 249 351 249 336 228.5 c 128,-1,15
 321 208 321 208 292 186 c 128,-1,16
 263 164 263 164 234.5 164 c 0,17,18
 206 164 206 164 173.5 187 c 128,-1,19
 141 210 141 210 121 210 c 128,-1,20
 101 210 101 210 85 196.5 c 128,-1,21
 69 183 69 183 60.5 169.5 c 128,-1,22
 52 156 52 156 49 156 c 0,23,24
 29 156 29 156 29 172 c 0,0,1
EndSplineSet
EndChar

StartChar: exclamdown
Encoding: 161 161 99
Width: 249
GlyphClass: 2
Flags: HW
LayerCount: 2
Fore
SplineSet
68 21 m 0,0,1
 68 35 68 35 72 51.5 c 0,2,3
 92.5381165919 136.219730942 92.5381165919 136.219730942 106.769058296 239.109865471 c 128,-1,4
 121 342 121 342 146 461 c 0,5,6
 147 467 147 467 153 474 c 128,-1,7
 159 481 159 481 167 481 c 0,8,9
 180 481 180 481 180 464 c 0,10,11
 180 459 180 459 178 437 c 2,12,-1
 152 48 l 1,13,-1
 152 40 l 2,14,15
 152 33 152 33 151.5 30.5 c 128,-1,16
 151 28 151 28 150 21 c 128,-1,17
 149 14 149 14 147 11 c 128,-1,18
 145 8 145 8 141.5 3 c 128,-1,19
 138 -2 138 -2 133 -4.5 c 0,20,21
 120 -11 120 -11 104 -11 c 0,22,23
 68 -11 68 -11 68 21 c 0,0,1
152.5 577 m 128,-1,25
 145 587 145 587 133.5 600 c 128,-1,26
 122 613 122 613 122 622.5 c 128,-1,27
 122 632 122 632 150.5 659.5 c 128,-1,28
 179 687 179 687 184 687 c 0,29,30
 196 687 196 687 215 664 c 0,31,32
 219 659 219 659 228 650 c 0,33,34
 245 633 245 633 245 626.5 c 128,-1,35
 245 620 245 620 234.5 608.5 c 128,-1,36
 224 597 224 597 218 592.5 c 128,-1,37
 212 588 212 588 201.5 578 c 0,38,39
 182.6 560 182.6 560 174.8 560 c 128,-1,40
 167 560 167 560 163.5 563.5 c 128,-1,24
 160 567 160 567 152.5 577 c 128,-1,25
EndSplineSet
Position2: "'cpsp' Capital Spacing in Latin lookup 0 subtable" dx=20 dy=0 dh=40 dv=0
EndChar

StartChar: cent
Encoding: 162 162 100
Width: 418
GlyphClass: 2
Flags: HW
LayerCount: 2
Fore
SplineSet
187 -24 m 2,0,1
 187 -19 187 -19 180.5 -19 c 2,2,-1
 171.5 -19 l 2,3,4
 157 -19 157 -19 133 -9 c 0,5,6
 32 29 32 29 32 159 c 0,7,8
 32 245 32 245 78 317 c 0,9,10
 127.93360161 395.15694165 127.93360161 395.15694165 217.5 421.5 c 0,11,12
 226 424 226 424 228.5 424 c 128,-1,13
 231 424 231 424 234 426.5 c 0,14,15
 237.244897959 429.204081633 237.244897959 429.204081633 239 445 c 2,16,-1
 243 481 l 1,17,18
 243 491 243 491 261.5 491 c 128,-1,19
 280 491 280 491 280 481 c 1,20,-1
 274 436 l 2,21,22
 274 429 274 429 287.5 428 c 0,23,24
 344.471042471 423.77992278 344.471042471 423.77992278 370 409 c 1,25,26
 380 402 380 402 380 387 c 0,27,28
 378 305 378 305 362 305 c 0,29,30
 352.666666667 305 352.666666667 305 346.833333333 317.5 c 0,31,32
 334.551181102 343.818897638 334.551181102 343.818897638 290 369 c 0,33,34
 277 376 277 376 274 376 c 0,35,36
 268 376 268 376 266 356 c 2,37,-1
 231 45 l 1,38,-1
 230 41 l 1,39,40
 230 31 230 31 246 31 c 0,41,42
 303 31 303 31 354 70 c 0,43,44
 371 83 371 83 374 83 c 0,45,46
 383 83 383 83 383 74.5 c 128,-1,47
 383 66 383 66 367 47.5 c 128,-1,48
 351 29 351 29 315 7.5 c 128,-1,49
 279 -14 279 -14 236 -19 c 1,50,51
 233 -19 l 1,52,53
 223 -20 223 -20 222 -25.5 c 128,-1,54
 221 -31 221 -31 219.5 -51.5 c 128,-1,55
 218 -72 218 -72 216 -91 c 0,56,57
 215 -102 215 -102 198 -102 c 128,-1,58
 181 -102 181 -102 181 -90 c 1,59,-1
 187 -24 l 2,0,1
155 68 m 0,60,61
 178.076923077 43 178.076923077 43 189 43 c 0,62,63
 195 43 195 43 196 58 c 2,64,-1
 231 374 l 1,65,-1
 231 381 l 2,66,67
 231 386 231 386 228.5 387 c 128,-1,68
 226 388 226 388 217 388 c 0,69,70
 180 388 180 388 142.5 333.5 c 128,-1,71
 105 279 105 279 105 200.583333333 c 128,-1,72
 105 122.166666667 105 122.166666667 155 68 c 0,60,61
EndSplineSet
EndChar

StartChar: sterling
Encoding: 163 163 101
Width: 530
GlyphClass: 2
Flags: HW
LayerCount: 2
Fore
SplineSet
139 333 m 2,0,-1
 64 332 l 2,1,2
 53 332 53 332 53 353.5 c 128,-1,3
 53 375 53 375 68 375 c 2,4,-1
 123 375 l 2,5,6
 139 375 139 375 139 376.5 c 128,-1,7
 139 378 139 378 135 394.5 c 0,8,9
 123 444 123 444 123 490 c 0,10,11
 123 600 123 600 185.5 659.5 c 128,-1,12
 248 719 248 719 333 719 c 0,13,14
 392 719 392 719 435.5 692 c 128,-1,15
 479 665 479 665 479 623 c 0,16,17
 479 601 479 601 462 583 c 128,-1,18
 445 565 445 565 436 565 c 128,-1,19
 427 565 427 565 423 574.5 c 128,-1,20
 419 584 419 584 414 603.5 c 128,-1,21
 409 623 409 623 400.5 640 c 128,-1,22
 392 657 392 657 367.5 670 c 128,-1,23
 343 683 343 683 318.5 683 c 128,-1,24
 294 683 294 683 276 677.5 c 128,-1,25
 258 672 258 672 237.5 658 c 128,-1,26
 217 644 217 644 204.5 613.5 c 128,-1,27
 192 583 192 583 192 538.5 c 128,-1,28
 192 494 192 494 220 396 c 0,29,30
 224 383 224 383 227 379.5 c 128,-1,31
 230 376 230 376 236 376 c 2,32,-1
 379 376 l 2,33,34
 398 376 398 376 398 364 c 0,35,36
 398 337 398 337 386 334 c 0,37,38
 382 333 382 333 373 333 c 2,39,-1
 260 333 l 2,40,41
 239 333 239 333 239 330.5 c 128,-1,42
 239 328 239 328 242.5 313 c 0,43,44
 253 268 253 268 253 228.5 c 128,-1,45
 253 189 253 189 239 148 c 0,46,47
 217.222222222 84.2222222222 217.222222222 84.2222222222 200 67 c 1,48,49
 257 50 257 50 314 50 c 128,-1,50
 371 50 371 50 405.5 66 c 128,-1,51
 440 82 440 82 456 100.5 c 128,-1,52
 472 119 472 119 484 135 c 128,-1,53
 496 151 496 151 500 151 c 0,54,55
 511 151 511 151 511 138.5 c 128,-1,56
 511 126 511 126 501.5 102.5 c 128,-1,57
 492 79 492 79 474 51 c 128,-1,58
 456 23 456 23 423 3 c 128,-1,59
 390 -17 390 -17 350 -17 c 0,60,61
 272 -17 272 -17 169 27 c 1,62,63
 165 27 165 27 152 17 c 0,64,65
 115.6 -11 115.6 -11 71 -11 c 0,66,67
 46 -11 46 -11 33 3 c 128,-1,68
 20 17 20 17 20 39.5 c 128,-1,69
 20 62 20 62 37.5 81 c 128,-1,70
 55 100 55 100 90 100 c 0,71,72
 119.909090909 100 119.909090909 100 139.954545455 89.5 c 128,-1,73
 160 79 160 79 162 79 c 1,74,75
 173.134615385 86.4230769231 173.134615385 86.4230769231 181.067307692 116.711538462 c 128,-1,76
 189 147 189 147 189 179.5 c 128,-1,77
 189 212 189 212 160 311 c 0,78,79
 159 313 159 313 157 320 c 128,-1,80
 155 327 155 327 152 330 c 128,-1,81
 149 333 149 333 139 333 c 2,0,-1
55 42 m 0,82,83
 55 33 55 33 63.5 25 c 128,-1,84
 72 17 72 17 86.5 17 c 128,-1,85
 101 17 101 17 118 29 c 128,-1,86
 135 41 135 41 138 47 c 1,87,88
 135 51 135 51 117 57 c 128,-1,89
 99 63 99 63 84 63 c 0,90,91
 55 63 55 63 55 42 c 0,82,83
EndSplineSet
EndChar

StartChar: currency
Encoding: 164 164 102
Width: 527
GlyphClass: 2
Flags: HW
LayerCount: 2
Fore
SplineSet
27 26 m 128,-1,1
 20 34 20 34 20 45 c 128,-1,2
 20 56 20 56 38 74 c 2,3,-1
 106 143 l 1,4,5
 67 194 67 194 67 261 c 128,-1,6
 67 328 67 328 105 379 c 1,7,-1
 38 448 l 2,8,9
 20 466 20 466 20 478 c 128,-1,10
 20 490 20 490 28 497.5 c 128,-1,11
 36 505 36 505 47.5 505 c 128,-1,12
 59 505 59 505 77 487 c 2,13,-1
 146 418 l 1,14,15
 198 457 198 457 263 457 c 128,-1,16
 328 457 328 457 381 418 c 1,17,-1
 450 487 l 2,18,19
 467 504 467 504 479.5 504 c 128,-1,20
 492 504 492 504 499.5 496 c 128,-1,21
 507 488 507 488 507 477 c 128,-1,22
 507 466 507 466 489 448 c 2,23,-1
 420 378 l 1,24,25
 461 322 461 322 461 260.5 c 128,-1,26
 461 199 461 199 420 144 c 1,27,-1
 489 74 l 2,28,29
 507 56 507 56 507 44 c 128,-1,30
 507 32 507 32 498.5 24.5 c 128,-1,31
 490 17 490 17 479 17 c 128,-1,32
 468 17 468 17 450 35 c 2,33,-1
 381 104 l 1,34,35
 329 65 329 65 263 65 c 128,-1,36
 197 65 197 65 146 103 c 1,37,-1
 77 35 l 2,38,39
 60 18 60 18 47 18 c 128,-1,0
 34 18 34 18 27 26 c 128,-1,1
124 260 m 128,-1,41
 124 201 124 201 165 160.5 c 128,-1,42
 206 120 206 120 263 120 c 128,-1,43
 320 120 320 120 361.5 161.5 c 128,-1,44
 403 203 403 203 403 261 c 128,-1,45
 403 319 403 319 361.5 361.5 c 128,-1,46
 320 404 320 404 262.5 404 c 128,-1,47
 205 404 205 404 164.5 361.5 c 128,-1,40
 124 319 124 319 124 260 c 128,-1,41
EndSplineSet
EndChar

StartChar: yen
Encoding: 165 165 103
Width: 690
GlyphClass: 2
Flags: HW
LayerCount: 2
Fore
SplineSet
280 261 m 1,0,-1
 284 302 l 1,1,2
 284 314 284 314 274 336.5 c 128,-1,3
 264 359 264 359 261 360 c 256,4,5
 258 361 258 361 248 361 c 2,6,-1
 153 361 l 2,7,8
 141 361 141 361 137.5 364 c 128,-1,9
 134 367 134 367 134 381 c 128,-1,10
 134 395 134 395 140 400 c 128,-1,11
 146 405 146 405 160 405 c 2,12,-1
 228 405 l 2,13,14
 240 405 240 405 240 407 c 128,-1,15
 240 409 240 409 239 410.5 c 128,-1,16
 238 412 238 412 236 415.5 c 128,-1,17
 234 419 234 419 232 422 c 2,18,-1
 155 570 l 2,19,20
 105 668 105 668 67 680 c 0,21,22
 64 681 64 681 50.5 681.5 c 0,23,24
 20 682.62962963 20 682.62962963 20 700 c 0,25,26
 20 714 20 714 53 714 c 1,27,-1
 146 710 l 1,28,-1
 235 714 l 1,29,30
 265 714 265 714 265 699 c 0,31,32
 265 689 265 689 240 680 c 128,-1,33
 215 671 215 671 215 657 c 0,34,35
 215 629 215 629 246 567 c 0,36,37
 255 549 255 549 274.5 508.5 c 128,-1,38
 294 468 294 468 304 447 c 128,-1,39
 314 426 314 426 316.5 420.5 c 128,-1,40
 319 415 319 415 320 413.5 c 128,-1,41
 321 412 321 412 322 409.5 c 128,-1,42
 323 407 323 407 324.5 406.5 c 0,43,44
 329 405 329 405 332 405 c 0,45,46
 356.75 405 356.75 405 369.875 405 c 128,-1,47
 383 405 383 405 385 406.5 c 128,-1,48
 387 408 387 408 388 409.5 c 0,49,50
 395 420 395 420 398 424 c 128,-1,51
 401 428 401 428 433 473 c 128,-1,52
 465 518 465 518 499.5 576 c 128,-1,53
 534 634 534 634 534 651 c 128,-1,54
 534 668 534 668 523 674 c 128,-1,55
 512 680 512 680 498.5 679.5 c 0,56,57
 463 678.185185185 463 678.185185185 463 698 c 0,58,59
 463 712 463 712 489 712 c 2,60,-1
 542 710 l 1,61,-1
 645 713 l 2,62,63
 671 713 671 713 671 698 c 0,64,65
 671 692 671 692 660 687 c 128,-1,66
 649 682 649 682 632.5 675.5 c 128,-1,67
 616 669 616 669 605 657 c 128,-1,68
 594 645 594 645 567 607.5 c 128,-1,69
 540 570 540 570 502 514 c 128,-1,70
 464 458 464 458 454 444.5 c 128,-1,71
 444 431 444 431 440.5 426.5 c 128,-1,72
 437 422 437 422 435 419.5 c 128,-1,73
 433 417 433 417 431 414.5 c 0,74,75
 427 409.5 427 409.5 427 407.25 c 128,-1,76
 427 405 427 405 520 405 c 0,77,78
 531 405 531 405 531 383.5 c 128,-1,79
 531 362 531 362 516 362 c 2,80,-1
 430 362 l 2,81,82
 393.4 362 393.4 362 389.2 358.5 c 128,-1,83
 385 355 385 355 383.5 354 c 128,-1,84
 382 353 382 353 379.5 347 c 128,-1,85
 377 341 377 341 371 331 c 128,-1,86
 365 321 365 321 358.5 289 c 128,-1,87
 352 257 352 257 352 247 c 0,88,89
 352 241 352 241 362 241 c 2,90,-1
 491 242 l 2,91,92
 511 242 511 242 511 229 c 0,93,94
 511 209 511 209 504.5 203 c 128,-1,95
 498 197 498 197 484 197 c 2,96,-1
 358 197 l 2,97,98
 349 197 349 197 348 195.5 c 128,-1,99
 347 194 347 194 342 140.5 c 128,-1,100
 337 87 337 87 337 79 c 0,101,102
 337 59 337 59 353.5 45 c 128,-1,103
 370 31 370 31 384 27 c 128,-1,104
 398 23 398 23 408 22.5 c 0,105,106
 432 21.3 432 21.3 432 8 c 0,107,108
 432 -1 432 -1 427 -3.5 c 128,-1,109
 422 -6 422 -6 413 -6 c 2,110,111
 300 1 l 1,112,113
 274 1 274 1 249.5 -3 c 128,-1,114
 225 -7 225 -7 216 -7 c 0,115,116
 189 -7 189 -7 189 6 c 0,117,118
 189 20.3333333333 189 20.3333333333 214 24.5 c 0,119,120
 223 26 223 26 227 27 c 0,121,122
 241 31 241 31 247 44.5 c 128,-1,123
 253 58 253 58 261.5 119 c 128,-1,124
 270 180 270 180 270 186 c 128,-1,125
 270 192 270 192 264.5 194.5 c 128,-1,126
 259 197 259 197 239 197 c 2,127,-1
 125 198 l 2,128,129
 114 198 114 198 114 219.5 c 128,-1,130
 114 241 114 241 128 241 c 2,131,-1
 257 241 l 2,132,133
 273 241 273 241 275.5 242.5 c 0,134,135
 280 245.2 280 245.2 280 261 c 1,0,-1
EndSplineSet
EndChar

StartChar: brokenbar
Encoding: 166 166 104
Width: 208
GlyphClass: 2
Flags: HW
LayerCount: 2
Fore
SplineSet
127 -8 m 1,0,-1
 128 -140 l 1,1,-1
 128 -171 l 2,2,3
 128 -209 128 -209 111 -209 c 0,4,5
 89 -209 89 -209 83.5 -199 c 128,-1,6
 78 -189 78 -189 78 -148 c 2,7,-1
 79 -82 l 1,8,-1
 80 176 l 2,9,10
 80 201 80 201 106 201 c 0,11,12
 119 201 119 201 123 195.5 c 128,-1,13
 127 190 127 190 127 176 c 2,14,-1
 127 -8 l 1,0,-1
83 414 m 2,15,-1
 83 738 l 2,16,17
 83 751 83 751 88.5 756.5 c 128,-1,18
 94 762 94 762 107.5 762 c 128,-1,19
 121 762 121 762 125.5 756.5 c 128,-1,20
 130 751 130 751 130 737 c 2,21,-1
 130 391 l 2,22,23
 130 353 130 353 114 353 c 0,24,25
 92 353 92 353 87.5 362.5 c 128,-1,26
 83 372 83 372 83 414 c 2,15,-1
EndSplineSet
EndChar

StartChar: section
Encoding: 167 167 105
Width: 542
GlyphClass: 2
Flags: HW
LayerCount: 2
Fore
SplineSet
478 690 m 2,0,-1
 483 564 l 1,1,2
 483 526 483 526 468 526 c 0,3,4
 458 526 458 526 453 541 c 128,-1,5
 448 556 448 556 444.5 576.5 c 128,-1,6
 441 597 441 597 425 622.5 c 128,-1,7
 409 648 409 648 379 665.5 c 128,-1,8
 349 683 349 683 299 683 c 128,-1,9
 249 683 249 683 218 648 c 128,-1,10
 187 613 187 613 187 579 c 128,-1,11
 187 545 187 545 217.5 522.5 c 128,-1,12
 248 500 248 500 291 484 c 128,-1,13
 334 468 334 468 377 448.5 c 128,-1,14
 420 429 420 429 450.5 393 c 128,-1,15
 481 357 481 357 481 314 c 128,-1,16
 481 271 481 271 472 241 c 128,-1,17
 463 211 463 211 450.5 192.5 c 128,-1,18
 438 174 438 174 425 160.5 c 128,-1,19
 412 147 412 147 403 139.5 c 128,-1,20
 394 132 394 132 394 130.5 c 128,-1,21
 394 129 394 129 402 123.5 c 0,22,23
 429.439739414 104.635179153 429.439739414 104.635179153 438.719869707 71.8175895765 c 128,-1,24
 448 39 448 39 448 21 c 0,25,26
 448 -53 448 -53 388.5 -117 c 128,-1,27
 329 -181 329 -181 224 -181 c 0,28,29
 182 -181 182 -181 152 -174 c 128,-1,30
 122 -167 122 -167 83 -143 c 0,31,32
 71 -136 71 -136 65 -80 c 128,-1,33
 59 -24 59 -24 59 8 c 128,-1,34
 59 40 59 40 75 40 c 0,35,36
 83.5 40 83.5 40 86.25 34.5 c 128,-1,37
 89 29 89 29 90 26.5 c 128,-1,38
 91 24 91 24 92.5 16.5 c 128,-1,39
 94 9 94 9 97.5 -3.5 c 128,-1,40
 101 -16 101 -16 109.5 -36 c 128,-1,41
 118 -56 118 -56 134.5 -81 c 0,42,43
 170.8 -136 170.8 -136 237.4 -136 c 128,-1,44
 304 -136 304 -136 348.5 -100.5 c 128,-1,45
 393 -65 393 -65 393 -17 c 0,46,47
 393 13 393 13 361 36 c 128,-1,48
 329 59 329 59 283.5 76.5 c 128,-1,49
 238 94 238 94 192.5 115 c 128,-1,50
 147 136 147 136 115 172.5 c 128,-1,51
 83 209 83 209 83 251 c 128,-1,52
 83 293 83 293 94.5 322.5 c 128,-1,53
 106 352 106 352 122.5 369.5 c 128,-1,54
 139 387 139 387 155.5 399 c 128,-1,55
 172 411 172 411 183.5 417.5 c 128,-1,56
 195 424 195 424 195 426.5 c 128,-1,57
 195 429 195 429 177.5 440 c 128,-1,58
 160 451 160 451 142.5 475.5 c 128,-1,59
 125 500 125 500 125 536 c 0,60,61
 125 610 125 610 181.5 665 c 128,-1,62
 238 720 238 720 323 720 c 0,63,64
 367 720 367 720 401.5 706.5 c 128,-1,65
 436 693 436 693 440 693 c 1,66,-1
 463 700 l 1,67,68
 478 700 478 700 478 690 c 2,0,-1
144 299 m 128,-1,70
 144 256 144 256 189 225 c 0,71,72
 207 212 207 212 278 182.5 c 128,-1,73
 349 153 349 153 355 153 c 0,74,75
 370 153 370 153 397.5 189 c 128,-1,76
 425 225 425 225 425 263 c 0,77,78
 425 296.2 425 296.2 405.5 317 c 0,79,80
 398 325 398 325 393 330.5 c 128,-1,81
 388 336 388 336 377.5 342.5 c 128,-1,82
 367 349 367 349 361.5 352.5 c 128,-1,83
 356 356 356 356 344 361.5 c 128,-1,84
 332 367 332 367 328.5 369 c 128,-1,85
 325 371 325 371 313 376 c 128,-1,86
 301 381 301 381 274.5 392.5 c 128,-1,87
 248 404 248 404 233 404 c 128,-1,88
 218 404 218 404 181 373 c 128,-1,69
 144 342 144 342 144 299 c 128,-1,70
EndSplineSet
EndChar

StartChar: copyright
Encoding: 169 169 107
Width: 796
GlyphClass: 2
Flags: HW
LayerCount: 2
Fore
SplineSet
149 82.5 m 128,-1,1
 44 186 44 186 44 333.5 c 128,-1,2
 44 481 44 481 147.5 586.5 c 128,-1,3
 251 692 251 692 399.5 692 c 128,-1,4
 548 692 548 692 652 586.5 c 128,-1,5
 756 481 756 481 756 335.5 c 128,-1,6
 756 190 756 190 653 84.5 c 128,-1,7
 550 -21 550 -21 402 -21 c 128,-1,0
 254 -21 254 -21 149 82.5 c 128,-1,1
177 556.5 m 128,-1,9
 86 464 86 464 86 334 c 128,-1,10
 86 204 86 204 179 112.5 c 128,-1,11
 272 21 272 21 400 21 c 128,-1,12
 528 21 528 21 621 112 c 128,-1,13
 714 203 714 203 714 333 c 128,-1,14
 714 463 714 463 623 556 c 128,-1,15
 532 649 532 649 400 649 c 128,-1,8
 268 649 268 649 177 556.5 c 128,-1,9
164 322 m 0,16,17
 164 424 164 424 226.5 491.5 c 128,-1,18
 289 559 289 559 401 559 c 0,19,20
 439 559 439 559 477.5 548 c 128,-1,21
 516 537 516 537 538.5 526 c 128,-1,22
 561 515 561 515 562.5 515 c 128,-1,23
 564 515 564 515 567 518 c 128,-1,24
 570 521 570 521 574.5 521 c 128,-1,25
 579 521 579 521 582 519 c 128,-1,26
 585 517 585 517 586.5 510 c 128,-1,27
 588 503 588 503 588.5 495.5 c 0,28,29
 590.862068966 460.068965517 590.862068966 460.068965517 593.931034483 442.034482759 c 128,-1,30
 597 424 597 424 597 422 c 0,31,32
 597 407 597 407 584 407 c 0,33,34
 576 407 576 407 570 418 c 0,35,36
 511 525 511 525 401 525 c 0,37,38
 326 525 326 525 278 479 c 128,-1,39
 230 433 230 433 230 358 c 0,40,41
 230 287.512195122 230 287.512195122 269.5 222 c 0,42,43
 290 188 290 188 332 167 c 128,-1,44
 374 146 374 146 431 146 c 0,45,46
 511 146 511 146 567 225 c 0,47,48
 573 234 573 234 577.5 245 c 128,-1,49
 582 256 582 256 585 259.5 c 128,-1,50
 588 263 588 263 597 263 c 0,51,52
 604 263 604 263 604 255 c 0,53,54
 604 230 604 230 592 172 c 0,55,56
 590 162 590 162 579 158 c 1,57,58
 497.071428571 117.035714286 497.071428571 117.035714286 455 111.5 c 0,59,60
 436 109 436 109 415 109 c 0,61,62
 352 109 352 109 304.5 126 c 128,-1,63
 257 143 257 143 231 166.5 c 128,-1,64
 205 190 205 190 189 221.5 c 0,65,66
 164 270.71875 164 270.71875 164 322 c 0,16,17
EndSplineSet
EndChar

StartChar: ordfeminine
Encoding: 170 170 108
Width: 337
GlyphClass: 2
Flags: HW
LayerCount: 2
Fore
SplineSet
214 458 m 1,0,1
 144 388 144 388 86 388 c 0,2,3
 47 388 47 388 33.5 409 c 128,-1,4
 20 430 20 430 20 467 c 0,5,6
 20 524 20 524 70 589 c 128,-1,7
 120 654 120 654 192 654 c 1,8,-1
 253 647 l 2,9,10
 258 647 258 647 270 662 c 128,-1,11
 282 677 282 677 288.5 677 c 128,-1,12
 295 677 295 677 295 669 c 128,-1,13
 295 661 295 661 293.5 655 c 128,-1,14
 292 649 292 649 289 640 c 128,-1,15
 286 631 286 631 284.5 626.5 c 128,-1,16
 283 622 283 622 277 591 c 0,17,18
 259 498 259 498 259 479 c 128,-1,19
 259 460 259 460 265 450 c 128,-1,20
 271 440 271 440 279 440 c 128,-1,21
 287 440 287 440 301 459.5 c 128,-1,22
 315 479 315 479 321.5 479 c 128,-1,23
 328 479 328 479 328 465 c 128,-1,24
 328 451 328 451 301 422 c 128,-1,25
 274 393 274 393 260 393 c 128,-1,26
 246 393 246 393 237.5 398.5 c 128,-1,27
 229 404 229 404 225 413 c 128,-1,28
 221 422 221 422 219 429.5 c 0,29,30
 214 448.25 214 448.25 214 458 c 1,0,1
66 471 m 0,31,32
 66 451 66 451 79 438.5 c 128,-1,33
 92 426 92 426 114.5 426 c 128,-1,34
 137 426 137 426 158 437.5 c 0,35,36
 186.411764706 453.058823529 186.411764706 453.058823529 202 478 c 0,37,38
 211 494 211 494 222.5 548 c 128,-1,39
 234 602 234 602 234 614 c 0,40,41
 234 634 234 634 190 634 c 0,42,43
 168 634 168 634 144 621 c 128,-1,44
 120 608 120 608 105 587 c 1,45,46
 66 523 66 523 66 471 c 0,31,32
EndSplineSet
EndChar

StartChar: guillemotleft
Encoding: 171 171 109
Width: 351
GlyphClass: 2
Flags: HW
LayerCount: 2
Fore
SplineSet
158 91 m 128,-1,1
 152 84 152 84 148 84 c 128,-1,2
 144 84 144 84 96 133.5 c 128,-1,3
 48 183 48 183 34 197.5 c 128,-1,4
 20 212 20 212 20 216 c 128,-1,5
 20 220 20 220 27 227 c 0,6,7
 173 349 173 349 176.5 349 c 128,-1,8
 180 349 180 349 184 342.5 c 128,-1,9
 188 336 188 336 188 330.5 c 128,-1,10
 188 325 188 325 138.5 273.5 c 128,-1,11
 89 222 89 222 89 216 c 128,-1,12
 89 210 89 210 126.5 159.5 c 128,-1,13
 164 109 164 109 164 103.5 c 128,-1,0
 164 98 164 98 158 91 c 128,-1,1
280.5 91.5 m 128,-1,15
 275 84 275 84 270.5 84 c 128,-1,16
 266 84 266 84 223.5 128.5 c 128,-1,17
 181 173 181 173 162 192.5 c 128,-1,18
 143 212 143 212 143 216.5 c 128,-1,19
 143 221 143 221 149 227 c 0,20,21
 295 349 295 349 299 349 c 128,-1,22
 303 349 303 349 307.5 342.5 c 128,-1,23
 312 336 312 336 312 330.5 c 128,-1,24
 312 325 312 325 262 273.5 c 128,-1,25
 212 222 212 222 212 216.5 c 128,-1,26
 212 211 212 211 249 159 c 128,-1,27
 286 107 286 107 286 103 c 128,-1,14
 286 99 286 99 280.5 91.5 c 128,-1,15
EndSplineSet
Substitution2: "'case' Case-Sensitive Forms in Latin lookup 13 subtable" guillemotleft.uppercase
AlternateSubs2: "'aalt' Access All Alternates in Latin lookup 1 subtable" guillemotleft.uppercase
AlternateSubs2: "'aalt' Access All Alternates lookup 0 subtable" guillemotleft.uppercase
EndChar

StartChar: logicalnot
Encoding: 172 172 110
Width: 508
GlyphClass: 2
Flags: HW
LayerCount: 2
Fore
SplineSet
21 215 m 0,0,1
 21 232 21 232 40 232 c 2,2,-1
 467 232 l 2,3,4
 480 232 480 232 483.5 229 c 128,-1,5
 487 226 487 226 487 213 c 2,6,-1
 487 55 l 2,7,8
 487 40 487 40 472 40 c 0,9,10
 450.888888889 40 450.888888889 40 446.444444444 45 c 128,-1,11
 442 50 442 50 442 60 c 2,12,-1
 442 171 l 2,13,14
 442 188 442 188 416 188 c 2,15,-1
 41 188 l 2,16,17
 24.2 188 24.2 188 22 199 c 0,18,19
 21 204 21 204 21 215 c 0,0,1
EndSplineSet
EndChar

StartChar: registered
Encoding: 174 174 112
Width: 478
GlyphClass: 2
Flags: HW
LayerCount: 2
Fore
SplineSet
90 398.5 m 128,-1,1
 29 460 29 460 29 547 c 128,-1,2
 29 634 29 634 90 695.5 c 128,-1,3
 151 757 151 757 238 757 c 128,-1,4
 325 757 325 757 387 695.5 c 128,-1,5
 449 634 449 634 449 547 c 128,-1,6
 449 460 449 460 387 398.5 c 128,-1,7
 325 337 325 337 238 337 c 128,-1,0
 151 337 151 337 90 398.5 c 128,-1,1
112 673 m 128,-1,9
 59 620 59 620 59 547 c 128,-1,10
 59 474 59 474 112 421.5 c 128,-1,11
 165 369 165 369 238 369 c 128,-1,12
 311 369 311 369 364.5 421.5 c 128,-1,13
 418 474 418 474 418 547 c 128,-1,14
 418 620 418 620 364.5 673 c 128,-1,15
 311 726 311 726 238 726 c 128,-1,8
 165 726 165 726 112 673 c 128,-1,9
163 529 m 1,16,-1
 164 625 l 2,17,18
 164 651 164 651 134 651 c 0,19,20
 123 651 123 651 123 658 c 0,21,22
 123 667 123 667 135 667 c 2,23,-1
 158 667 l 1,24,-1
 234 669 l 2,25,26
 271 669 271 669 296 653.5 c 128,-1,27
 321 638 321 638 321 605 c 0,28,29
 321 586 321 586 309.5 574.5 c 128,-1,30
 298 563 298 563 287 559 c 128,-1,31
 276 555 276 555 276 554 c 128,-1,32
 276 553 276 553 279.5 549 c 0,33,34
 294.666666667 531.666666667 294.666666667 531.666666667 303.333333333 515.833333333 c 128,-1,35
 312 500 312 500 335 469 c 0,36,37
 347 454 347 454 356 454 c 2,38,-1
 358 454 l 1,39,40
 361 455 361 455 364 455 c 128,-1,41
 367 455 367 455 367 450.5 c 128,-1,42
 367 446 367 446 361 440 c 128,-1,43
 355 434 355 434 341.5 434 c 128,-1,44
 328 434 328 434 314 442 c 128,-1,45
 300 450 300 450 272 497.5 c 128,-1,46
 244 545 244 545 236 547 c 1,47,-1
 211 547 l 2,48,49
 204 547 204 547 202.5 544 c 128,-1,50
 201 541 201 541 201 517 c 128,-1,51
 201 493 201 493 205 474.5 c 128,-1,52
 209 456 209 456 227 452.5 c 128,-1,53
 245 449 245 449 245 443.5 c 128,-1,54
 245 438 245 438 238 438 c 2,55,-1
 187 440 l 2,56,57
 176 440 176 440 159 439 c 2,58,-1
 142 438 l 2,59,60
 135 438 135 438 135 445 c 0,61,62
 135 449 135 449 147.5 452 c 128,-1,63
 160 455 160 455 161.5 468.5 c 128,-1,64
 163 482 163 482 163 505 c 2,65,-1
 163 529 l 1,16,-1
215 562 m 2,66,-1
 229 561 l 1,67,68
 259 561 259 561 270.5 570 c 128,-1,69
 282 579 282 579 282 599 c 128,-1,70
 282 619 282 619 266.5 635.5 c 128,-1,71
 251 652 251 652 218 652 c 0,72,73
 207 652 207 652 204 648 c 128,-1,74
 201 644 201 644 201 629 c 2,75,-1
 201 596 l 2,76,77
 201 576 201 576 203.5 569 c 128,-1,78
 206 562 206 562 215 562 c 2,66,-1
EndSplineSet
EndChar

StartChar: degree
Encoding: 176 176 114
Width: 259
GlyphClass: 2
Flags: HW
LayerCount: 2
Fore
SplineSet
59.5 679.5 m 128,-1,1
 89 713 89 713 134.5 713 c 128,-1,2
 180 713 180 713 205 677.5 c 128,-1,3
 230 642 230 642 230 600.5 c 128,-1,4
 230 559 230 559 192.5 531.5 c 128,-1,5
 155 504 155 504 127.5 504 c 128,-1,6
 100 504 100 504 78 516 c 128,-1,7
 56 528 56 528 46.5 547 c 0,8,9
 30 580 30 580 30 613 c 128,-1,0
 30 646 30 646 59.5 679.5 c 128,-1,1
91 651.5 m 128,-1,11
 72 634 72 634 72 608 c 128,-1,12
 72 582 72 582 88.5 565 c 128,-1,13
 105 548 105 548 131 548 c 0,14,15
 154.827586207 548 154.827586207 548 171.413793103 566.5 c 128,-1,16
 188 585 188 585 188 608 c 0,17,18
 188 669 188 669 131 669 c 0,19,10
 110 669 110 669 91 651.5 c 128,-1,11
EndSplineSet
EndChar

StartChar: plusminus
Encoding: 177 177 115
Width: 508
GlyphClass: 2
Flags: HW
LayerCount: 2
Fore
SplineSet
26 112.625 m 128,-1,1
 31 117 31 117 40 117 c 2,2,-1
 468 117 l 2,3,4
 479 117 479 117 482.5 113 c 128,-1,5
 486 109 486 109 486 96.5 c 128,-1,6
 486 84 486 84 482.5 78.5 c 128,-1,7
 479 73 479 73 465 73 c 2,8,-1
 39 73 l 2,9,10
 21 73 21 73 21 90.625 c 128,-1,0
 21 108.25 21 108.25 26 112.625 c 128,-1,1
21 324 m 0,11,12
 21 346 21 346 40 346 c 2,13,-1
 221 346 l 2,14,15
 231 346 231 346 231 356 c 2,16,-1
 231 495 l 2,17,18
 231 510 231 510 248 510 c 128,-1,19
 265 510 265 510 270 507 c 128,-1,20
 275 504 275 504 275 493 c 2,21,-1
 275 357 l 2,22,23
 275 346 275 346 287 346 c 2,24,-1
 471 346 l 2,25,26
 486 346 486 346 486 331 c 0,27,28
 486 310.777777778 486 310.777777778 480.5 305.888888889 c 128,-1,29
 475 301 475 301 465 301 c 2,30,-1
 287 301 l 2,31,32
 275 301 275 301 275 284 c 2,33,-1
 275 152 l 2,34,35
 275 138 275 138 258.5 138 c 128,-1,36
 242 138 242 138 236.5 140.5 c 128,-1,37
 231 143 231 143 231 152 c 2,38,-1
 231 284 l 2,39,40
 231 294 231 294 228.5 297.5 c 128,-1,41
 226 301 226 301 215 301 c 2,42,-1
 39 301 l 2,43,44
 27 301 27 301 24 306 c 128,-1,45
 21 311 21 311 21 324 c 0,11,12
EndSplineSet
EndChar

StartChar: uni00B5
Encoding: 181 181 119
Width: 536
GlyphClass: 2
Flags: HW
LayerCount: 2
Fore
SplineSet
40 -199 m 0,0,1
 10 -199 10 -199 10 -150 c 128,-1,2
 10 -101 10 -101 19.5 -54 c 128,-1,3
 29 -7 29 -7 48.5 60 c 0,4,5
 80.7868852459 170.93442623 80.7868852459 170.93442623 103.393442623 283.967213115 c 128,-1,6
 126 397 126 397 130 409 c 128,-1,7
 134 421 134 421 142.5 421 c 128,-1,8
 151 421 151 421 169.5 415 c 128,-1,9
 188 409 188 409 188 397.5 c 128,-1,10
 188 386 188 386 163 243 c 128,-1,11
 138 100 138 100 138 80 c 0,12,13
 138 44 138 44 158 44 c 0,14,15
 192 44 192 44 239.5 100 c 0,16,17
 316.884830536 191.232642317 316.884830536 191.232642317 387 354 c 0,18,19
 400.684210526 386.842105263 400.684210526 386.842105263 403.842105263 398.421052632 c 128,-1,20
 407 410 407 410 408 412.5 c 128,-1,21
 409 415 409 415 410 417 c 128,-1,22
 411 419 411 419 412.5 420 c 128,-1,23
 414 421 414 421 415.5 421 c 2,24,-1
 421 421 l 2,25,26
 434 421 434 421 449 414.5 c 128,-1,27
 464 408 464 408 464 400 c 0,28,29
 464 397 464 397 433 250 c 128,-1,30
 402 103 402 103 402 83.5 c 0,31,32
 402 50 402 50 427 50 c 0,33,34
 449 50 449 50 468 86 c 128,-1,35
 487 122 487 122 495 122 c 0,36,37
 506 122 506 122 506 105 c 0,38,39
 506 69 506 69 464 24 c 128,-1,40
 422 -21 422 -21 369 -21 c 0,41,42
 329 -21 329 -21 329 51 c 0,43,44
 329 77 329 77 338.5 137 c 128,-1,45
 348 197 348 197 348 200.5 c 128,-1,46
 348 204 348 204 345.5 204 c 128,-1,47
 343 204 343 204 333.5 186.5 c 0,48,49
 298.101910828 121.292993631 298.101910828 121.292993631 254.550955414 73.6464968153 c 0,50,51
 170.782100127 -18 170.782100127 -18 112 -18 c 0,52,53
 97 -18 97 -18 87.5 -7.5 c 128,-1,54
 78 3 78 3 74.5 14 c 128,-1,55
 71 25 71 25 69.5 25 c 128,-1,56
 68 25 68 25 63 5.5 c 0,57,58
 50 -45.2 50 -45.2 50 -74.6 c 128,-1,59
 50 -104 50 -104 63 -134.5 c 128,-1,60
 76 -165 76 -165 76 -170.5 c 128,-1,61
 76 -176 76 -176 67.5 -187.5 c 128,-1,62
 59 -199 59 -199 40 -199 c 0,0,1
EndSplineSet
EndChar

StartChar: paragraph
Encoding: 182 182 120
Width: 485
GlyphClass: 2
Flags: HW
LayerCount: 2
Fore
SplineSet
372 716 m 1,0,-1
 428 718 l 1,1,-1
 439 718 l 2,2,3
 441 718 441 718 443.5 714.5 c 128,-1,4
 446 711 446 711 446 706.5 c 128,-1,5
 446 702 446 702 439 698.5 c 128,-1,6
 432 695 432 695 420 690 c 128,-1,7
 408 685 408 685 401 677 c 0,8,9
 386 662 386 662 378 586 c 128,-1,10
 370 510 370 510 352 352.5 c 128,-1,11
 334 195 334 195 323 85.5 c 128,-1,12
 312 -24 312 -24 254 -104.5 c 128,-1,13
 196 -185 196 -185 116 -185 c 0,14,15
 79 -185 79 -185 56 -170 c 0,16,17
 51 -167 51 -167 51 -149.5 c 128,-1,18
 51 -132 51 -132 64 -105 c 128,-1,19
 77 -78 77 -78 86 -78 c 0,20,21
 93.8620689655 -78 93.8620689655 -78 100.5 -116.5 c 0,22,23
 103 -131 103 -131 115.5 -143 c 128,-1,24
 128 -155 128 -155 150 -155 c 0,25,26
 218 -155 218 -155 240 106 c 0,27,28
 241 113 241 113 241 116 c 2,29,-1
 256 284 l 2,30,31
 258 302 258 302 258 308.5 c 0,32,33
 258 321 258 321 232.5 321 c 128,-1,34
 207 321 207 321 183.5 323.5 c 128,-1,35
 160 326 160 326 131.5 335 c 128,-1,36
 103 344 103 344 84 359.5 c 128,-1,37
 65 375 65 375 52 404.5 c 128,-1,38
 39 434 39 434 39 474 c 0,39,40
 39 547 39 547 74.5 604.5 c 128,-1,41
 110 662 110 662 156.5 688.5 c 128,-1,42
 203 715 203 715 247 715 c 2,43,-1
 372 716 l 1,0,-1
206 429 m 0,44,45
 206 350 206 350 239 350 c 0,46,47
 251 350 251 350 258 357.5 c 128,-1,48
 265 365 265 365 266.5 374 c 128,-1,49
 268 383 268 383 270 402 c 128,-1,50
 272 421 272 421 275 459 c 128,-1,51
 278 497 278 497 281.5 532.5 c 128,-1,52
 285 568 285 568 289 601 c 128,-1,53
 293 634 293 634 294.5 641.5 c 0,54,55
 297 654 297 654 297 666 c 0,56,57
 297 693 297 693 275 693 c 0,58,59
 246 693 246 693 238 672 c 0,60,61
 226 642 226 642 218 579.5 c 0,62,63
 206 485.75 206 485.75 206 429 c 0,44,45
245 -53 m 128,-1,65
 245 -59 245 -59 251 -59 c 0,66,67
 255 -59 255 -59 265 -37.5 c 128,-1,68
 275 -16 275 -16 287 27.5 c 128,-1,69
 299 71 299 71 304 120 c 2,70,-1
 360 678 l 1,71,-1
 360 679 l 2,72,73
 360 686 360 686 354 691 c 128,-1,74
 348 696 348 696 336.5 696 c 128,-1,75
 325 696 325 696 323 683 c 0,76,77
 302.330508475 531.423728814 302.330508475 531.423728814 267 146 c 2,78,-1
 256 26 l 2,79,80
 251.941176471 -22.7058823529 251.941176471 -22.7058823529 248.470588235 -34.8529411765 c 128,-1,64
 245 -47 245 -47 245 -53 c 128,-1,65
EndSplineSet
EndChar

StartChar: periodcentered
Encoding: 183 183 121
Width: 301
GlyphClass: 2
Flags: HW
LayerCount: 2
Fore
SplineSet
120 300.5 m 128,-1,1
 104 323 104 323 104 331.5 c 128,-1,2
 104 340 104 340 122.5 362 c 128,-1,3
 141 384 141 384 154 384 c 128,-1,4
 167 384 167 384 179.5 365 c 128,-1,5
 192 346 192 346 192 331.5 c 128,-1,6
 192 317 192 317 174 297.5 c 128,-1,7
 156 278 156 278 146 278 c 128,-1,0
 136 278 136 278 120 300.5 c 128,-1,1
EndSplineSet
EndChar

StartChar: ordmasculine
Encoding: 186 186 124
Width: 291
GlyphClass: 2
Flags: HW
LayerCount: 2
Fore
SplineSet
48 413.5 m 128,-1,1
 20 442 20 442 20 500.5 c 128,-1,2
 20 559 20 559 61 608.5 c 128,-1,3
 102 658 102 658 175 658 c 0,4,5
 223 658 223 658 247 627 c 128,-1,6
 271 596 271 596 271 541 c 128,-1,7
 271 486 271 486 231 435.5 c 128,-1,8
 191 385 191 385 121 385 c 0,9,0
 76 385 76 385 48 413.5 c 128,-1,1
78 549 m 128,-1,11
 71 520 71 520 71 486 c 128,-1,12
 71 452 71 452 87 430 c 128,-1,13
 103 408 103 408 128 408 c 0,14,15
 180 408 180 408 204 466 c 0,16,17
 222 508 222 508 222 556 c 0,18,19
 222 635 222 635 166 635 c 0,20,21
 131 635 131 635 108 606.5 c 128,-1,10
 85 578 85 578 78 549 c 128,-1,11
EndSplineSet
EndChar

StartChar: guillemotright
Encoding: 187 187 125
Width: 351
GlyphClass: 2
Flags: HW
LayerCount: 2
Fore
SplineSet
43 90.5 m 128,-1,1
 39 97 39 97 39 103 c 128,-1,2
 39 109 39 109 89 161 c 128,-1,3
 139 213 139 213 139 215 c 0,4,5
 139 221 139 221 102 273.5 c 128,-1,6
 65 326 65 326 65 330 c 128,-1,7
 65 334 65 334 70.5 341.5 c 128,-1,8
 76 349 76 349 80.5 349 c 128,-1,9
 85 349 85 349 112.5 320 c 128,-1,10
 140 291 140 291 148 282.5 c 0,11,12
 172 257 172 257 190 239 c 128,-1,13
 208 221 208 221 208 216 c 128,-1,14
 208 211 208 211 183.5 191 c 128,-1,15
 159 171 159 171 107.5 127.5 c 128,-1,16
 56 84 56 84 51.5 84 c 128,-1,0
 47 84 47 84 43 90.5 c 128,-1,1
166 90.5 m 128,-1,18
 162 97 162 97 162 102.5 c 128,-1,19
 162 108 162 108 211.5 159.5 c 128,-1,20
 261 211 261 211 261 217 c 128,-1,21
 261 223 261 223 224 276 c 128,-1,22
 187 329 187 329 187 332.5 c 128,-1,23
 187 336 187 336 193 342.5 c 128,-1,24
 199 349 199 349 203 349 c 128,-1,25
 207 349 207 349 222 333.5 c 2,26,-1
 327 225 l 2,27,28
 331 221 331 221 331 217 c 128,-1,29
 331 213 331 213 324 206 c 0,30,31
 178 84 178 84 174 84 c 128,-1,17
 170 84 170 84 166 90.5 c 128,-1,18
EndSplineSet
Substitution2: "'case' Case-Sensitive Forms in Latin lookup 13 subtable" guillemotright.uppercase
AlternateSubs2: "'aalt' Access All Alternates in Latin lookup 1 subtable" guillemotright.uppercase
AlternateSubs2: "'aalt' Access All Alternates lookup 0 subtable" guillemotright.uppercase
EndChar

StartChar: questiondown
Encoding: 191 191 129
Width: 354
GlyphClass: 2
Flags: HW
LayerCount: 2
Fore
SplineSet
227 416 m 1,0,-1
 224 449 l 2,1,2
 224 459 224 459 233 459 c 0,3,4
 258 459 258 459 258 394 c 0,5,6
 258 358 258 358 225 300 c 128,-1,7
 192 242 192 242 159 188 c 128,-1,8
 126 134 126 134 126 105.5 c 128,-1,9
 126 77 126 77 152.5 54.5 c 128,-1,10
 179 32 179 32 202.5 32 c 128,-1,11
 226 32 226 32 245.5 41.5 c 128,-1,12
 265 51 265 51 272 51 c 128,-1,13
 279 51 279 51 279 45 c 0,14,15
 279 31 279 31 247 8.5 c 128,-1,16
 215 -14 215 -14 172.5 -14 c 128,-1,17
 130 -14 130 -14 91 19 c 128,-1,18
 52 52 52 52 52 104 c 0,19,20
 52 139.176470588 52 139.176470588 65 160.588235294 c 128,-1,21
 78 182 78 182 84.5 191 c 0,22,23
 98.8 210.8 98.8 210.8 112 224 c 1,24,25
 136 254 136 254 149 270 c 128,-1,26
 162 286 162 286 173.5 300.5 c 128,-1,27
 185 315 185 315 189.5 322.5 c 128,-1,28
 194 330 194 330 202 342 c 128,-1,29
 210 354 210 354 213.5 362 c 128,-1,30
 217 370 217 370 220.5 379.5 c 0,31,32
 227 397.142857143 227 397.142857143 227 416 c 1,0,-1
193 601 m 128,-1,34
 193 606 193 606 197.5 611 c 0,35,36
 208.230769231 622.923076923 208.230769231 622.923076923 227 637 c 1,37,38
 257 667 257 667 260 667 c 128,-1,39
 263 667 263 667 266.5 665.5 c 128,-1,40
 270 664 270 664 273.5 661 c 128,-1,41
 277 658 277 658 279 655.5 c 0,42,43
 293.761904762 637.047619048 293.761904762 637.047619048 303.880952381 627.523809524 c 0,44,45
 323 609.529411765 323 609.529411765 323 603 c 0,46,47
 323 594 323 594 288 568 c 0,48,49
 280 562 280 562 272 553.5 c 0,50,51
 258.352941176 539 258.352941176 539 251.676470588 539 c 128,-1,52
 245 539 245 539 242.5 540 c 128,-1,53
 240 541 240 541 237 544.5 c 128,-1,54
 234 548 234 548 231.5 551 c 128,-1,55
 229 554 229 554 224.5 560 c 128,-1,56
 220 566 220 566 206.5 581 c 128,-1,33
 193 596 193 596 193 601 c 128,-1,34
EndSplineSet
Position2: "'cpsp' Capital Spacing in Latin lookup 0 subtable" dx=20 dy=0 dh=40 dv=0
EndChar

